<svg id="레이어_1" data-name="레이어 1" xmlns="http://www.w3.org/2000/svg" viewBox="0 0 57.56 52.89"><defs><style>.cls-1{fill:#fff;}</style></defs><path class="cls-1" d="M94,35a.94.94,0,0,1-.67-.28L66.22,8.59,39.54,34.72a1,1,0,1,1-1.35-1.38l28-27.44L94.68,33.33a1,1,0,0,1,0,1.37A1,1,0,0,1,94,35Z" transform="translate(-37.65 -5.56)"/><path class="cls-1" d="M38.86,35.24h0a1.18,1.18,0,0,1-.85-.36,1.23,1.23,0,0,1-.35-.86,1.2,1.2,0,0,1,.36-.86l28.2-27.6,28.63,27.6a1.21,1.21,0,0,1,0,1.71,1.2,1.2,0,0,1-.88.37,1.21,1.21,0,0,1-.84-.34l-26.94-26-26.51,26A1.19,1.19,0,0,1,38.86,35.24Zm27.35-29L38.36,33.51a.72.72,0,0,0-.22.51.69.69,0,0,0,.21.51.68.68,0,0,0,.5.22.75.75,0,0,0,.52-.2L66.22,8.25,93.5,34.55a.74.74,0,0,0,.5.2.71.71,0,0,0,.52-.22.72.72,0,0,0,0-1Z" transform="translate(-37.65 -5.56)"/><path class="cls-1" d="M87.3,22.71a1,1,0,0,1-1-1V13.82h-8a1,1,0,0,1,0-1.94h9.88v9.86A1,1,0,0,1,87.3,22.71Z" transform="translate(-37.65 -5.56)"/><path class="cls-1" d="M87.3,23a1.21,1.21,0,0,1-1.21-1.21V14.06H78.38a1.21,1.21,0,1,1,0-2.42H88.51v10.1A1.21,1.21,0,0,1,87.3,23ZM78.38,12.13a.72.72,0,1,0,0,1.44h8.19v8.17a.73.73,0,0,0,1.45,0V12.13Z" transform="translate(-37.65 -5.56)"/><path class="cls-1" d="M87.24,58.2H71.85v-16H61v16H45.63V33.63a1,1,0,0,1,1.93,0V56.27H59.07v-16H73.78v16H85.31V33.63a1,1,0,0,1,1.93,0Z" transform="translate(-37.65 -5.56)"/><path class="cls-1" d="M87.48,58.44H71.6v-16H61.25v16H45.38V33.63a1.21,1.21,0,1,1,2.42,0V56h11V40H74V56h11V33.63a1.21,1.21,0,0,1,2.42,0ZM72.09,58H87V33.63a.72.72,0,0,0-1.44,0V56.51h-12v-16H59.32v16h-12V33.63a.73.73,0,0,0-1.45,0V58H60.76v-16H72.09Z" transform="translate(-37.65 -5.56)"/></svg>