<svg id="_迹_1" data-name="卵迹_1" xmlns="http://www.w3.org/2000/svg" xmlns:xlink="http://www.w3.org/1999/xlink" viewBox="0 0 3600 986.66"><defs><style>.cls-1{fill:none;}.cls-2{opacity:0.27;}.cls-3{fill:#999;}.cls-4{clip-path:url(#clip-path);}.cls-5{fill:url(#무제_그라디언트_20);}.cls-6{clip-path:url(#clip-path-2);}.cls-7{fill:url(#무제_그라디언트_20-2);}.cls-8{clip-path:url(#clip-path-3);}.cls-9{fill:url(#무제_그라디언트_23);}.cls-10{clip-path:url(#clip-path-4);}.cls-11{fill:url(#무제_그라디언트_20-3);}.cls-12{clip-path:url(#clip-path-5);}.cls-13{fill:url(#무제_그라디언트_20-4);}.cls-14{clip-path:url(#clip-path-6);}.cls-15{fill:url(#무제_그라디언트_20-5);}.cls-16{clip-path:url(#clip-path-7);}.cls-17{fill:url(#무제_그라디언트_20-6);}.cls-18{clip-path:url(#clip-path-8);}.cls-19{fill:url(#무제_그라디언트_20-7);}.cls-20{clip-path:url(#clip-path-9);}.cls-21{fill:url(#무제_그라디언트_20-8);}.cls-22{clip-path:url(#clip-path-10);}.cls-23{fill:url(#무제_그라디언트_20-9);}.cls-24{clip-path:url(#clip-path-11);}.cls-25{fill:url(#무제_그라디언트_20-10);}.cls-26{clip-path:url(#clip-path-12);}.cls-27{fill:url(#무제_그라디언트_20-11);}.cls-28{clip-path:url(#clip-path-13);}.cls-29{fill:url(#무제_그라디언트_20-12);}.cls-30{clip-path:url(#clip-path-14);}.cls-31{fill:url(#무제_그라디언트_20-13);}.cls-32{clip-path:url(#clip-path-15);}.cls-33{fill:url(#무제_그라디언트_20-14);}.cls-34{clip-path:url(#clip-path-16);}.cls-35{fill:url(#무제_그라디언트_20-15);}.cls-36{clip-path:url(#clip-path-17);}.cls-37{fill:url(#무제_그라디언트_20-16);}.cls-38{clip-path:url(#clip-path-18);}.cls-39{fill:url(#무제_그라디언트_20-17);}.cls-40{clip-path:url(#clip-path-19);}.cls-41{fill:url(#무제_그라디언트_20-18);}.cls-42{clip-path:url(#clip-path-20);}.cls-43{fill:url(#무제_그라디언트_20-19);}</style><clipPath id="clip-path" transform="translate(0 -181.67)"><rect class="cls-1" x="1497.99" y="651.81" width="10.16" height="10.16" transform="translate(-24 1255.88) rotate(-45.02)"/></clipPath><linearGradient id="무제_그라디언트_20" x1="1460.59" y1="394.62" x2="1463.85" y2="394.62" gradientTransform="translate(-1357.82 -4500.15) rotate(45) scale(3.79)" gradientUnits="userSpaceOnUse"><stop offset="0"/><stop offset="0.04" stop-color="#000509"/><stop offset="0.28" stop-color="#002541"/><stop offset="0.51" stop-color="#003d6e"/><stop offset="0.71" stop-color="#004f8e"/><stop offset="0.88" stop-color="#005aa1"/><stop offset="1" stop-color="#005ea8"/></linearGradient><clipPath id="clip-path-2" transform="translate(0 -181.67)"><rect class="cls-1" x="1516.13" y="674.74" width="10.16" height="10.16" transform="translate(-35.32 1274.33) rotate(-44.98)"/></clipPath><linearGradient id="무제_그라디언트_20-2" x1="1465.9" y1="395.21" x2="1469.17" y2="395.21" gradientTransform="translate(-1352.24 -4493.16) rotate(45) scale(3.79)" xlink:href="#무제_그라디언트_20"/><clipPath id="clip-path-3" transform="translate(0 -181.67)"><rect class="cls-1" x="1514.82" y="693.85" width="10.16" height="10.16" transform="translate(-49.05 1279.44) rotate(-45)"/></clipPath><linearGradient id="무제_그라디언트_23" x1="1468.23" y1="397.85" x2="1471.5" y2="397.85" gradientTransform="translate(-1353.58 -4488.77) rotate(45) scale(3.79)" gradientUnits="userSpaceOnUse"><stop offset="0"/><stop offset="0.12" stop-color="#000509"/><stop offset="0.28" stop-color="#002541"/><stop offset="0.51" stop-color="#003d6e"/><stop offset="0.71" stop-color="#004f8e"/><stop offset="0.88" stop-color="#005aa1"/><stop offset="1" stop-color="#005ea8"/></linearGradient><clipPath id="clip-path-4" transform="translate(0 -181.67)"><rect class="cls-1" x="1507.65" y="640.65" width="8.54" height="8.54" transform="translate(-13.2 1257.98) rotate(-45)"/></clipPath><linearGradient id="무제_그라디언트_20-3" x1="1450.09" y1="399.84" x2="1453.36" y2="399.84" gradientTransform="translate(-850.94 -3696.28) rotate(45) scale(3.18)" xlink:href="#무제_그라디언트_20"/><clipPath id="clip-path-5" transform="translate(0 -181.67)"><rect class="cls-1" x="1526" y="655.15" width="10.16" height="10.16" transform="translate(-18.58 1275.57) rotate(-44.98)"/></clipPath><linearGradient id="무제_그라디언트_20-4" x1="1464.65" y1="391.4" x2="1467.92" y2="391.4" gradientTransform="translate(-1348.74 -4498.39) rotate(45) scale(3.79)" xlink:href="#무제_그라디언트_20"/><clipPath id="clip-path-6" transform="translate(0 -181.67)"><rect class="cls-1" x="1555.24" y="717.28" width="10.16" height="10.16" transform="translate(-53.77 1314.88) rotate(-45)"/></clipPath><linearGradient id="무제_그라디언트_20-5" x1="1476.49" y1="395.66" x2="1479.75" y2="395.66" gradientTransform="translate(-1340.75 -4480.87) rotate(45) scale(3.79)" xlink:href="#무제_그라디언트_20"/><clipPath id="clip-path-7" transform="translate(0 -181.67)"><rect class="cls-1" x="1532.4" y="682.3" width="10.16" height="10.16" transform="translate(-35.73 1288.49) rotate(-45)"/></clipPath><linearGradient id="무제_그라디언트_20-6" x1="1468.99" y1="394.09" x2="1472.26" y2="394.09" gradientTransform="translate(-1347.28 -4490.83) rotate(45) scale(3.79)" xlink:href="#무제_그라디언트_20"/><clipPath id="clip-path-8" transform="translate(0 -181.67)"><rect class="cls-1" x="1552.21" y="663.42" width="10.16" height="10.16" transform="translate(-16.31 1297.64) rotate(-45.02)"/></clipPath><linearGradient id="무제_그라디언트_20-7" x1="1469.13" y1="389.07" x2="1472.39" y2="389.07" gradientTransform="translate(-1341.66 -4497.35) rotate(45) scale(3.79)" xlink:href="#무제_그라디언트_20"/><clipPath id="clip-path-9" transform="translate(0 -181.67)"><rect class="cls-1" x="1569.22" y="726.08" width="18.81" height="18.81" transform="translate(-57.61 1331.91) rotate(-45.01)"/></clipPath><linearGradient id="무제_그라디언트_20-8" x1="1495.99" y1="374.57" x2="1499.26" y2="374.57" gradientTransform="translate(-3998.36 -8743.6) rotate(45) scale(7.02)" xlink:href="#무제_그라디언트_20"/><clipPath id="clip-path-10" transform="translate(0 -181.67)"><rect class="cls-1" x="1536" y="702.07" width="13.73" height="13.73" transform="translate(-49.57 1298.16) rotate(-44.98)"/></clipPath><linearGradient id="무제_그라디언트_20-9" x1="1483.29" y1="384.31" x2="1486.55" y2="384.31" gradientTransform="translate(-2446.71 -6248.32) rotate(45) scale(5.13)" xlink:href="#무제_그라디언트_20"/><clipPath id="clip-path-11" transform="translate(0 -181.67)"><rect class="cls-1" x="1587.32" y="657.74" width="14.43" height="14.43" transform="translate(-3.17 1322.27) rotate(-45)"/></clipPath><linearGradient id="무제_그라디언트_20-10" x1="1485.72" y1="373.86" x2="1488.99" y2="373.86" gradientTransform="translate(-2662.64 -6633.01) rotate(45) scale(5.41)" xlink:href="#무제_그라디언트_20"/><clipPath id="clip-path-12" transform="translate(0 -181.67)"><rect class="cls-1" x="1572.99" y="674.32" width="14.43" height="14.43" transform="translate(-18.91 1317.44) rotate(-45.02)"/></clipPath><linearGradient id="무제_그라디언트_20-11" x1="1485.94" y1="376.67" x2="1489.21" y2="376.67" gradientTransform="translate(-2667.67 -6629.08) rotate(45) scale(5.41)" xlink:href="#무제_그라디언트_20"/><clipPath id="clip-path-13" transform="translate(0 -181.67)"><polygon class="cls-1" points="1611.43 671.95 1621.7 682.1 1631.86 671.95 1621.7 661.68 1611.43 671.95"/></clipPath><linearGradient id="무제_그라디언트_20-12" x1="1489.77" y1="371.15" x2="1493.04" y2="371.15" gradientTransform="translate(-2847.23 -6939.9) rotate(45) scale(5.64)" xlink:href="#무제_그라디언트_20"/><clipPath id="clip-path-14" transform="translate(0 -181.67)"><path class="cls-1" d="M1559,704.49a2,2,0,0,1,2-2.08,2.08,2.08,0,0,1,2.08,2.08,2,2,0,0,1-2.08,2,1.94,1.94,0,0,1-2-2m0-7.62a1.94,1.94,0,0,1,2-2,2,2,0,1,1,0,4,2,2,0,0,1-2-2.08m-9.58,4.5,13.27,13.28L1576,701.37l-13.27-13.27Z"/></clipPath><linearGradient id="무제_그라디언트_20-13" x1="1495.48" y1="370.02" x2="1498.75" y2="370.02" gradientTransform="translate(-4956.61 -10280.19) rotate(45) scale(8.18)" xlink:href="#무제_그라디언트_20"/><clipPath id="clip-path-15" transform="translate(0 -181.67)"><path class="cls-1" d="M1582.81,711.65a2,2,0,1,1,4,0,2,2,0,0,1-2.08,2,2,2,0,0,1-2-2m0-7.62a1.94,1.94,0,0,1,2-2,2,2,0,0,1,2.08,2,2.07,2.07,0,0,1-2.08,2.08,2.05,2.05,0,0,1-2-2.08m-9.46,5.08,13.27,13.27,13.27-13.27-13.27-13.27Z"/></clipPath><linearGradient id="무제_그라디언트_20-14" x1="1497.38" y1="369.05" x2="1500.65" y2="369.05" gradientTransform="translate(-4949.79 -10278.52) rotate(45) scale(8.18)" xlink:href="#무제_그라디언트_20"/><clipPath id="clip-path-16" transform="translate(0 -181.67)"><path class="cls-1" d="M1602.66,694.91a2,2,0,0,1,2-2.08,2.07,2.07,0,0,1,2.08,2.08,2,2,0,0,1-2.08,2,1.87,1.87,0,0,1-2-2m0-7.5a1.94,1.94,0,0,1,2-2,2,2,0,0,1,2.08,2,2.07,2.07,0,0,1-2.08,2.08,2.13,2.13,0,0,1-2-2.08m-13.5.35L1602.43,701l13.27-13.27-13.27-13.39Z"/></clipPath><linearGradient id="무제_그라디언트_20-15" x1="1497.05" y1="366.81" x2="1500.32" y2="366.81" gradientTransform="translate(-4943.93 -10283.37) rotate(45) scale(8.18)" xlink:href="#무제_그라디언트_20"/><clipPath id="clip-path-17" transform="translate(0 -181.67)"><path class="cls-1" d="M1595.74,733.8a2,2,0,0,1,2-2.07,2.06,2.06,0,0,1,2.07,2.07,2,2,0,0,1-2.07,2,1.94,1.94,0,0,1-2-2m0-7.61a2,2,0,0,1,2-2,2,2,0,1,1,0,4,2,2,0,0,1-2-2.07m-10.16,6.23,13.27,13.27,13.27-13.27-13.27-13.27Z"/></clipPath><linearGradient id="무제_그라디언트_20-16" x1="1499.52" y1="369.71" x2="1502.78" y2="369.71" gradientTransform="translate(-4946.04 -10271.39) rotate(45) scale(8.18)" xlink:href="#무제_그라디언트_20"/><clipPath id="clip-path-18" transform="translate(0 -181.67)"><path class="cls-1" d="M1614.43,713.15a2,2,0,1,1,4,0,2,2,0,0,1-2.08,2,1.88,1.88,0,0,1-2-2m-14,2.77,13.27,13.27L1627,715.92l-8.42-8.43-4.16.35-.69-5.31Z"/></clipPath><linearGradient id="무제_그라디언트_20-17" x1="1499.42" y1="367.83" x2="1502.69" y2="367.83" gradientTransform="translate(-4939.99 -10274) rotate(45) scale(8.18)" xlink:href="#무제_그라디언트_20"/><clipPath id="clip-path-19" transform="translate(0 -181.67)"><path class="cls-1" d="M1614.43,705.64a2,2,0,0,1,2-2,2,2,0,1,1,0,4,2.12,2.12,0,0,1-2-2.08m-7.39-4.27,10.28,10.28,10.27-10.28-10.27-10.27Z"/></clipPath><linearGradient id="무제_그라디언트_20-18" x1="1495.84" y1="369.85" x2="1499.11" y2="369.85" gradientTransform="translate(-3851.99 -8537.17) rotate(45) scale(6.86)" xlink:href="#무제_그라디언트_20"/><clipPath id="clip-path-20" transform="translate(0 -181.67)"><rect class="cls-1" x="1613.96" y="730.31" width="18.81" height="18.81" transform="translate(-47.5 1364.78) rotate(-45.01)"/></clipPath><linearGradient id="무제_그라디언트_20-19" x1="1499.24" y1="371.93" x2="1502.51" y2="371.93" gradientTransform="translate(-3934.34 -8661.57) rotate(45) scale(6.96)" xlink:href="#무제_그라디언트_20"/></defs><g class="cls-2"><path class="cls-3" d="M1760.64,696.53c5.17,6.79,3.5,16.87-3.9,22.52s-17.46,4.5-22.63-2.29l-59.89-78.53L1700.75,618Z" transform="translate(0 -181.67)"/><path class="cls-3" d="M1534,380.61l6.06,7.79,8.94-7,1.56,2a64.91,64.91,0,0,0,4.69,6.1l-8.88,7,5.83,7.46,8.91-7,5.47,7c.19-.1.38-.18.58-.27.08.07-1-1.34-.89-1.28l-8.73,7.08a8.08,8.08,0,0,0-.9,10.67L1574,442a106.08,106.08,0,0,0-14.61,37.9c-4.42,25.64,1.05,52.23,17.42,73.69l32,42c-14.86,11.59-18.26,32.1-7.71,45.94a30.88,30.88,0,0,0,21.7,11.93,35.47,35.47,0,0,0,21-4.69l173-131.91c12.07-11.9,14.28-30.31,4.47-43.17a30.82,30.82,0,0,0-21.58-11.77,35.11,35.11,0,0,0-23.07,5.89l-.07-.08-32-42c-27.59-36.17-77.6-46.23-120.29-27.27l-.52.23.76-.63L1609,378.5a6.57,6.57,0,0,0-9.76-1.15l-8.14,6-.36-.37c-.22-.35-.42-.7-.67-1.05a31.76,31.76,0,0,0-3.87-4.44l8.4-6.54-5.87-7.51-8.92,6.95-6.29-8.06,9-7-6.09-7.81Z" transform="translate(0 -181.67)"/><path class="cls-3" d="M1856.58,642.91c-7.32,5.58-17.47,4.5-22.64-2.28l-59.89-78.53,26.53-20.23,59.89,78.53C1865.64,627.18,1863.89,637.33,1856.58,642.91Z" transform="translate(0 -181.67)"/><path class="cls-3" d="M1948.71,690.53l.06.09a35.08,35.08,0,0,1,23.07-5.9,30.84,30.84,0,0,1,21.59,11.77c9.81,12.86,7.59,31.27-4.47,43.18l-173,131.9a35.41,35.41,0,0,1-21,4.69,30.81,30.81,0,0,1-21.69-11.92c-10.55-13.84-7.15-34.36,7.71-46Z" transform="translate(0 -181.67)"/><path class="cls-3" d="M1970.07,947.07l-.64.26.45-.32c17.51-13.55,34.07-28.41,51.64-41.88l21.83,27.71a8.08,8.08,0,0,1-.9,10.67l-8.18,6.64,4.61,5.89,8.91-7,5.83,7.46-8.88,7a63.64,63.64,0,0,1,4.69,6.1l1.56,2,8.94-7,6.06,7.79-42.36,33.05-6.09-7.8,9-7-6.29-8.06-8.92,7-5.87-7.51,8.4-6.53a32.34,32.34,0,0,1-3.87-4.44c-.25-.35-.45-.7-.67-1.05l-.36-.37-8.14,6a6.56,6.56,0,0,1-9.76-1.15l-21.19-27.06.76-.63Z" transform="translate(0 -181.67)"/><path class="cls-3" d="M2041.33,808a19.45,19.45,0,0,1-3.54,27.28l-141.47,109a19.46,19.46,0,0,1-27.29-3.54l-75.09-97.47a19.45,19.45,0,0,1,3.54-27.28L1939,707a19.46,19.46,0,0,1,27.29,3.53Z" transform="translate(0 -181.67)"/><rect class="cls-3" x="1855.18" y="752.39" width="170.21" height="205.31" rx="43.87" transform="translate(-118.6 1180.14) rotate(-37.61)"/><path class="cls-3" d="M2038.71,601.73a9.32,9.32,0,0,1-11.85-5.78h0a9.32,9.32,0,0,1,5.78-11.85l41.69-16.44a9.33,9.33,0,0,1,11.86,5.78h0a9.33,9.33,0,0,1-5.78,11.85Z" transform="translate(0 -181.67)"/><path class="cls-3" d="M1530.17,779a9.33,9.33,0,0,1-11.86-5.78h0a9.33,9.33,0,0,1,5.78-11.85l41.7-16.44a9.32,9.32,0,0,1,11.85,5.78h0a9.32,9.32,0,0,1-5.78,11.85Z" transform="translate(0 -181.67)"/><path class="cls-3" d="M1937.38,466.48a9.32,9.32,0,0,1-12.8,3.19h0a9.32,9.32,0,0,1-3.19-12.79l21.37-39.4a9.34,9.34,0,0,1,12.8-3.19h0a9.33,9.33,0,0,1,3.19,12.8Z" transform="translate(0 -181.67)"/><path class="cls-3" d="M1661.74,929.14a9.34,9.34,0,0,1-12.8,3.19h0a9.33,9.33,0,0,1-3.19-12.8l21.37-39.39a9.32,9.32,0,0,1,12.8-3.19h0a9.32,9.32,0,0,1,3.19,12.79Z" transform="translate(0 -181.67)"/><path class="cls-3" d="M2000,525.17a9.33,9.33,0,0,1-13.12-1.37h0a9.33,9.33,0,0,1,1.38-13.12l70.45-57.06a9.32,9.32,0,0,1,13.11,1.38h0a9.33,9.33,0,0,1-1.38,13.12Z" transform="translate(0 -181.67)"/><path class="cls-3" d="M1545.82,893a9.32,9.32,0,0,1-13.11-1.38h0a9.33,9.33,0,0,1,1.38-13.12l70.44-57a9.32,9.32,0,0,1,13.12,1.37h0a9.33,9.33,0,0,1-1.38,13.12Z" transform="translate(0 -181.67)"/><path class="cls-3" d="M1861.86,432.18a9.33,9.33,0,0,1-10.93,7.38h0a9.34,9.34,0,0,1-7.38-10.94l17.29-89a9.34,9.34,0,0,1,10.94-7.37h0a9.33,9.33,0,0,1,7.37,10.93Z" transform="translate(0 -181.67)"/><path class="cls-3" d="M1743.66,1007a9.34,9.34,0,0,1-10.94,7.37h0a9.33,9.33,0,0,1-7.37-10.93l17.29-89a9.32,9.32,0,0,1,10.93-7.38h0A9.34,9.34,0,0,1,1761,918Z" transform="translate(0 -181.67)"/><path class="cls-3" d="M1555.57,659.7a9.32,9.32,0,0,1,9.16,9.48h0a9.33,9.33,0,0,1-9.49,9.17l-90.63-1.58a9.33,9.33,0,0,1-9.17-9.48h0a9.33,9.33,0,0,1,9.49-9.17Z" transform="translate(0 -181.67)"/><path class="cls-3" d="M2139.89,669.85a9.33,9.33,0,0,1,9.17,9.48h0a9.33,9.33,0,0,1-9.49,9.17l-90.64-1.58a9.32,9.32,0,0,1-9.16-9.48h0a9.33,9.33,0,0,1,9.49-9.17Z" transform="translate(0 -181.67)"/><path class="cls-3" d="M1362.76,195.41c-68.17-22.14-137.69-17.35-190.75,13.15-78.19,44.95-98,131.38-50.34,220.17,3.66,6.82,8,14.58,12.94,23.56,43.6,78.64,134.35,242.3,84.11,327.6-22.55,38.28-72.46,57.7-148.36,57.7-46.51,0-126.4-33.46-218.92-72.19C724.66,712.31,566.87,646.24,411.66,629.27,327,620,250,626.5,182.93,648.57,113.52,671.4,52.11,711.66,0,768.31v27.2C100.57,676.59,234.65,628,409.7,647.16,562.32,663.85,718.78,729.36,844.49,782c98.19,41.11,175.75,73.59,225.87,73.59,82.72,0,137.86-22.4,163.87-66.57,55.46-94.16-35.19-257.64-83.88-345.46-4.95-8.92-9.22-16.62-12.82-23.33-51.7-96.42-11.45-164.5,43.45-196.06,48.65-28,112.88-32.21,176.21-11.64,51.93,16.86,131.44,58.31,194,160l15.33-9.43C1501.1,256.75,1417.55,213.2,1362.76,195.41Z" transform="translate(0 -181.67)"/><path class="cls-3" d="M3600,551.62c-100.32,115.28-234.88,162.08-410.85,143-155.63-16.9-315.32-82.58-443.64-135.35-99.15-40.78-177.46-73-227.32-73-82.72,0-137.86,22.4-163.87,66.57-55.46,94.16,35.19,257.64,83.88,345.46,5,8.92,9.22,16.62,12.82,23.33,44.6,83.18,28.95,163.58-39.87,204.84-46.37,27.8-108.56,31.53-170.63,10.24C2189,1119,2112.76,1075.6,2041.71,969l-15,10c73.84,110.77,153.83,156.15,207.94,174.7,28.5,9.78,57.11,14.63,84.5,14.63,37.08,0,71.93-8.89,101.22-26.45,35.63-21.36,60.34-54.44,69.6-93.14,10-41.86,2-88.77-23.12-135.64-3.66-6.82-8-14.58-12.93-23.56-43.61-78.65-134.36-242.3-84.12-327.6,22.55-38.28,72.46-57.7,148.36-57.7,46.3,0,127,33.2,220.48,71.64C2868,629.08,3029,695.29,3187.2,712.47c86.29,9.37,164.53,2.95,232.55-19.07,68.4-22.15,128.9-60.78,180.25-115Z" transform="translate(0 -181.67)"/></g><g class="cls-4"><polygon class="cls-5" points="1502.95 460.85 1517.38 475.27 1502.95 489.58 1488.64 475.27 1502.95 460.85"/></g><g class="cls-6"><polygon class="cls-7" points="1521.18 483.7 1535.49 498.12 1521.18 512.43 1506.88 498.12 1521.18 483.7"/></g><g class="cls-8"><polygon class="cls-9" points="1519.91 502.97 1534.22 517.28 1519.91 531.59 1505.61 517.28 1519.91 502.97"/></g><g class="cls-10"><polygon class="cls-11" points="1511.95 451.27 1523.95 463.27 1511.95 475.27 1499.95 463.27 1511.95 451.27"/></g><path d="M1782.57,704.84h-3.92v-19h3.69c6.46,0,14.54.46,14.54,9,0,8.88-7.5,10-14.31,10m-41.89-27.47h-10.85c-7.84-9.69-19.15-16.39-32.19-19.39h43v19.39Zm0,21.47h-.46a53.08,53.08,0,0,0-8.77-19.39h9.23Zm0,43h-7.5a51.44,51.44,0,0,0,7.5-19Zm0,21.47H1704.1c11.31-3.7,20.89-10.27,27.58-19.39h9ZM1702.37,744l-5.54,5.54-5.54-5.54h0l-2.08-2.08h0l-5.42-5.42,4.5-4.39a24.38,24.38,0,0,1-6.58.93c-8.31,0-14.77-4-18-10.51h36l-1.38,2.43,11.54,11.54-6.46,6.46Zm-44,15.46-15.23-15.23.23-.23h0l2.07-2.08h0L1658.4,729l15.23,15.23ZM1642,733.23a2,2,0,0,1,2-2,2.05,2.05,0,0,1,2.08,2,2,2,0,0,1-2.08,2,2,2,0,0,1-2-2m4-7.51a2,2,0,0,1-2.08,2,2,2,0,0,1,0-3.93,2.05,2.05,0,0,1,2.08,2m-11.77-3.23h0l-2.08-2.07h0l-7.73-7.62L1636.36,701h0l1.84-1.85,1.85,1.85,11.77,11.77h0l-7.62,7.62-2.07,2.07-3.93,3.93Zm20.66-4a2,2,0,0,1,2.07,2,2,2,0,0,1-2.07,2,2,2,0,0,1,0-3.93m0-7.38a2,2,0,0,1,2.07,2,2,2,0,0,1-2.07,2,1.94,1.94,0,0,1-2-2,1.87,1.87,0,0,1,2-2m6-15.23a2.05,2.05,0,0,1,2.08,2,1.9,1.9,0,0,1-.35,1c-.12.23-.35.34-.46.57h0c-.12,0-.12.12-.23.12h0c-.12,0-.12.11-.23.11h0c-.12,0-.12,0-.23.12h-1.39c-.12,0-.12,0-.23-.12h0c-.12,0-.12-.11-.23-.11h0c-.12,0-.12-.12-.23-.12h0a1.09,1.09,0,0,1-.46-.57,1.9,1.9,0,0,1-.35-1,2.45,2.45,0,0,1,2.31-2m0-7.51a2.06,2.06,0,0,1,2.08,2,2,2,0,0,1-2.08,2,1.94,1.94,0,0,1-2-2,1.87,1.87,0,0,1,2-2m30,12.58,2.08-2.07h-27.24c3.47-4.5,9-7.39,15.93-7.39a19.74,19.74,0,0,1,13.62,5.08l10-10,12.46,12.35h0l2.08,2.07h0l.69.7h0l-15.23,15.23-3.46-3.46a23.24,23.24,0,0,1-1.39,7h-37.85a23.36,23.36,0,0,1,1.61-19.39h26.66ZM1866,710.84a21.21,21.21,0,0,1,21.46-21.12c8.89,0,16.85,5.08,23.2,11l-1.15-41.31a81.87,81.87,0,0,0-26.43-4.5,56.1,56.1,0,0,0-49.74,29.42c-4.73-19.15-21.35-28.38-42.7-28.38H1481.83V658h184a58.53,58.53,0,0,0-32.2,19.39H1481.72v2.08H1632a51.33,51.33,0,0,0-8.77,19.39H1481.72v2.07h140.9a55.18,55.18,0,0,0-1,10.85,68.91,68.91,0,0,0,.57,8.54H1481.72v2.08h140.9a51.43,51.43,0,0,0,7.62,19.39H1481.72v2.07h149.91c6.69,9.12,16.27,15.7,27.58,19.39H1481.72v2.08h187.64l-5.77-5.77,15.24-15.24,15.23,15.24-5.77,5.77h90.36v-33h20.08c12.23,0,21.93-4.38,28.16-12,3.92,26.66,26.43,46.39,54.47,46.39,7,0,21.69-1.27,28-4.27l1.16-40.5c-6.35,6.23-13.51,10-22.62,10-11.77.11-21.93-9.12-21.93-21.12" transform="translate(0 -181.67)"/><g class="cls-12"><polygon class="cls-13" points="1531.11 464.19 1545.42 478.5 1531.11 492.81 1516.8 478.5 1531.11 464.19"/></g><g class="cls-14"><polygon class="cls-15" points="1560.31 526.4 1574.62 540.71 1560.31 555.02 1546 540.71 1560.31 526.4"/></g><g class="cls-16"><polygon class="cls-17" points="1537.46 491.31 1551.77 505.74 1537.46 520.05 1523.15 505.74 1537.46 491.31"/></g><g class="cls-18"><polygon class="cls-19" points="1557.31 472.5 1571.62 486.81 1557.31 501.12 1543 486.81 1557.31 472.5"/></g><g class="cls-20"><polygon class="cls-21" points="1578.66 527.2 1605.2 553.75 1578.66 580.29 1552.11 553.75 1578.66 527.2"/></g><g class="cls-22"><polygon class="cls-23" points="1542.88 507.82 1562.27 527.2 1542.88 546.59 1523.49 527.2 1542.88 507.82"/></g><g class="cls-24"><polygon class="cls-25" points="1594.47 462.81 1615.01 483.24 1594.47 503.66 1574.04 483.24 1594.47 462.81"/></g><g class="cls-26"><polygon class="cls-27" points="1580.27 479.43 1600.7 499.85 1580.27 520.28 1559.85 499.85 1580.27 479.43"/></g><g class="cls-28"><polygon class="cls-29" points="1621.7 469.73 1642.13 490.27 1621.7 510.7 1601.28 490.27 1621.7 469.73"/></g><path d="M1509.07,693.18a2,2,0,0,1,2.07,2,2.06,2.06,0,0,1-2.07,2.08,2,2,0,0,1-2-2.08,1.87,1.87,0,0,1,2-2m0,7.62a2.06,2.06,0,0,1,2.07,2.07,2,2,0,0,1-2.07,2,2,2,0,0,1-2-2,1.9,1.9,0,0,1,2-2.07" transform="translate(0 -181.67)"/><path d="M1531,705.18a2,2,0,1,1,0,4,2,2,0,0,1-2-2.08,1.88,1.88,0,0,1,2-2m0,7.5a2.07,2.07,0,0,1,2.08,2.08,2,2,0,0,1-2.08,2,1.94,1.94,0,0,1-2-2,1.92,1.92,0,0,1,2-2.08" transform="translate(0 -181.67)"/><path d="M1568.38,675.76a2,2,0,1,1,0,4,2,2,0,0,1-2-2.07,2,2,0,0,1,2-2m0,7.61a2.07,2.07,0,0,1,2.08,2.08,2,2,0,0,1-2.08,2,1.94,1.94,0,0,1-2-2,2,2,0,0,1,2-2.08" transform="translate(0 -181.67)"/><path d="M1611.08,665.83a2,2,0,0,1,2.08,2,2.07,2.07,0,0,1-2.08,2.08,2,2,0,0,1-2-2.08,1.94,1.94,0,0,1,2-2m0,7.5a2.07,2.07,0,0,1,2.08,2.08,2,2,0,0,1-2.08,2,1.94,1.94,0,0,1-2-2,2,2,0,0,1,2-2.08" transform="translate(0 -181.67)"/><path d="M1586.73,681.06a2,2,0,1,1,0,4,2,2,0,0,1,0-4m0,7.5a2.07,2.07,0,0,1,2.08,2.08,2,2,0,0,1-2.08,2,1.94,1.94,0,0,1-2-2,2,2,0,0,1,2-2.08" transform="translate(0 -181.67)"/><path d="M1547.15,694.91a2,2,0,1,1,0,4,2,2,0,0,1-2-2.08,2,2,0,0,1,2-2m0,7.5a2.08,2.08,0,0,1,2.08,2.08,2,2,0,0,1-2.08,2,1.94,1.94,0,0,1-2-2,2,2,0,0,1,2-2.08" transform="translate(0 -181.67)"/><g class="cls-30"><polygon class="cls-31" points="1562.73 493.16 1589.27 519.7 1562.73 546.25 1536.19 519.7 1562.73 493.16"/></g><g class="cls-32"><polygon class="cls-33" points="1586.62 500.89 1613.16 527.55 1586.62 554.09 1560.08 527.55 1586.62 500.89"/></g><g class="cls-34"><polygon class="cls-35" points="1602.43 479.43 1629.09 506.08 1602.43 532.63 1575.89 506.08 1602.43 479.43"/></g><path d="M1635.66,706.8a2,2,0,0,1,2.08,2,2.07,2.07,0,0,1-2.08,2.08,2,2,0,0,1-2-2.08,1.88,1.88,0,0,1,2-2m0,7.5a2.07,2.07,0,0,1,2.08,2.08,2,2,0,0,1-2.08,2,1.94,1.94,0,0,1-2-2,2,2,0,0,1,2-2.08" transform="translate(0 -181.67)"/><path d="M1653.55,739.46a2,2,0,0,1,2.08,2,2.07,2.07,0,0,1-2.08,2.08,2,2,0,0,1-2-2.08,1.88,1.88,0,0,1,2-2m0,7.5a2.07,2.07,0,0,1,2.08,2.08,2,2,0,0,1-2.08,2,2,2,0,0,1-2-2,2,2,0,0,1,2-2.08" transform="translate(0 -181.67)"/><path d="M1694.06,728.49a2,2,0,1,1,0,4,2,2,0,0,1-2-2.07,1.87,1.87,0,0,1,2-2m0,7.51a2.07,2.07,0,0,1,2.08,2.07,2,2,0,0,1-2.08,2,2,2,0,0,1,0-4" transform="translate(0 -181.67)"/><path d="M1546.92,664.33a2.05,2.05,0,0,1,2.08,2,2.07,2.07,0,0,1-2.08,2.08,2,2,0,0,1-2-2.08,1.94,1.94,0,0,1,2-2m0,7.62A2.07,2.07,0,0,1,1549,674a2,2,0,0,1-2.08,2,2,2,0,0,1,0-4" transform="translate(0 -181.67)"/><path d="M1582.23,726.3a2,2,0,0,1,2.08,2,2.07,2.07,0,0,1-2.08,2.08,2,2,0,0,1-2-2.08,2,2,0,0,1,2-2m0,7.62a2.07,2.07,0,0,1,2.08,2.08,2,2,0,0,1-2.08,2,2,2,0,0,1-2-2,2,2,0,0,1,2-2.08" transform="translate(0 -181.67)"/><g class="cls-36"><polygon class="cls-37" points="1598.85 524.2 1625.39 550.75 1598.85 577.29 1572.31 550.75 1598.85 524.2"/></g><path d="M1571.85,667a1,1,0,0,1,2.07,0,1,1,0,0,1-2.07,0m0-6.46a1,1,0,1,1,2.07,0,.93.93,0,0,1-1,.93.88.88,0,0,1-1-.93" transform="translate(0 -181.67)"/><path d="M1583.62,658.44a2,2,0,1,1,0,4,2,2,0,0,1,0-4m0,7.51a2.07,2.07,0,0,1,2.08,2.07,2,2,0,0,1-2.08,2,1.94,1.94,0,0,1-2-2,2,2,0,0,1,2-2.07" transform="translate(0 -181.67)"/><path d="M1551.07,725.26a1.15,1.15,0,0,1,1-1.15,1.16,1.16,0,0,1,1.16,1.15,1.13,1.13,0,0,1-1.16,1c-.46.12-1-.23-1-1m0-7a1.15,1.15,0,0,1,1-1.15,1.16,1.16,0,0,1,1.16,1.15,1.13,1.13,0,0,1-1.16,1,1,1,0,0,1-1-1" transform="translate(0 -181.67)"/><path d="M1563.42,732.3a2,2,0,1,1,0,4,2,2,0,0,1-2-2.08,1.88,1.88,0,0,1,2-2m0,7.5a2.07,2.07,0,0,1,2.08,2.08,2,2,0,0,1-2.08,2,1.94,1.94,0,0,1-2-2,2,2,0,0,1,2-2.08" transform="translate(0 -181.67)"/><path d="M1522.45,660.41a1.1,1.1,0,1,1,1,1,1,1,0,0,1-1-1m0-7a1.1,1.1,0,1,1,1,1,1.11,1.11,0,0,1-1-1" transform="translate(0 -181.67)"/><path d="M1503.3,646.33a.92.92,0,1,1,1.84,0,.93.93,0,0,1-1.84,0m0-5.66a.92.92,0,0,1,1.84,0,.93.93,0,0,1-1.84,0" transform="translate(0 -181.67)"/><path d="M1531.34,682.22a1,1,0,1,1,2.08,0,.93.93,0,0,1-1,.92.87.87,0,0,1-1-.92m0-6.35a1,1,0,0,1,2.08,0,.93.93,0,0,1-1,.92,1,1,0,0,1-1-.92" transform="translate(0 -181.67)"/><path d="M1510.8,682a1,1,0,0,1,2.08,0,1,1,0,0,1-2.08,0m0-6.35a1,1,0,0,1,2.08,0,.93.93,0,0,1-1,.92,1,1,0,0,1-1-.92" transform="translate(0 -181.67)"/><path d="M1494.87,660.52a1,1,0,0,1,.93-1,1,1,0,0,1,1,1,.93.93,0,0,1-1,.93c-.35.11-.93-.24-.93-.93m0-6.35a1,1,0,0,1,.93-1,1,1,0,0,1,1,1,.93.93,0,0,1-1,.93,1,1,0,0,1-.93-.93" transform="translate(0 -181.67)"/><path d="M1701,695a2,2,0,0,1,2.08,2,2.07,2.07,0,0,1-2.08,2.08,2,2,0,0,1-2-2.08,1.94,1.94,0,0,1,2-2m0,7.61a2.07,2.07,0,0,1,2.08,2.08,2,2,0,0,1-2.08,2,1.94,1.94,0,0,1-2-2,2,2,0,0,1,2-2.08" transform="translate(0 -181.67)"/><g class="cls-38"><polygon class="cls-39" points="1613.74 507.7 1640.28 534.24 1613.74 560.79 1587.19 534.24 1613.74 507.7"/></g><g class="cls-40"><polygon class="cls-41" points="1617.2 499.28 1637.63 519.7 1617.2 540.13 1596.77 519.7 1617.2 499.28"/></g><g class="cls-42"><polygon class="cls-43" points="1623.32 531.47 1649.86 558.13 1623.32 584.67 1596.77 558.13 1623.32 531.47"/></g><path d="M2059.19,655.91v64.74c0,32-20.08,46.39-50.66,46.39s-50.66-14.54-50.66-46.39V655.91h39.81v60.93c0,8.54.35,16.16,10.85,16.16s10.85-7.51,10.85-16.16V655.91Z" transform="translate(0 -181.67)"/><path d="M2121.51,725.72s-6.58-28.73-7.27-33.35h-1.5l-7.27,33.35Zm-26.31,39.59h-42.12l38-109.4h44l39,109.4H2131.9l-3.58-13.62h-30Z" transform="translate(0 -181.67)"/><path d="M2146,660.52h.69a1.56,1.56,0,0,0,.81-.11.65.65,0,0,0,.46-.7,1,1,0,0,0-.23-.69,2.39,2.39,0,0,0-1-.23H2146Zm3.34,3h-1.15v-.11h0v-.81c0-.58-.11-.92-.46-1a2.06,2.06,0,0,0-.92-.11h-.58v2.07h-1.16V658h2a4.7,4.7,0,0,1,1.5.23,1.46,1.46,0,0,1,.92,1.5,1.27,1.27,0,0,1-.58,1.16.42.42,0,0,1-.34.11.92.92,0,0,1,.46.47,1.5,1.5,0,0,1,.34.92v1.15Zm-2.42-6.81a4,4,0,1,0,2.89,6.93,4.19,4.19,0,0,0,0-5.77,4.59,4.59,0,0,0-2.89-1.16m0,9a4.39,4.39,0,0,1-3.46-1.51,5.06,5.06,0,0,1-1.5-3.57,4.37,4.37,0,0,1,1.5-3.46,5,5,0,0,1,3.46-1.51,4.38,4.38,0,0,1,3.46,1.51,5,5,0,0,1,1.5,3.46,4.77,4.77,0,0,1-1.5,3.57,4.38,4.38,0,0,1-3.46,1.51" transform="translate(0 -181.67)"/></svg>