<?xml version="1.0" encoding="utf-8"?>
<!-- Generator: Adobe Illustrator 25.0.0, SVG Export Plug-In . SVG Version: 6.00 Build 0)  -->
<svg version="1.1" id="레이어_1" xmlns="http://www.w3.org/2000/svg" xmlns:xlink="http://www.w3.org/1999/xlink" x="0px"
	 y="0px" viewBox="0 0 3521.7 1062.4" style="enable-background:new 0 0 3521.7 1062.4;" xml:space="preserve">
<style type="text/css">
	.st0{fill:url(#SVGID_1_);}
	.st1{fill:url(#SVGID_2_);}
	.st2{fill:url(#SVGID_3_);}
	.st3{fill:url(#SVGID_4_);}
	.st4{fill:#474747;}
	.st5{fill:#FFFFFF;}
	.st6{fill:url(#SVGID_5_);}
	.st7{opacity:0.3;}
	.st8{fill:#FAFAFA;}
	.st9{fill:#F5F5F5;}
	.st10{fill:#F0F0F0;}
	.st11{fill:#EBEBEB;}
	.st12{fill:#E7E7E7;}
	.st13{fill:#E2E2E2;}
	.st14{fill:#DDDDDD;}
	.st15{fill:#D8D8D8;}
	.st16{fill:#D3D3D3;}
	.st17{fill:#CECECE;}
	.st18{fill:#C9C9C9;}
	.st19{fill:#C4C4C4;}
	.st20{fill:#BFBFBF;}
	.st21{fill:#BABABA;}
	.st22{fill:#B6B6B6;}
	.st23{fill:#B1B1B1;}
	.st24{fill:#ACACAC;}
	.st25{fill:#A7A7A7;}
	.st26{fill:#A2A2A2;}
	.st27{fill:#9D9D9D;}
	.st28{fill:#989898;}
	.st29{fill:#939393;}
	.st30{fill:#8E8E8E;}
	.st31{fill:#8A8A8A;}
	.st32{fill:#858585;}
	.st33{fill:#808080;}
	.st34{fill:#7B7B7B;}
	.st35{fill:#767676;}
	.st36{fill:#717171;}
	.st37{fill:#6C6C6C;}
	.st38{fill:#676767;}
	.st39{fill:#626262;}
	.st40{fill:#5E5E5E;}
	.st41{fill:#595959;}
	.st42{fill:#545454;}
	.st43{fill:#4F4F4F;}
	.st44{fill:#4A4A4A;}
	.st45{fill:#454545;}
	.st46{fill:#404040;}
	.st47{fill:#3B3B3B;}
	.st48{fill:#363636;}
	.st49{fill:#313131;}
	.st50{fill:#2D2D2D;}
	.st51{fill:#282828;}
	.st52{fill:#232323;}
	.st53{fill:#1E1E1E;}
	.st54{fill:#191919;}
	.st55{fill:url(#SVGID_6_);}
	.st56{fill:url(#SVGID_7_);}
	.st57{fill:url(#SVGID_8_);}
	.st58{fill:url(#SVGID_9_);}
	.st59{fill:url(#SVGID_10_);}
	.st60{fill:url(#SVGID_11_);}
	.st61{fill:url(#SVGID_12_);}
	.st62{fill:url(#SVGID_13_);}
	.st63{fill:url(#SVGID_14_);}
	.st64{fill:url(#SVGID_15_);}
	.st65{fill:url(#SVGID_16_);}
	.st66{fill:url(#SVGID_17_);}
	.st67{enable-background:new    ;}
</style>
<g>
	<g id="Layer_1">
		
			<linearGradient id="SVGID_1_" gradientUnits="userSpaceOnUse" x1="238.0888" y1="12.3386" x2="1037.8407" y2="-394.0328" gradientTransform="matrix(1 0 0 -1 -134.55 292.85)">
			<stop  offset="0" style="stop-color:#00B75F"/>
			<stop  offset="1" style="stop-color:#00B75F"/>
		</linearGradient>
		<path class="st0" d="M983.6,824.2V633.7C777.2,612.9,600.6,491,504,318.3H294.1C406.7,597.7,670.2,800,983.6,824.2z"/>
		
			<linearGradient id="SVGID_2_" gradientUnits="userSpaceOnUse" x1="1416.848" y1="-391.9672" x2="1849.153" y2="-20.1898" gradientTransform="matrix(1 0 0 -1 -134.55 292.85)">
			<stop  offset="0" style="stop-color:#0AA16E"/>
			<stop  offset="0.24" style="stop-color:#0D9E73"/>
			<stop  offset="0.52" style="stop-color:#169781"/>
			<stop  offset="0.82" style="stop-color:#248A97"/>
			<stop  offset="1" style="stop-color:#2F80A9"/>
		</linearGradient>
		<path class="st1" d="M1111.7,824c345.7-27.3,630.5-271.5,718.3-596.5h-198.8c-79.6,219.3-279.2,381.1-519.4,406L1111.7,824z"/>
		
			<linearGradient id="SVGID_3_" gradientUnits="userSpaceOnUse" x1="2085.3184" y1="-144.62" x2="2426.8318" y2="-373.7489" gradientTransform="matrix(1 0 0 -1 -134.55 292.85)">
			<stop  offset="0" style="stop-color:#2F80A9"/>
			<stop  offset="0.27" style="stop-color:#2F7BA9"/>
			<stop  offset="0.57" style="stop-color:#2F6EA9"/>
			<stop  offset="0.9" style="stop-color:#2F57A9"/>
			<stop  offset="1" style="stop-color:#2F4EA9"/>
		</linearGradient>
		<path class="st2" d="M2413.4,822V630.9c-230.5-32.1-420.5-190.7-497.7-403.4h-198.8C1802.9,545.7,2077.6,786.4,2413.4,822z"/>
		
			<linearGradient id="SVGID_4_" gradientUnits="userSpaceOnUse" x1="2641.6382" y1="-279.241" x2="3414.7673" y2="-279.241" gradientTransform="matrix(1 0 0 -1 -134.55 292.85)">
			<stop  offset="0" style="stop-color:#2F4EA9"/>
			<stop  offset="1" style="stop-color:#2F4EA9"/>
		</linearGradient>
		<path class="st3" d="M2535,825.8c325.8-13.8,601.8-219.8,717.7-507.5h-209.9c-101,180.5-289.3,305.5-507.8,317.6L2535,825.8z"/>
		<rect x="3202.5" y="504.2" class="st4" width="4.8" height="405.4"/>
		
			<ellipse transform="matrix(0.9239 -0.3827 0.3827 0.9239 -104.1045 1295.7902)" class="st5" cx="3205.1" cy="909.6" rx="11.8" ry="11.8"/>
		<path class="st4" d="M3205.1,895.4c7.8,0,14.1,6.3,14.1,14.1c0,7.8-6.3,14.1-14.1,14.1s-14.1-6.3-14.1-14.1
			C3191,901.8,3197.3,895.4,3205.1,895.4z M3205.1,918.9c5.2,0,9.4-4.2,9.4-9.4c0-5.2-4.2-9.4-9.4-9.4c-5.2,0-9.4,4.2-9.4,9.4
			c0,0,0,0,0,0C3195.8,914.7,3200,918.9,3205.1,918.9z"/>
		<rect x="2477.4" y="63.6" class="st4" width="4.8" height="405.4"/>
		<circle class="st5" cx="2479.6" cy="63.6" r="11.8"/>
		<path class="st4" d="M2479.6,49.4c7.8,0,14.1,6.3,14.1,14.2c0,7.8-6.3,14.1-14.2,14.1c-7.8,0-14.1-6.3-14.1-14.1
			C2465.4,55.8,2471.8,49.4,2479.6,49.4z M2479.6,72.9c5.2,0,9.4-4.2,9.4-9.4s-4.2-9.4-9.4-9.4c-5.2,0-9.4,4.2-9.4,9.4c0,0,0,0,0,0
			C2470.2,68.7,2474.4,72.9,2479.6,72.9z"/>
		<rect x="1048.1" y="63.6" class="st4" width="4.8" height="405.4"/>
		<circle class="st5" cx="1050.2" cy="63.6" r="11.8"/>
		<path class="st4" d="M1050.2,49.4c7.8,0,14.1,6.3,14.1,14.1s-6.3,14.1-14.1,14.1c-7.8,0-14.1-6.3-14.1-14.1v0
			C1036.1,55.8,1042.4,49.4,1050.2,49.4z M1050.2,72.9c5.2,0,9.4-4.2,9.4-9.4c0-5.2-4.2-9.4-9.4-9.4c-5.2,0-9.4,4.2-9.4,9.4
			c0,0,0,0,0,0C1040.9,68.7,1045.1,72.9,1050.2,72.9z"/>
		<rect x="350.3" y="504.2" class="st4" width="4.8" height="405.4"/>
		<circle class="st5" cx="352.9" cy="909.5" r="11.8"/>
		<path class="st4" d="M353,895.4c7.8,0,14.1,6.3,14.1,14.1c0,7.8-6.3,14.1-14.1,14.1c-7.8,0-14.1-6.3-14.1-14.1l0,0
			C338.8,901.8,345.1,895.4,353,895.4z M353,918.9c5.2,0,9.4-4.2,9.4-9.4c0-5.2-4.2-9.4-9.4-9.4c-5.2,0-9.4,4.2-9.4,9.4c0,0,0,0,0,0
			C343.6,914.7,347.8,918.9,353,918.9z"/>
		<path class="st5" d="M2781.3,672.3c-1.8-4.1,0-8.8,4.1-10.6c4.1-1.8,8.8,0,10.6,4.1c1.8,4.1,0,8.8-4.1,10.6
			C2787.9,678.1,2783.1,676.3,2781.3,672.3z"/>
		<path class="st5" d="M2815.5,656.4c-2-4-0.4-8.8,3.5-10.8c4-2,8.8-0.4,10.8,3.5c2,4,0.4,8.8-3.5,10.8
			C2822.4,662,2817.6,660.4,2815.5,656.4C2815.5,656.4,2815.5,656.4,2815.5,656.4z"/>
		<path class="st5" d="M2848.8,638.9c-2.2-3.8-0.9-8.8,2.9-11c3.8-2.2,8.8-0.9,11,2.9c2.2,3.8,0.9,8.8-2.9,11c0,0,0,0,0,0
			C2856,644,2851,642.7,2848.8,638.9C2848.8,638.9,2848.8,638.9,2848.8,638.9z"/>
		<circle class="st5" cx="2887.8" cy="615.1" r="8"/>
		<path class="st5" d="M2912.4,598.5c-2.6-3.6-1.8-8.6,1.8-11.2c3.6-2.6,8.6-1.8,11.2,1.8c2.6,3.6,1.8,8.6-1.8,11.2
			C2920.1,602.9,2915,602.1,2912.4,598.5C2912.4,598.5,2912.4,598.5,2912.4,598.5z"/>
		<circle class="st5" cx="2948.8" cy="570.9" r="8"/>
		<path class="st5" d="M2971.5,551.8c-3-3.3-2.7-8.4,0.6-11.4c3.3-3,8.4-2.7,11.4,0.6s2.7,8.4-0.6,11.4c0,0,0,0,0,0
			C2979.5,555.3,2974.4,555.1,2971.5,551.8z"/>
		<path class="st5" d="M2999,526.2c-3.1-3.1-3.1-8.2,0-11.4c3.1-3.1,8.2-3.1,11.4,0c3.1,3.1,3.1,8.2,0,11.4
			C3007.3,529.3,3002.2,529.3,2999,526.2z"/>
		<path class="st5" d="M1981.7,514.8c3.1-3.1,8.2-3.1,11.4,0c3.1,3.1,3.1,8.2,0,11.4c-3.1,3.1-8.2,3.1-11.4,0
			C1978.6,523,1978.6,517.9,1981.7,514.8C1981.7,514.8,1981.7,514.8,1981.7,514.8z"/>
		<path class="st5" d="M2008.8,541c3-3.3,8.1-3.6,11.4-0.6c3.3,3,3.6,8.1,0.6,11.4c-3,3.3-8,3.6-11.3,0.6
			C2006.1,549.4,2005.8,544.3,2008.8,541z"/>
		<circle class="st5" cx="2043.4" cy="570.7" r="8"/>
		<path class="st5" d="M2066.7,589.1c2.6-3.6,7.6-4.4,11.2-1.8s4.4,7.6,1.8,11.2c-2.6,3.6-7.6,4.4-11.2,1.8
			C2064.9,597.7,2064.1,592.7,2066.7,589.1C2066.7,589.1,2066.7,589.1,2066.7,589.1z"/>
		<path class="st5" d="M2097.5,610.7c2.4-3.7,7.4-4.8,11.1-2.4c3.7,2.4,4.8,7.4,2.4,11.1c-2.4,3.7-7.4,4.8-11.1,2.4
			C2096.2,619.5,2095.1,614.5,2097.5,610.7z"/>
		<path class="st5" d="M2129.4,630.8c2.2-3.8,7.1-5.1,11-2.9c3.8,2.2,5.1,7.1,2.9,11c-2.2,3.8-7.1,5.1-11,2.9c0,0,0,0,0,0
			C2128.5,639.5,2127.2,634.6,2129.4,630.8C2129.4,630.8,2129.4,630.8,2129.4,630.8z"/>
		<path class="st5" d="M2162.3,649.1c2-4,6.9-5.5,10.8-3.5c4,2,5.5,6.9,3.5,10.8c-2,4-6.9,5.5-10.8,3.5
			C2161.9,657.9,2160.3,653.1,2162.3,649.1C2162.3,649.1,2162.3,649.1,2162.3,649.1z"/>
		<circle class="st5" cx="1355.4" cy="668.9" r="8"/>
		<path class="st5" d="M1382.4,656.4c-2-4-0.4-8.8,3.5-10.8c4-2,8.8-0.4,10.8,3.5c2,4,0.4,8.8-3.5,10.8c0,0,0,0,0,0
			C1389.2,662,1384.4,660.4,1382.4,656.4z"/>
		<path class="st5" d="M1415.7,638.9c-2.2-3.8-0.9-8.8,2.9-11s8.8-0.9,11,2.9c2.2,3.8,0.9,8.8-2.9,11c0,0,0,0,0,0
			C1422.8,644,1417.9,642.7,1415.7,638.9C1415.7,638.9,1415.7,638.9,1415.7,638.9z"/>
		<circle class="st5" cx="1454.7" cy="615.1" r="8"/>
		<path class="st5" d="M1479.3,598.5c-2.6-3.6-1.8-8.6,1.8-11.2c3.6-2.6,8.6-1.8,11.2,1.8c2.6,3.6,1.8,8.6-1.8,11.2c0,0,0,0,0,0
			C1486.9,602.9,1481.9,602.1,1479.3,598.5z"/>
		<path class="st5" d="M1509.4,575.9c-2.8-3.5-2.3-8.5,1.2-11.3c3.5-2.8,8.5-2.3,11.3,1.2c2.8,3.4,2.3,8.5-1.2,11.3
			C1517.3,579.9,1512.2,579.4,1509.4,575.9C1509.4,575.9,1509.4,575.9,1509.4,575.9z"/>
		<path class="st5" d="M1538.3,551.8c-3-3.3-2.7-8.4,0.6-11.4c3.3-3,8.4-2.7,11.4,0.6c3,3.3,2.7,8.4-0.6,11.3
			C1546.4,555.4,1541.3,555.1,1538.3,551.8z"/>
		<path class="st5" d="M1565.9,526.2c-3.1-3.1-3.1-8.2,0-11.4c3.1-3.1,8.2-3.1,11.4,0c3.1,3.1,3.1,8.2,0,11.4
			C1574.2,529.3,1569.1,529.3,1565.9,526.2C1566,526.2,1566,526.2,1565.9,526.2z"/>
		<path class="st5" d="M548.6,514.8c3.1-3.1,8.2-3.1,11.4,0c3.1,3.1,3.1,8.2,0,11.4c-3.1,3.1-8.2,3.1-11.4,0
			C545.4,523,545.4,518,548.6,514.8C548.6,514.8,548.6,514.8,548.6,514.8z"/>
		<path class="st5" d="M575.6,541c3-3.3,8.1-3.6,11.4-0.6c3.3,3,3.6,8.1,0.6,11.4c-3,3.3-8.1,3.6-11.3,0.6
			C572.9,549.4,572.6,544.3,575.6,541C575.6,541,575.6,541,575.6,541z"/>
		<circle class="st5" cx="610.2" cy="571" r="8"/>
		<path class="st5" d="M633.6,589.1c2.6-3.6,7.6-4.4,11.2-1.8c3.6,2.6,4.4,7.6,1.8,11.2c-2.6,3.6-7.6,4.4-11.2,1.8
			C631.8,597.7,631,592.7,633.6,589.1C633.6,589.1,633.6,589.1,633.6,589.1z"/>
		<circle class="st5" cx="671.1" cy="615.2" r="8"/>
		<circle class="st5" cx="703.3" cy="634.8" r="8"/>
		<path class="st5" d="M729.2,649.1c2-4,6.9-5.5,10.8-3.5s5.5,6.9,3.5,10.8c-2,4-6.9,5.5-10.8,3.5
			C728.7,657.9,727.2,653.1,729.2,649.1C729.2,649.2,729.2,649.1,729.2,649.1z"/>
		
			<radialGradient id="SVGID_5_" cx="486.5023" cy="30.9848" r="246.4308" gradientTransform="matrix(1 0 0 -1 -134.55 292.86)" gradientUnits="userSpaceOnUse">
			<stop  offset="0.29" style="stop-color:#DADADA"/>
			<stop  offset="0.52" style="stop-color:#E0E0E0"/>
			<stop  offset="0.8" style="stop-color:#EFEFEF"/>
			<stop  offset="1" style="stop-color:#FFFFFF"/>
		</radialGradient>
		<circle class="st6" cx="352" cy="261.9" r="246.4"/>
		<g class="st7">
			
				<ellipse transform="matrix(0.7071 -0.7071 0.7071 0.7071 -143.5456 307.6767)" class="st5" cx="299.6" cy="327.1" rx="297.6" ry="240.8"/>
			
				<ellipse transform="matrix(0.711 -0.7031 0.7031 0.711 -142.1565 305.5984)" class="st8" cx="300.7" cy="325.8" rx="294.3" ry="238.7"/>
			
				<ellipse transform="matrix(0.7151 -0.699 0.699 0.7151 -140.823 303.4561)" class="st9" cx="301.9" cy="324.5" rx="291" ry="236.6"/>
			
				<ellipse transform="matrix(0.7192 -0.6948 0.6948 0.7192 -139.5328 301.2467)" class="st10" cx="302.9" cy="323.3" rx="287.8" ry="234.6"/>
			
				<ellipse transform="matrix(0.7233 -0.6905 0.6905 0.7233 -138.1575 299.0222)" class="st11" cx="304.1" cy="321.9" rx="284.6" ry="232.6"/>
			
				<ellipse transform="matrix(0.7275 -0.6861 0.6861 0.7275 -136.8186 296.7254)" class="st12" cx="305.2" cy="320.6" rx="281.4" ry="230.6"/>
			
				<ellipse transform="matrix(0.7317 -0.6816 0.6816 0.7317 -135.3935 294.4201)" class="st13" cx="306.3" cy="319.2" rx="278.3" ry="228.7"/>
			
				<ellipse transform="matrix(0.7361 -0.6769 0.6769 0.7361 -134.1362 291.9893)" class="st14" cx="307.4" cy="318" rx="275.2" ry="226.8"/>
			
				<ellipse transform="matrix(0.7405 -0.6721 0.6721 0.7405 -132.7858 289.5447)" class="st15" cx="308.5" cy="316.7" rx="272.1" ry="224.9"/>
			
				<ellipse transform="matrix(0.7448 -0.6673 0.6673 0.7448 -131.3345 287.0875)" class="st16" cx="309.6" cy="315.2" rx="269.1" ry="223.1"/>
			
				<ellipse transform="matrix(0.7493 -0.6622 0.6622 0.7493 -130.0529 284.5027)" class="st17" cx="310.7" cy="314" rx="266.1" ry="221.4"/>
			
				<ellipse transform="matrix(0.7538 -0.6571 0.6571 0.7538 -128.6743 281.9117)" class="st18" cx="311.9" cy="312.7" rx="263.2" ry="219.7"/>
			
				<ellipse transform="matrix(0.7584 -0.6518 0.6518 0.7584 -127.3279 279.2404)" class="st19" cx="313" cy="311.4" rx="260.3" ry="218"/>
			
				<ellipse transform="matrix(0.763 -0.6464 0.6464 0.763 -126.0042 276.5017)" class="st20" cx="314.1" cy="310.1" rx="257.5" ry="216.4"/>
			
				<ellipse transform="matrix(0.7676 -0.6409 0.6409 0.7676 -124.5801 273.7567)" class="st21" cx="315.2" cy="308.7" rx="254.7" ry="214.8"/>
			
				<ellipse transform="matrix(0.7724 -0.6351 0.6351 0.7724 -123.3103 270.8701)" class="st22" cx="316.3" cy="307.5" rx="252" ry="213.3"/>
			
				<ellipse transform="matrix(0.7771 -0.6293 0.6293 0.7771 -121.9457 267.9767)" class="st23" cx="317.4" cy="306.2" rx="249.3" ry="211.8"/>
			
				<ellipse transform="matrix(0.782 -0.6233 0.6233 0.782 -120.5918 265.012)" class="st24" cx="318.5" cy="304.9" rx="246.6" ry="210.4"/>
			
				<ellipse transform="matrix(0.7867 -0.6173 0.6173 0.7867 -119.1498 262.0486)" class="st25" cx="319.7" cy="303.5" rx="244.1" ry="209"/>
			
				<ellipse transform="matrix(0.7917 -0.611 0.611 0.7917 -117.8429 258.9344)" class="st26" cx="320.7" cy="302.3" rx="241.6" ry="207.7"/>
			
				<ellipse transform="matrix(0.7965 -0.6046 0.6046 0.7965 -116.4467 255.8185)" class="st27" cx="321.9" cy="300.9" rx="239.1" ry="206.4"/>
			
				<ellipse transform="matrix(0.8015 -0.598 0.598 0.8015 -115.0611 252.6315)" class="st28" cx="323" cy="299.6" rx="236.7" ry="205.3"/>
			
				<ellipse transform="matrix(0.8064 -0.5913 0.5913 0.8064 -113.7054 249.3674)" class="st29" cx="324.1" cy="298.4" rx="234.4" ry="204.1"/>
			
				<ellipse transform="matrix(0.8114 -0.5845 0.5845 0.8114 -112.247 246.1049)" class="st30" cx="325.2" cy="297" rx="232.1" ry="203"/>
			
				<ellipse transform="matrix(0.8163 -0.5776 0.5776 0.8163 -110.8172 242.7626)" class="st31" cx="326.3" cy="295.6" rx="229.9" ry="202"/>
			
				<ellipse transform="matrix(0.8211 -0.5708 0.5708 0.8211 -109.1172 238.6573)" class="st32" cx="326.2" cy="293.4" rx="227.4" ry="200.8"/>
			
				<ellipse transform="matrix(0.8264 -0.5631 0.5631 0.8264 -108.0128 235.8598)" class="st33" cx="328.5" cy="293.1" rx="225.6" ry="200.2"/>
			
				<ellipse transform="matrix(0.8314 -0.5557 0.5557 0.8314 -106.5321 232.3769)" class="st34" cx="329.6" cy="291.7" rx="223.6" ry="199.4"/>
			
				<ellipse transform="matrix(0.8364 -0.5481 0.5481 0.8364 -105.0809 228.8144)" class="st35" cx="330.7" cy="290.4" rx="221.6" ry="198.7"/>
			
				<ellipse transform="matrix(0.8414 -0.5404 0.5404 0.8414 -103.6472 225.1766)" class="st36" cx="331.8" cy="289.2" rx="219.8" ry="198"/>
			
				<ellipse transform="matrix(0.8464 -0.5326 0.5326 0.8464 -102.1404 221.5455)" class="st37" cx="333" cy="287.8" rx="218" ry="197.4"/>
			
				<ellipse transform="matrix(0.8514 -0.5246 0.5246 0.8514 -100.6601 217.8339)" class="st38" cx="334.1" cy="286.5" rx="216.2" ry="196.9"/>
			
				<ellipse transform="matrix(0.8563 -0.5165 0.5165 0.8563 -99.113 214.1294)" class="st39" cx="335.2" cy="285.2" rx="214.6" ry="196.4"/>
			
				<ellipse transform="matrix(0.8612 -0.5083 0.5083 0.8612 -97.5962 210.3444)" class="st40" cx="336.3" cy="283.9" rx="213" ry="196"/>
			
				<ellipse transform="matrix(0.8661 -0.4998 0.4998 0.8661 -96.1015 206.4797)" class="st41" cx="337.4" cy="282.6" rx="211.5" ry="195.7"/>
			
				<ellipse transform="matrix(0.871 -0.4914 0.4914 0.871 -94.5531 202.6234)" class="st42" cx="338.5" cy="281.3" rx="210" ry="195.5"/>
			
				<ellipse transform="matrix(0.8757 -0.4828 0.4828 0.8757 -92.9534 198.7744)" class="st43" cx="339.6" cy="279.9" rx="208.7" ry="195.4"/>
			
				<ellipse transform="matrix(0.8805 -0.4741 0.4741 0.8805 -91.3906 194.8438)" class="st44" cx="340.7" cy="278.7" rx="207.4" ry="195.3"/>
			
				<ellipse transform="matrix(0.8852 -0.4653 0.4653 0.8852 -89.7804 190.9203)" class="st45" cx="341.9" cy="277.3" rx="206.2" ry="195.3"/>
			
				<ellipse transform="matrix(0.8897 -0.4565 0.4565 0.8897 -88.1399 186.9998)" class="st46" cx="343" cy="275.9" rx="205.1" ry="195.4"/>
			
				<ellipse transform="matrix(0.8943 -0.4474 0.4474 0.8943 -86.5335 182.9941)" class="st47" cx="344.1" cy="274.7" rx="204" ry="195.6"/>
			
				<ellipse transform="matrix(0.8988 -0.4384 0.4384 0.8988 -84.8985 178.9914)" class="st48" cx="345.2" cy="273.4" rx="203.1" ry="195.8"/>
			
				<ellipse transform="matrix(0.9032 -0.4293 0.4293 0.9032 -83.2383 174.9997)" class="st49" cx="346.3" cy="272" rx="202.2" ry="196.2"/>
			
				<ellipse transform="matrix(0.9076 -0.4199 0.4199 0.9076 -81.6177 170.9111)" class="st50" cx="347.4" cy="270.8" rx="201.4" ry="196.6"/>
			
				<ellipse transform="matrix(0.9118 -0.4107 0.4107 0.9118 -79.9193 166.9238)" class="st51" cx="348.5" cy="269.5" rx="200.7" ry="197.1"/>
			
				<ellipse transform="matrix(0.9159 -0.4015 0.4015 0.9159 -78.2082 162.934)" class="st52" cx="349.7" cy="268.1" rx="200.1" ry="197.7"/>
			
				<ellipse transform="matrix(0.92 -0.392 0.392 0.92 -76.5364 158.8551)" class="st53" cx="350.7" cy="266.9" rx="199.5" ry="198.3"/>
			
				<ellipse transform="matrix(0.7071 -0.7071 0.7071 0.7071 -84.6868 326.573)" class="st54" cx="351.9" cy="265.5" rx="199.1" ry="199.1"/>
		</g>
		
			<radialGradient id="SVGID_6_" cx="515.0573" cy="77.1716" r="257.7712" gradientTransform="matrix(1 0 0 -1 -134.5477 292.8551)" gradientUnits="userSpaceOnUse">
			<stop  offset="0.63" style="stop-color:#FFFFFF"/>
			<stop  offset="0.7" style="stop-color:#F9F9F9"/>
			<stop  offset="0.8" style="stop-color:#E9E9E9"/>
			<stop  offset="0.91" style="stop-color:#CECECE"/>
			<stop  offset="1" style="stop-color:#B2B2B2"/>
		</radialGradient>
		<circle class="st55" cx="352.8" cy="262.6" r="212.2"/>
		
			<radialGradient id="SVGID_7_" cx="1907.5024" cy="53.3368" r="246.4308" gradientTransform="matrix(1 0 0 -1 0 1062)" gradientUnits="userSpaceOnUse">
			<stop  offset="0.29" style="stop-color:#DADADA"/>
			<stop  offset="0.52" style="stop-color:#E0E0E0"/>
			<stop  offset="0.8" style="stop-color:#EFEFEF"/>
			<stop  offset="1" style="stop-color:#FFFFFF"/>
		</radialGradient>
		<circle class="st56" cx="1776.9" cy="261.9" r="246.4"/>
		<g class="st7">
			
				<ellipse transform="matrix(0.7071 -0.7071 0.7071 0.7071 273.7974 1315.24)" class="st5" cx="1724.5" cy="327.1" rx="297.6" ry="240.8"/>
			
				<ellipse transform="matrix(0.711 -0.7031 0.7031 0.711 269.5921 1307.4868)" class="st8" cx="1725.6" cy="325.7" rx="294.3" ry="238.7"/>
			
				<ellipse transform="matrix(0.7151 -0.699 0.699 0.7151 265.1608 1299.5184)" class="st9" cx="1726.8" cy="324.5" rx="291" ry="236.6"/>
			
				<ellipse transform="matrix(0.7192 -0.6948 0.6948 0.7192 260.5181 1291.3317)" class="st10" cx="1727.9" cy="323.3" rx="287.8" ry="234.6"/>
			
				<ellipse transform="matrix(0.7233 -0.6905 0.6905 0.7233 256.056 1282.9618)" class="st11" cx="1729" cy="322" rx="284.6" ry="232.6"/>
			
				<ellipse transform="matrix(0.7275 -0.6861 0.6861 0.7275 251.3967 1274.3772)" class="st12" cx="1730.1" cy="320.7" rx="281.4" ry="230.6"/>
			
				<ellipse transform="matrix(0.7317 -0.6816 0.6816 0.7317 246.9193 1265.6167)" class="st13" cx="1731.2" cy="319.1" rx="278.3" ry="228.7"/>
			
				<ellipse transform="matrix(0.7361 -0.6769 0.6769 0.7361 241.8679 1256.5458)" class="st14" cx="1732.4" cy="318.1" rx="275.2" ry="226.8"/>
			
				<ellipse transform="matrix(0.7405 -0.6721 0.6721 0.7405 237.0118 1247.301)" class="st15" cx="1733.5" cy="316.8" rx="272.1" ry="224.9"/>
			
				<ellipse transform="matrix(0.7448 -0.6673 0.6673 0.7448 232.369 1237.8928)" class="st16" cx="1734.5" cy="315.2" rx="269.1" ry="223.1"/>
			
				<ellipse transform="matrix(0.7493 -0.6622 0.6622 0.7493 227.1535 1228.1327)" class="st17" cx="1735.7" cy="314" rx="266.1" ry="221.4"/>
			
				<ellipse transform="matrix(0.7538 -0.6571 0.6571 0.7538 222.1645 1218.212)" class="st18" cx="1736.7" cy="312.6" rx="263.2" ry="219.7"/>
			
				<ellipse transform="matrix(0.7584 -0.6518 0.6518 0.7584 217.0035 1208.022)" class="st19" cx="1737.9" cy="311.3" rx="260.3" ry="218"/>
			
				<ellipse transform="matrix(0.763 -0.6464 0.6464 0.763 211.6868 1197.562)" class="st20" cx="1739" cy="310.1" rx="257.5" ry="216.4"/>
			
				<ellipse transform="matrix(0.7676 -0.6409 0.6409 0.7676 206.5891 1186.9277)" class="st21" cx="1740" cy="308.6" rx="254.7" ry="214.8"/>
			
				<ellipse transform="matrix(0.7724 -0.6351 0.6351 0.7724 200.9771 1175.9172)" class="st22" cx="1741.2" cy="307.5" rx="252" ry="213.3"/>
			
				<ellipse transform="matrix(0.7779 -0.6283 0.6283 0.7779 195.2055 1167.0989)" class="st23" cx="1748.8" cy="307.4" rx="249.9" ry="212.3"/>
			
				<ellipse transform="matrix(0.782 -0.6233 0.6233 0.782 190.0782 1153.2521)" class="st24" cx="1743.5" cy="304.9" rx="246.6" ry="210.4"/>
			
				<ellipse transform="matrix(0.7867 -0.6173 0.6173 0.7867 184.7821 1141.6157)" class="st25" cx="1744.5" cy="303.4" rx="244.1" ry="209"/>
			
				<ellipse transform="matrix(0.7917 -0.611 0.611 0.7917 179.012 1129.5544)" class="st26" cx="1745.7" cy="302.3" rx="241.6" ry="207.7"/>
			
				<ellipse transform="matrix(0.7965 -0.6046 0.6046 0.7965 173.4694 1117.3301)" class="st27" cx="1746.8" cy="300.9" rx="239.1" ry="206.4"/>
			
				<ellipse transform="matrix(0.8015 -0.598 0.598 0.8015 167.8171 1104.8126)" class="st28" cx="1747.9" cy="299.7" rx="236.7" ry="205.3"/>
			
				<ellipse transform="matrix(0.8064 -0.5913 0.5913 0.8064 162.0522 1091.9901)" class="st29" cx="1749" cy="298.5" rx="234.4" ry="204.1"/>
			
				<ellipse transform="matrix(0.8114 -0.5845 0.5845 0.8114 156.5278 1079.0151)" class="st30" cx="1750.1" cy="297" rx="232.1" ry="203"/>
			
				<ellipse transform="matrix(0.8163 -0.5776 0.5776 0.8163 150.8938 1065.7391)" class="st31" cx="1751.2" cy="295.6" rx="229.9" ry="202"/>
			
				<ellipse transform="matrix(0.8213 -0.5704 0.5704 0.8213 145.1585 1052.1558)" class="st32" cx="1752.3" cy="294.3" rx="227.7" ry="201.1"/>
			
				<ellipse transform="matrix(0.8264 -0.5631 0.5631 0.8264 139.3298 1038.2621)" class="st33" cx="1753.5" cy="293.2" rx="225.6" ry="200.2"/>
			
				<ellipse transform="matrix(0.8314 -0.5557 0.5557 0.8314 133.7354 1024.2292)" class="st34" cx="1754.6" cy="291.8" rx="223.6" ry="199.4"/>
			
				<ellipse transform="matrix(0.8364 -0.5481 0.5481 0.8364 128.0526 1009.8882)" class="st35" cx="1755.7" cy="290.4" rx="221.6" ry="198.7"/>
			
				<ellipse transform="matrix(0.8414 -0.5404 0.5404 0.8414 122.2783 995.2296)" class="st36" cx="1756.8" cy="289.3" rx="219.8" ry="198"/>
			
				<ellipse transform="matrix(0.8464 -0.5326 0.5326 0.8464 116.7354 980.4429)" class="st37" cx="1757.9" cy="287.9" rx="218" ry="197.4"/>
			
				<ellipse transform="matrix(0.8514 -0.5246 0.5246 0.8514 111.1059 965.3514)" class="st38" cx="1759" cy="286.6" rx="216.2" ry="196.9"/>
			
				<ellipse transform="matrix(0.8563 -0.5165 0.5165 0.8563 105.6994 950.1371)" class="st39" cx="1760.1" cy="285.1" rx="214.6" ry="196.4"/>
			
				<ellipse transform="matrix(0.8612 -0.5083 0.5083 0.8612 100.2114 934.6075)" class="st40" cx="1761.2" cy="283.8" rx="213" ry="196"/>
			
				<ellipse transform="matrix(0.8661 -0.4998 0.4998 0.8661 94.6345 918.7625)" class="st41" cx="1762.3" cy="282.7" rx="211.5" ry="195.7"/>
			
				<ellipse transform="matrix(0.871 -0.4914 0.4914 0.871 89.2806 902.8132)" class="st42" cx="1763.5" cy="281.4" rx="210" ry="195.5"/>
			
				<ellipse transform="matrix(0.8757 -0.4828 0.4828 0.8757 84.1327 886.7672)" class="st43" cx="1764.6" cy="280" rx="208.7" ry="195.4"/>
			
				<ellipse transform="matrix(0.8805 -0.4741 0.4741 0.8805 78.8936 870.4012)" class="st44" cx="1765.7" cy="278.7" rx="207.4" ry="195.3"/>
			
				<ellipse transform="matrix(0.8852 -0.4653 0.4653 0.8852 73.8587 853.9445)" class="st45" cx="1766.8" cy="277.4" rx="206.2" ry="195.3"/>
			
				<ellipse transform="matrix(0.8897 -0.4565 0.4565 0.8897 69.01 837.4157)" class="st46" cx="1767.9" cy="275.9" rx="205.1" ry="195.4"/>
			
				<ellipse transform="matrix(0.8943 -0.4474 0.4474 0.8943 64.0754 820.5635)" class="st47" cx="1769" cy="274.6" rx="204" ry="195.6"/>
			
				<ellipse transform="matrix(0.8988 -0.4384 0.4384 0.8988 59.3205 803.6335)" class="st48" cx="1770.1" cy="273.3" rx="203.1" ry="195.8"/>
			
				<ellipse transform="matrix(0.9032 -0.4293 0.4293 0.9032 54.7321 786.6295)" class="st49" cx="1771.2" cy="272" rx="202.2" ry="196.2"/>
			
				<ellipse transform="matrix(0.9076 -0.4199 0.4199 0.9076 50.0648 769.3019)" class="st50" cx="1772.3" cy="270.9" rx="201.4" ry="196.6"/>
			
				<ellipse transform="matrix(0.9118 -0.4107 0.4107 0.9118 45.8015 752.1658)" class="st51" cx="1773.4" cy="269.5" rx="200.7" ry="197.1"/>
			
				<ellipse transform="matrix(0.9159 -0.4015 0.4015 0.9159 41.695 734.975)" class="st52" cx="1774.6" cy="268" rx="200.1" ry="197.7"/>
			
				<ellipse transform="matrix(0.92 -0.392 0.392 0.92 37.4966 717.4562)" class="st53" cx="1775.7" cy="266.9" rx="199.5" ry="198.3"/>
			<circle class="st54" cx="1776.8" cy="265.5" r="199.1"/>
		</g>
		
			<radialGradient id="SVGID_8_" cx="1939.9692" cy="77.1719" r="257.7712" gradientTransform="matrix(1 0 0 -1 -134.5509 292.8665)" gradientUnits="userSpaceOnUse">
			<stop  offset="0.63" style="stop-color:#FFFFFF"/>
			<stop  offset="0.7" style="stop-color:#F9F9F9"/>
			<stop  offset="0.8" style="stop-color:#E9E9E9"/>
			<stop  offset="0.91" style="stop-color:#CECECE"/>
			<stop  offset="1" style="stop-color:#B2B2B2"/>
		</radialGradient>
		<circle class="st57" cx="1777.7" cy="262.6" r="212.2"/>
		
			<radialGradient id="SVGID_9_" cx="1181.0262" cy="-395.804" r="246.4308" gradientTransform="matrix(1 0 0 -1 0 1062)" gradientUnits="userSpaceOnUse">
			<stop  offset="0.29" style="stop-color:#DADADA"/>
			<stop  offset="0.52" style="stop-color:#E0E0E0"/>
			<stop  offset="0.8" style="stop-color:#EFEFEF"/>
			<stop  offset="1" style="stop-color:#FFFFFF"/>
		</radialGradient>
		<circle class="st58" cx="1050.4" cy="711" r="246.4"/>
		<g class="st7">
			
				<ellipse transform="matrix(0.7071 -0.7071 0.7071 0.7071 -256.565 933.098)" class="st5" cx="998.1" cy="776.3" rx="297.6" ry="240.8"/>
			
				<ellipse transform="matrix(0.711 -0.7031 0.7031 0.711 -256.1411 926.4773)" class="st8" cx="999.2" cy="774.9" rx="294.3" ry="238.7"/>
			
				<ellipse transform="matrix(0.7151 -0.699 0.699 0.7151 -255.7931 919.6586)" class="st9" cx="1000.3" cy="773.6" rx="291" ry="236.6"/>
			
				<ellipse transform="matrix(0.7192 -0.6948 0.6948 0.7192 -255.5256 912.6449)" class="st10" cx="1001.4" cy="772.5" rx="287.8" ry="234.6"/>
			
				<ellipse transform="matrix(0.7233 -0.6905 0.6905 0.7233 -255.0728 905.5775)" class="st11" cx="1002.5" cy="771.1" rx="284.6" ry="232.6"/>
			
				<ellipse transform="matrix(0.7275 -0.6861 0.6861 0.7275 -254.6938 898.3005)" class="st12" cx="1003.6" cy="769.8" rx="281.4" ry="230.6"/>
			
				<ellipse transform="matrix(0.7317 -0.6816 0.6816 0.7317 -254.1218 890.9739)" class="st13" cx="1004.7" cy="768.3" rx="278.3" ry="228.7"/>
			
				<ellipse transform="matrix(0.7361 -0.6769 0.6769 0.7361 -253.8649 883.3003)" class="st14" cx="1005.8" cy="767.2" rx="275.2" ry="226.8"/>
			
				<ellipse transform="matrix(0.7405 -0.6721 0.6721 0.7405 -253.4082 875.5629)" class="st15" cx="1006.9" cy="765.9" rx="272.1" ry="224.9"/>
			
				<ellipse transform="matrix(0.7448 -0.6673 0.6673 0.7448 -252.7603 867.7785)" class="st16" cx="1008.1" cy="764.3" rx="269.1" ry="223.1"/>
			
				<ellipse transform="matrix(0.7493 -0.6622 0.6622 0.7493 -252.401 859.6349)" class="st17" cx="1009.2" cy="763.2" rx="266.1" ry="221.4"/>
			
				<ellipse transform="matrix(0.7538 -0.6571 0.6571 0.7538 -251.8347 851.4341)" class="st18" cx="1010.3" cy="761.8" rx="263.2" ry="219.7"/>
			
				<ellipse transform="matrix(0.7584 -0.6518 0.6518 0.7584 -251.3021 843.0307)" class="st19" cx="1011.4" cy="760.5" rx="260.3" ry="218"/>
			
				<ellipse transform="matrix(0.763 -0.6464 0.6464 0.763 -250.8046 834.4108)" class="st20" cx="1012.5" cy="759.2" rx="257.5" ry="216.4"/>
			
				<ellipse transform="matrix(0.769 -0.6392 0.6392 0.769 -252.6365 825.1962)" class="st21" cx="1015.6" cy="762.2" rx="255" ry="215.1"/>
			
				<ellipse transform="matrix(0.7724 -0.6351 0.6351 0.7724 -249.6302 816.7042)" class="st22" cx="1014.7" cy="756.7" rx="252" ry="213.3"/>
			
				<ellipse transform="matrix(0.7771 -0.6293 0.6293 0.7771 -248.9539 807.6212)" class="st23" cx="1015.8" cy="755.3" rx="249.3" ry="211.8"/>
			
				<ellipse transform="matrix(0.782 -0.6233 0.6233 0.782 -248.2951 798.3185)" class="st24" cx="1016.9" cy="754.1" rx="246.6" ry="210.4"/>
			
				<ellipse transform="matrix(0.7867 -0.6173 0.6173 0.7867 -247.4174 788.9807)" class="st25" cx="1018.1" cy="752.5" rx="244.1" ry="209"/>
			
				<ellipse transform="matrix(0.7917 -0.611 0.611 0.7917 -246.7633 779.2508)" class="st26" cx="1019.2" cy="751.4" rx="241.6" ry="207.7"/>
			
				<ellipse transform="matrix(0.7965 -0.6046 0.6046 0.7965 -245.8906 769.4891)" class="st27" cx="1020.3" cy="750.1" rx="239.1" ry="206.4"/>
			
				<ellipse transform="matrix(0.8015 -0.598 0.598 0.8015 -245.016 759.5045)" class="st28" cx="1021.4" cy="748.8" rx="236.7" ry="205.3"/>
			
				<ellipse transform="matrix(0.8083 -0.5888 0.5888 0.8083 -247.4038 748.3262)" class="st29" cx="1025.5" cy="754.1" rx="234.8" ry="204.5"/>
			
				<ellipse transform="matrix(0.8114 -0.5845 0.5845 0.8114 -243.0435 739.0854)" class="st30" cx="1023.6" cy="746.1" rx="232.1" ry="203"/>
			
				<ellipse transform="matrix(0.8163 -0.5776 0.5776 0.8163 -241.9389 728.6518)" class="st31" cx="1024.8" cy="744.7" rx="229.9" ry="202"/>
			
				<ellipse transform="matrix(0.8213 -0.5704 0.5704 0.8213 -240.8275 717.9971)" class="st32" cx="1025.9" cy="743.5" rx="227.7" ry="201.1"/>
			
				<ellipse transform="matrix(0.8264 -0.5631 0.5631 0.8264 -239.6949 707.136)" class="st33" cx="1027" cy="742.3" rx="225.6" ry="200.2"/>
			
				<ellipse transform="matrix(0.8314 -0.5557 0.5557 0.8314 -238.3614 696.2526)" class="st34" cx="1028.1" cy="740.9" rx="223.6" ry="199.4"/>
			
				<ellipse transform="matrix(0.8364 -0.5481 0.5481 0.8364 -237.0071 685.1541)" class="st35" cx="1029.2" cy="739.6" rx="221.6" ry="198.7"/>
			
				<ellipse transform="matrix(0.8414 -0.5404 0.5404 0.8414 -235.6351 673.8403)" class="st36" cx="1030.3" cy="738.4" rx="219.8" ry="198"/>
			
				<ellipse transform="matrix(0.8464 -0.5326 0.5326 0.8464 -234.0637 662.5248)" class="st37" cx="1031.4" cy="737" rx="218" ry="197.4"/>
			
				<ellipse transform="matrix(0.8514 -0.5246 0.5246 0.8514 -232.483 650.9884)" class="st38" cx="1032.5" cy="735.7" rx="216.2" ry="196.9"/>
			
				<ellipse transform="matrix(0.8557 -0.5174 0.5174 0.8557 -229.5765 645.7943)" class="st39" cx="1043.3" cy="734.6" rx="215.6" ry="197.4"/>
			
				<ellipse transform="matrix(0.8612 -0.5083 0.5083 0.8612 -228.9269 627.7031)" class="st40" cx="1034.8" cy="733" rx="213" ry="196"/>
			
				<ellipse transform="matrix(0.8661 -0.4998 0.4998 0.8661 -227.1217 615.7403)" class="st41" cx="1035.8" cy="731.8" rx="211.5" ry="195.7"/>
			
				<ellipse transform="matrix(0.871 -0.4914 0.4914 0.871 -225.1471 603.7788)" class="st42" cx="1036.9" cy="730.5" rx="210" ry="195.5"/>
			
				<ellipse transform="matrix(0.8757 -0.4828 0.4828 0.8757 -223.0106 591.8254)" class="st43" cx="1038.1" cy="729.1" rx="208.7" ry="195.4"/>
			
				<ellipse transform="matrix(0.8805 -0.4741 0.4741 0.8805 -220.8626 579.6504)" class="st44" cx="1039.2" cy="727.9" rx="207.4" ry="195.3"/>
			
				<ellipse transform="matrix(0.8852 -0.4653 0.4653 0.8852 -218.5608 567.4956)" class="st45" cx="1040.3" cy="726.5" rx="206.2" ry="195.3"/>
			
				<ellipse transform="matrix(0.8897 -0.4565 0.4565 0.8897 -216.1222 555.3429)" class="st46" cx="1041.5" cy="725" rx="205.1" ry="195.4"/>
			
				<ellipse transform="matrix(0.8943 -0.4474 0.4474 0.8943 -213.6741 542.9817)" class="st47" cx="1042.5" cy="723.8" rx="204" ry="195.6"/>
			
				<ellipse transform="matrix(0.8988 -0.4384 0.4384 0.8988 -211.0959 530.6251)" class="st48" cx="1043.6" cy="722.5" rx="203.1" ry="195.8"/>
			
				<ellipse transform="matrix(0.9032 -0.4293 0.4293 0.9032 -208.3953 518.2883)" class="st49" cx="1044.8" cy="721.1" rx="202.2" ry="196.2"/>
			
				<ellipse transform="matrix(0.9076 -0.4199 0.4199 0.9076 -205.6874 505.7271)" class="st50" cx="1045.8" cy="720" rx="201.4" ry="196.6"/>
			
				<ellipse transform="matrix(0.9118 -0.4107 0.4107 0.9118 -202.7634 493.4203)" class="st51" cx="1047" cy="718.6" rx="200.7" ry="197.1"/>
			
				<ellipse transform="matrix(0.9159 -0.4015 0.4015 0.9159 -199.747 481.1217)" class="st52" cx="1048.1" cy="717.2" rx="200.1" ry="197.7"/>
			
				<ellipse transform="matrix(0.92 -0.392 0.392 0.92 -196.7151 468.6071)" class="st53" cx="1049.2" cy="716" rx="199.5" ry="198.3"/>
			<circle class="st54" cx="1050.3" cy="714.6" r="199.1"/>
		</g>
		
			<radialGradient id="SVGID_10_" cx="1213.5028" cy="-371.969" r="257.7712" gradientTransform="matrix(1 0 0 -1 -134.55 292.86)" gradientUnits="userSpaceOnUse">
			<stop  offset="0.63" style="stop-color:#FFFFFF"/>
			<stop  offset="0.7" style="stop-color:#F9F9F9"/>
			<stop  offset="0.8" style="stop-color:#E9E9E9"/>
			<stop  offset="0.91" style="stop-color:#CECECE"/>
			<stop  offset="1" style="stop-color:#B2B2B2"/>
		</radialGradient>
		<circle class="st59" cx="1051.3" cy="711.7" r="212.2"/>
		
			<radialGradient id="SVGID_11_" cx="2605.9382" cy="-395.804" r="246.4308" gradientTransform="matrix(1 0 0 -1 0 1062)" gradientUnits="userSpaceOnUse">
			<stop  offset="0.29" style="stop-color:#DADADA"/>
			<stop  offset="0.52" style="stop-color:#E0E0E0"/>
			<stop  offset="0.8" style="stop-color:#EFEFEF"/>
			<stop  offset="1" style="stop-color:#FFFFFF"/>
		</radialGradient>
		<circle class="st60" cx="2475.3" cy="711" r="246.4"/>
		<g class="st7">
			
				<ellipse transform="matrix(0.7071 -0.7071 0.7071 0.7071 160.7807 1940.668)" class="st5" cx="2423" cy="776.3" rx="297.6" ry="240.8"/>
			
				<ellipse transform="matrix(0.711 -0.7031 0.7031 0.711 155.6147 1928.3689)" class="st8" cx="2424.1" cy="774.8" rx="294.3" ry="238.7"/>
			
				<ellipse transform="matrix(0.7151 -0.699 0.699 0.7151 150.2002 1915.725)" class="st9" cx="2425.2" cy="773.6" rx="291" ry="236.6"/>
			
				<ellipse transform="matrix(0.7192 -0.6948 0.6948 0.7192 144.5384 1902.7297)" class="st10" cx="2426.4" cy="772.5" rx="287.8" ry="234.6"/>
			
				<ellipse transform="matrix(0.7233 -0.6905 0.6905 0.7233 139.1437 1889.5242)" class="st11" cx="2427.5" cy="771.1" rx="284.6" ry="232.6"/>
			
				<ellipse transform="matrix(0.7275 -0.6861 0.6861 0.7275 133.5278 1875.9553)" class="st12" cx="2428.6" cy="769.9" rx="281.4" ry="230.6"/>
			
				<ellipse transform="matrix(0.7317 -0.6816 0.6816 0.7317 128.1847 1862.1736)" class="st13" cx="2429.6" cy="768.3" rx="278.3" ry="228.7"/>
			
				<ellipse transform="matrix(0.7361 -0.6769 0.6769 0.7361 122.1453 1847.8595)" class="st14" cx="2430.8" cy="767.3" rx="275.2" ry="226.8"/>
			
				<ellipse transform="matrix(0.7405 -0.6721 0.6721 0.7405 116.3918 1833.3257)" class="st15" cx="2431.9" cy="766" rx="272.1" ry="224.9"/>
			
				<ellipse transform="matrix(0.7448 -0.6673 0.6673 0.7448 110.9467 1818.5802)" class="st16" cx="2432.9" cy="764.2" rx="269.1" ry="223.1"/>
			
				<ellipse transform="matrix(0.7507 -0.6606 0.6606 0.7507 97.6538 1799.3237)" class="st17" cx="2433" cy="770.3" rx="265.9" ry="221.2"/>
			
				<ellipse transform="matrix(0.7538 -0.6571 0.6571 0.7538 99.0038 1787.7401)" class="st18" cx="2435.2" cy="761.8" rx="263.2" ry="219.7"/>
			
				<ellipse transform="matrix(0.7584 -0.6518 0.6518 0.7584 93.0208 1771.8087)" class="st19" cx="2436.3" cy="760.4" rx="260.3" ry="218"/>
			
				<ellipse transform="matrix(0.763 -0.6464 0.6464 0.763 86.8922 1755.4744)" class="st20" cx="2437.4" cy="759.2" rx="257.5" ry="216.4"/>
			
				<ellipse transform="matrix(0.7676 -0.6409 0.6409 0.7676 81.0784 1738.9243)" class="st21" cx="2438.5" cy="757.7" rx="254.7" ry="214.8"/>
			
				<ellipse transform="matrix(0.7724 -0.6351 0.6351 0.7724 74.6629 1721.7548)" class="st22" cx="2439.7" cy="756.7" rx="252" ry="213.3"/>
			
				<ellipse transform="matrix(0.7771 -0.6293 0.6293 0.7771 68.579 1704.3688)" class="st23" cx="2440.8" cy="755.4" rx="249.3" ry="211.8"/>
			
				<ellipse transform="matrix(0.782 -0.6233 0.6233 0.782 62.3782 1686.5559)" class="st24" cx="2441.9" cy="754.1" rx="246.6" ry="210.4"/>
			
				<ellipse transform="matrix(0.7867 -0.6173 0.6173 0.7867 56.5204 1668.5453)" class="st25" cx="2442.9" cy="752.5" rx="244.1" ry="209"/>
			
				<ellipse transform="matrix(0.7917 -0.611 0.611 0.7917 50.0967 1649.8743)" class="st26" cx="2444.1" cy="751.5" rx="241.6" ry="207.7"/>
			
				<ellipse transform="matrix(0.7965 -0.6046 0.6046 0.7965 44.0313 1630.9988)" class="st27" cx="2445.2" cy="750.1" rx="239.1" ry="206.4"/>
			
				<ellipse transform="matrix(0.8015 -0.598 0.598 0.8015 37.8672 1611.6891)" class="st28" cx="2446.3" cy="748.8" rx="236.7" ry="205.3"/>
			
				<ellipse transform="matrix(0.8064 -0.5913 0.5913 0.8064 31.6192 1591.9338)" class="st29" cx="2447.5" cy="747.7" rx="234.4" ry="204.1"/>
			
				<ellipse transform="matrix(0.8114 -0.5845 0.5845 0.8114 25.738 1572.0048)" class="st30" cx="2448.6" cy="746.1" rx="232.1" ry="203"/>
			
				<ellipse transform="matrix(0.8163 -0.5776 0.5776 0.8163 19.772 1551.6283)" class="st31" cx="2449.7" cy="744.7" rx="229.9" ry="202"/>
			
				<ellipse transform="matrix(0.8213 -0.5704 0.5704 0.8213 13.7384 1530.8009)" class="st32" cx="2450.8" cy="743.5" rx="227.7" ry="201.1"/>
			
				<ellipse transform="matrix(0.8264 -0.5631 0.5631 0.8264 7.6463 1509.5336)" class="st33" cx="2451.9" cy="742.4" rx="225.6" ry="200.2"/>
			
				<ellipse transform="matrix(0.8314 -0.5557 0.5557 0.8314 1.9116 1488.1034)" class="st34" cx="2453" cy="740.9" rx="223.6" ry="199.4"/>
			
				<ellipse transform="matrix(0.8364 -0.5481 0.5481 0.8364 -3.8735 1466.2279)" class="st35" cx="2454.1" cy="739.6" rx="221.6" ry="198.7"/>
			
				<ellipse transform="matrix(0.8414 -0.5404 0.5404 0.8414 -9.7092 1443.8942)" class="st36" cx="2455.2" cy="738.5" rx="219.8" ry="198"/>
			
				<ellipse transform="matrix(0.8464 -0.5326 0.5326 0.8464 -15.1864 1421.4274)" class="st37" cx="2456.3" cy="737" rx="218" ry="197.4"/>
			
				<ellipse transform="matrix(0.8514 -0.5246 0.5246 0.8514 -20.7185 1398.5007)" class="st38" cx="2457.5" cy="735.8" rx="216.2" ry="196.9"/>
			
				<ellipse transform="matrix(0.8563 -0.5165 0.5165 0.8563 -25.896 1375.4595)" class="st39" cx="2458.5" cy="734.3" rx="214.6" ry="196.4"/>
			
				<ellipse transform="matrix(0.8612 -0.5083 0.5083 0.8612 -31.1274 1351.9656)" class="st40" cx="2459.7" cy="733" rx="213" ry="196"/>
			
				<ellipse transform="matrix(0.8661 -0.4998 0.4998 0.8661 -36.3857 1328.0231)" class="st41" cx="2460.8" cy="731.9" rx="211.5" ry="195.7"/>
			
				<ellipse transform="matrix(0.871 -0.4914 0.4914 0.871 -41.3169 1303.9651)" class="st42" cx="2461.9" cy="730.6" rx="210" ry="195.5"/>
			
				<ellipse transform="matrix(0.8757 -0.4828 0.4828 0.8757 -45.9263 1279.8115)" class="st43" cx="2463" cy="729.1" rx="208.7" ry="195.4"/>
			
				<ellipse transform="matrix(0.8805 -0.4741 0.4741 0.8805 -50.5798 1255.2111)" class="st44" cx="2464.1" cy="727.9" rx="207.4" ry="195.3"/>
			
				<ellipse transform="matrix(0.8852 -0.4653 0.4653 0.8852 -54.921 1230.522)" class="st45" cx="2465.2" cy="726.5" rx="206.2" ry="195.3"/>
			
				<ellipse transform="matrix(0.8897 -0.4565 0.4565 0.8897 -58.9753 1205.7554)" class="st46" cx="2466.3" cy="725" rx="205.1" ry="195.4"/>
			
				<ellipse transform="matrix(0.8943 -0.4474 0.4474 0.8943 -63.0672 1180.5439)" class="st47" cx="2467.4" cy="723.8" rx="204" ry="195.6"/>
			
				<ellipse transform="matrix(0.8988 -0.4384 0.4384 0.8988 -66.8809 1155.2605)" class="st48" cx="2468.6" cy="722.5" rx="203.1" ry="195.8"/>
			
				<ellipse transform="matrix(0.9032 -0.4293 0.4293 0.9032 -70.4248 1129.9181)" class="st49" cx="2469.7" cy="721.1" rx="202.2" ry="196.2"/>
			
				<ellipse transform="matrix(0.9076 -0.4199 0.4199 0.9076 -74.0067 1104.1185)" class="st50" cx="2470.8" cy="720.2" rx="201.4" ry="196.6"/>
			
				<ellipse transform="matrix(0.9118 -0.4107 0.4107 0.9118 -77.0426 1078.6624)" class="st51" cx="2471.9" cy="718.6" rx="200.7" ry="197.1"/>
			
				<ellipse transform="matrix(0.9159 -0.4015 0.4015 0.9159 -79.8461 1053.1594)" class="st52" cx="2473" cy="717.1" rx="200.1" ry="197.7"/>
			
				<ellipse transform="matrix(0.92 -0.392 0.392 0.92 -82.6821 1027.2084)" class="st53" cx="2474.1" cy="716.1" rx="199.5" ry="198.3"/>
			<circle class="st54" cx="2475.2" cy="714.7" r="199.1"/>
		</g>
		
			<radialGradient id="SVGID_12_" cx="2638.4146" cy="-371.969" r="257.7712" gradientTransform="matrix(1 0 0 -1 -134.55 292.86)" gradientUnits="userSpaceOnUse">
			<stop  offset="0.63" style="stop-color:#FFFFFF"/>
			<stop  offset="0.7" style="stop-color:#F9F9F9"/>
			<stop  offset="0.8" style="stop-color:#E9E9E9"/>
			<stop  offset="0.91" style="stop-color:#CECECE"/>
			<stop  offset="1" style="stop-color:#B2B2B2"/>
		</radialGradient>
		<circle class="st61" cx="2476.2" cy="711.7" r="212.2"/>
		
			<radialGradient id="SVGID_13_" cx="3332.4143" cy="53.3368" r="246.4308" gradientTransform="matrix(1 0 0 -1 0 1062)" gradientUnits="userSpaceOnUse">
			<stop  offset="0.29" style="stop-color:#DADADA"/>
			<stop  offset="0.52" style="stop-color:#E0E0E0"/>
			<stop  offset="0.8" style="stop-color:#EFEFEF"/>
			<stop  offset="1" style="stop-color:#FFFFFF"/>
		</radialGradient>
		<circle class="st62" cx="3201.8" cy="261.9" r="246.4"/>
		<g class="st7">
			
				<ellipse transform="matrix(0.7071 -0.7071 0.7071 0.7071 691.15 2322.8127)" class="st5" cx="3149.5" cy="327.1" rx="297.6" ry="240.8"/>
			
				<ellipse transform="matrix(0.711 -0.7031 0.7031 0.711 681.3412 2309.376)" class="st8" cx="3150.5" cy="325.7" rx="294.3" ry="238.7"/>
			
				<ellipse transform="matrix(0.7151 -0.699 0.699 0.7151 671.1511 2295.5835)" class="st9" cx="3151.7" cy="324.5" rx="291" ry="236.6"/>
			
				<ellipse transform="matrix(0.7192 -0.6948 0.6948 0.7192 660.5728 2281.4065)" class="st10" cx="3152.9" cy="323.4" rx="287.8" ry="234.6"/>
			
				<ellipse transform="matrix(0.7233 -0.6905 0.6905 0.7233 650.2726 2266.9146)" class="st11" cx="3154" cy="322" rx="284.6" ry="232.6"/>
			
				<ellipse transform="matrix(0.7275 -0.6861 0.6861 0.7275 639.6091 2252.0222)" class="st12" cx="3155.1" cy="320.7" rx="281.4" ry="230.6"/>
			
				<ellipse transform="matrix(0.7317 -0.6816 0.6816 0.7317 629.2326 2236.8198)" class="st13" cx="3156" cy="319.1" rx="278.3" ry="228.7"/>
			
				<ellipse transform="matrix(0.7361 -0.6769 0.6769 0.7361 617.8714 2221.1016)" class="st14" cx="3157.4" cy="318.2" rx="275.2" ry="226.8"/>
			
				<ellipse transform="matrix(0.7405 -0.6721 0.6721 0.7405 606.8221 2205.0579)" class="st15" cx="3158.5" cy="316.8" rx="272.1" ry="224.9"/>
			
				<ellipse transform="matrix(0.7448 -0.6673 0.6673 0.7448 596.0632 2188.6934)" class="st16" cx="3159.3" cy="315.1" rx="269.1" ry="223.1"/>
			
				<ellipse transform="matrix(0.7493 -0.6622 0.6622 0.7493 584.3755 2171.7708)" class="st17" cx="3160.6" cy="314.1" rx="266.1" ry="221.4"/>
			
				<ellipse transform="matrix(0.7507 -0.6606 0.6606 0.7507 587.9117 2156.2612)" class="st18" cx="3151.1" cy="299.1" rx="262.9" ry="219.4"/>
			
				<ellipse transform="matrix(0.7584 -0.6518 0.6518 0.7584 561.3326 2136.8037)" class="st19" cx="3162.7" cy="311.3" rx="260.3" ry="218"/>
			
				<ellipse transform="matrix(0.763 -0.6464 0.6464 0.763 549.3777 2118.6223)" class="st20" cx="3163.9" cy="310.1" rx="257.5" ry="216.4"/>
			
				<ellipse transform="matrix(0.7676 -0.6409 0.6409 0.7676 537.7663 2100.1082)" class="st21" cx="3164.9" cy="308.5" rx="254.7" ry="214.8"/>
			
				<ellipse transform="matrix(0.7724 -0.6351 0.6351 0.7724 525.2686 2080.9561)" class="st22" cx="3166.2" cy="307.6" rx="252" ry="213.3"/>
			
				<ellipse transform="matrix(0.7771 -0.6293 0.6293 0.7771 513.132 2061.4731)" class="st23" cx="3167.3" cy="306.2" rx="249.3" ry="211.8"/>
			
				<ellipse transform="matrix(0.782 -0.6233 0.6233 0.782 500.7461 2041.4858)" class="st24" cx="3168.4" cy="305" rx="246.6" ry="210.4"/>
			
				<ellipse transform="matrix(0.7867 -0.6173 0.6173 0.7867 488.7196 2021.1797)" class="st25" cx="3169.4" cy="303.3" rx="244.1" ry="209"/>
			
				<ellipse transform="matrix(0.7917 -0.611 0.611 0.7917 475.8668 2000.1743)" class="st26" cx="3170.6" cy="302.4" rx="241.6" ry="207.7"/>
			
				<ellipse transform="matrix(0.7965 -0.6046 0.6046 0.7965 463.3913 1978.8397)" class="st27" cx="3171.7" cy="301" rx="239.1" ry="206.4"/>
			
				<ellipse transform="matrix(0.8015 -0.598 0.598 0.8015 450.7031 1956.9977)" class="st28" cx="3172.8" cy="299.7" rx="236.7" ry="205.3"/>
			
				<ellipse transform="matrix(0.8064 -0.5913 0.5913 0.8064 437.8105 1934.6144)" class="st29" cx="3174" cy="298.6" rx="234.4" ry="204.1"/>
			
				<ellipse transform="matrix(0.8114 -0.5845 0.5845 0.8114 425.3045 1911.931)" class="st30" cx="3175" cy="297" rx="232.1" ry="203"/>
			
				<ellipse transform="matrix(0.8163 -0.5776 0.5776 0.8163 412.6047 1888.7155)" class="st31" cx="3176.1" cy="295.6" rx="229.9" ry="202"/>
			
				<ellipse transform="matrix(0.8213 -0.5704 0.5704 0.8213 399.726 1864.9651)" class="st32" cx="3177.2" cy="294.3" rx="227.7" ry="201.1"/>
			
				<ellipse transform="matrix(0.8264 -0.5631 0.5631 0.8264 386.6659 1840.6621)" class="st33" cx="3178.4" cy="293.3" rx="225.6" ry="200.2"/>
			
				<ellipse transform="matrix(0.8314 -0.5557 0.5557 0.8314 374.01 1816.0854)" class="st34" cx="3179.5" cy="291.8" rx="223.6" ry="199.4"/>
			
				<ellipse transform="matrix(0.8364 -0.5481 0.5481 0.8364 361.1846 1790.9569)" class="st35" cx="3180.6" cy="290.5" rx="221.6" ry="198.7"/>
			
				<ellipse transform="matrix(0.8414 -0.5404 0.5404 0.8414 348.2047 1765.2845)" class="st36" cx="3181.8" cy="289.4" rx="219.8" ry="198"/>
			
				<ellipse transform="matrix(0.8464 -0.5326 0.5326 0.8464 335.6127 1739.3455)" class="st37" cx="3182.8" cy="287.9" rx="218" ry="197.4"/>
			
				<ellipse transform="matrix(0.853 -0.5219 0.5219 0.853 309.3006 1701.291)" class="st38" cx="3175.2" cy="301.5" rx="215.4" ry="196.2"/>
			
				<ellipse transform="matrix(0.8563 -0.5165 0.5165 0.8563 310.5169 1686.1436)" class="st39" cx="3185" cy="285.1" rx="214.6" ry="196.4"/>
			
				<ellipse transform="matrix(0.8612 -0.5083 0.5083 0.8612 298.0127 1658.8762)" class="st40" cx="3186.1" cy="283.8" rx="213" ry="196"/>
			
				<ellipse transform="matrix(0.8661 -0.4998 0.4998 0.8661 285.3705 1631.0452)" class="st41" cx="3187.3" cy="282.8" rx="211.5" ry="195.7"/>
			
				<ellipse transform="matrix(0.871 -0.4914 0.4914 0.871 273.1121 1603.0042)" class="st42" cx="3188.4" cy="281.5" rx="210" ry="195.5"/>
			
				<ellipse transform="matrix(0.8757 -0.4828 0.4828 0.8757 261.2128 1574.7574)" class="st43" cx="3189.5" cy="280" rx="208.7" ry="195.4"/>
			
				<ellipse transform="matrix(0.8805 -0.4741 0.4741 0.8805 249.1818 1545.9628)" class="st44" cx="3190.6" cy="278.8" rx="207.4" ry="195.3"/>
			
				<ellipse transform="matrix(0.8852 -0.4653 0.4653 0.8852 237.4958 1516.9786)" class="st45" cx="3191.7" cy="277.4" rx="206.2" ry="195.3"/>
			
				<ellipse transform="matrix(0.8897 -0.4565 0.4565 0.8897 226.1568 1487.8282)" class="st46" cx="3192.8" cy="275.8" rx="205.1" ry="195.4"/>
			
				<ellipse transform="matrix(0.8943 -0.4474 0.4474 0.8943 214.6781 1458.1283)" class="st47" cx="3193.9" cy="274.6" rx="204" ry="195.6"/>
			
				<ellipse transform="matrix(0.8988 -0.4384 0.4384 0.8988 203.5345 1428.2656)" class="st48" cx="3195" cy="273.3" rx="203.1" ry="195.8"/>
			
				<ellipse transform="matrix(0.9032 -0.4293 0.4293 0.9032 192.7027 1398.2594)" class="st49" cx="3196.1" cy="271.9" rx="202.2" ry="196.2"/>
			
				<ellipse transform="matrix(0.9076 -0.4199 0.4199 0.9076 181.7415 1367.6942)" class="st50" cx="3197.3" cy="271.1" rx="201.4" ry="196.6"/>
			
				<ellipse transform="matrix(0.9118 -0.4107 0.4107 0.9118 171.5231 1337.4119)" class="st51" cx="3198.4" cy="269.5" rx="200.7" ry="197.1"/>
			
				<ellipse transform="matrix(0.9159 -0.4015 0.4015 0.9159 161.592 1307.0134)" class="st52" cx="3199.4" cy="267.9" rx="200.1" ry="197.7"/>
			
				<ellipse transform="matrix(0.92 -0.392 0.392 0.92 151.5296 1276.0575)" class="st53" cx="3200.6" cy="267" rx="199.5" ry="198.3"/>
			<circle class="st54" cx="3201.7" cy="265.5" r="199.1"/>
		</g>
		
			<radialGradient id="SVGID_14_" cx="3364.8811" cy="77.1715" r="257.7712" gradientTransform="matrix(1 0 0 -1 -134.5439 292.8535)" gradientUnits="userSpaceOnUse">
			<stop  offset="0.63" style="stop-color:#FFFFFF"/>
			<stop  offset="0.7" style="stop-color:#F9F9F9"/>
			<stop  offset="0.8" style="stop-color:#E9E9E9"/>
			<stop  offset="0.91" style="stop-color:#CECECE"/>
			<stop  offset="1" style="stop-color:#B2B2B2"/>
		</radialGradient>
		<circle class="st63" cx="3202.7" cy="262.6" r="212.2"/>
		
			<linearGradient id="SVGID_15_" gradientUnits="userSpaceOnUse" x1="2046.5028" y1="169.5172" x2="2228.8914" y2="168.9444" gradientTransform="matrix(1 0 0 -1 -351.91 431.08)">
			<stop  offset="0" style="stop-color:#00B75F"/>
			<stop  offset="1" style="stop-color:#2F4EA9"/>
		</linearGradient>
		<path class="st64" d="M1711.3,226.9l17.8,50.3l17.7-50.3h18.8v69.4h-14.3v-19l1.4-32.7l-18.7,51.7h-9.8l-18.7-51.7l1.4,32.7v19
			h-14.3v-69.4H1711.3z"/>
		
			<linearGradient id="SVGID_16_" gradientUnits="userSpaceOnUse" x1="2046.5028" y1="169.7391" x2="2228.8914" y2="169.1663" gradientTransform="matrix(1 0 0 -1 -351.91 431.08)">
			<stop  offset="0" style="stop-color:#00B75F"/>
			<stop  offset="1" style="stop-color:#2F4EA9"/>
		</linearGradient>
		<path class="st65" d="M1819.9,266.3h-27.5v18.6h32.2v11.5h-46.5v-69.4h46.4v11.6h-32.1V255h27.5V266.3z"/>
		
			<linearGradient id="SVGID_17_" gradientUnits="userSpaceOnUse" x1="2046.5028" y1="169.9183" x2="2228.8914" y2="169.3455" gradientTransform="matrix(1 0 0 -1 -351.91 431.08)">
			<stop  offset="0" style="stop-color:#00B75F"/>
			<stop  offset="1" style="stop-color:#2F4EA9"/>
		</linearGradient>
		<path class="st66" d="M1869,278.1c0.1-2.4-0.9-4.7-2.9-6.2c-1.9-1.4-5.3-3-10.3-4.6c-4.1-1.2-8-2.8-11.8-4.7
			c-7.9-4.3-11.8-10-11.8-17.2c0-3.6,1.1-7.1,3.2-10c2.3-3.1,5.5-5.5,9.1-6.9c4.2-1.7,8.8-2.5,13.3-2.5c4.6-0.1,9.1,0.8,13.2,2.7
			c3.7,1.6,6.8,4.3,9,7.6c2.2,3.3,3.3,7.2,3.2,11.2h-14.3c0.2-2.8-0.9-5.5-3-7.4c-2-1.8-4.8-2.6-8.4-2.6c-3.5,0-6.2,0.7-8.1,2.2
			c-1.9,1.3-3,3.5-2.9,5.8c0,2.3,1.1,4.1,3.4,5.7c3.1,1.9,6.5,3.3,10,4.3c8.1,2.4,14,5.5,17.8,9.1c3.7,3.5,5.7,8.4,5.6,13.5
			c0,6-2.3,10.7-6.8,14.1c-4.5,3.4-10.7,5.1-18.4,5.1c-5,0.1-10-0.9-14.6-2.9c-4-1.7-7.5-4.5-10-8c-2.3-3.5-3.5-7.6-3.5-11.8h14.4
			c0,7.7,4.6,11.5,13.7,11.5c3.4,0,6.1-0.7,8-2.1C1868.1,282.6,1869.1,280.4,1869,278.1z"/>
		<g class="st67">
			<path d="M347.8,259.5c0,12.3-2.6,21.7-7.6,28.3c-5.1,6.5-12.6,9.8-22.4,9.8c-9.7,0-17.1-3.2-22.3-9.6c-5.1-6.4-7.8-15.6-7.9-27.5
				V244c0-12.4,2.6-21.9,7.7-28.3c5.2-6.4,12.6-9.7,22.3-9.7c9.7,0,17.1,3.2,22.3,9.6c5.1,6.4,7.8,15.6,7.9,27.5V259.5z
				 M330.1,241.5c0-7.4-1-12.8-3-16.1c-2-3.4-5.2-5.1-9.5-5.1c-4.2,0-7.2,1.6-9.2,4.8c-2,3.2-3,8.2-3.2,15v21.7c0,7.3,1,12.7,3,16.2
				c2,3.5,5.2,5.3,9.5,5.3c4.3,0,7.4-1.7,9.4-5.1c1.9-3.4,2.9-8.6,3-15.6V241.5z"/>
			<path d="M402.7,296.3H385v-68.2l-21.1,6.5v-14.4l36.9-13.2h1.9V296.3z"/>
		</g>
		<g class="st67">
			<path d="M1051.9,712.6c0,12.3-2.6,21.7-7.6,28.3c-5.1,6.5-12.6,9.8-22.4,9.8c-9.7,0-17.1-3.2-22.3-9.6
				c-5.1-6.4-7.8-15.6-7.9-27.5v-16.4c0-12.4,2.6-21.9,7.7-28.3c5.2-6.4,12.6-9.7,22.3-9.7c9.7,0,17.1,3.2,22.3,9.6
				c5.1,6.4,7.8,15.6,7.9,27.5V712.6z M1034.2,694.6c0-7.4-1-12.8-3-16.1c-2-3.4-5.2-5.1-9.5-5.1c-4.2,0-7.2,1.6-9.2,4.8
				c-2,3.2-3,8.2-3.2,15v21.7c0,7.3,1,12.7,3,16.2c2,3.5,5.2,5.3,9.5,5.3c4.3,0,7.4-1.7,9.4-5.1c1.9-3.4,2.9-8.6,3-15.6V694.6z"/>
			<path d="M1124.9,749.4h-61.1v-12.1l28.8-30.7c4-4.3,6.9-8.1,8.8-11.3c1.9-3.2,2.8-6.3,2.8-9.2c0-4-1-7.1-3-9.3
				c-2-2.3-4.9-3.4-8.6-3.4c-4,0-7.2,1.4-9.5,4.1c-2.3,2.8-3.5,6.4-3.5,10.9h-17.7c0-5.4,1.3-10.4,3.9-14.9c2.6-4.5,6.3-8,11-10.6
				c4.7-2.5,10.1-3.8,16.1-3.8c9.2,0,16.3,2.2,21.4,6.6c5.1,4.4,7.6,10.6,7.6,18.7c0,4.4-1.1,8.9-3.4,13.5c-2.3,4.6-6.2,9.9-11.8,16
				l-20.3,21.4h38.3V749.4z"/>
		</g>
		<g class="st67">
			<path d="M2475.8,712.6c0,12.3-2.5,21.7-7.6,28.3c-5.1,6.5-12.6,9.8-22.4,9.8c-9.7,0-17.1-3.2-22.3-9.6
				c-5.1-6.4-7.8-15.6-7.9-27.5v-16.4c0-12.4,2.6-21.9,7.7-28.3c5.2-6.4,12.6-9.7,22.3-9.7c9.7,0,17.1,3.2,22.3,9.6
				c5.1,6.4,7.8,15.6,7.9,27.5V712.6z M2458.1,694.6c0-7.4-1-12.8-3-16.1c-2-3.4-5.2-5.1-9.5-5.1c-4.2,0-7.2,1.6-9.2,4.8
				c-2,3.2-3,8.2-3.2,15v21.7c0,7.3,1,12.7,3,16.2c2,3.5,5.2,5.3,9.5,5.3c4.3,0,7.4-1.7,9.4-5.1c1.9-3.4,2.9-8.6,3-15.6V694.6z"/>
			<path d="M2505.8,697h9.4c4.5,0,7.8-1.1,10-3.4c2.2-2.2,3.2-5.2,3.2-8.9c0-3.6-1.1-6.4-3.2-8.4s-5.1-3-8.8-3
				c-3.4,0-6.2,0.9-8.5,2.8s-3.4,4.3-3.4,7.3h-17.7c0-4.7,1.3-8.8,3.8-12.5c2.5-3.7,6-6.6,10.5-8.7c4.5-2.1,9.5-3.1,14.9-3.1
				c9.4,0,16.8,2.3,22.2,6.8c5.3,4.5,8,10.7,8,18.6c0,4.1-1.2,7.8-3.7,11.3c-2.5,3.4-5.8,6.1-9.8,7.9c5,1.8,8.8,4.5,11.2,8.1
				c2.5,3.6,3.7,7.8,3.7,12.7c0,7.9-2.9,14.3-8.7,19c-5.8,4.8-13.4,7.2-22.9,7.2c-8.9,0-16.2-2.3-21.8-7c-5.7-4.7-8.5-10.9-8.5-18.6
				h17.7c0,3.3,1.3,6.1,3.8,8.2c2.5,2.1,5.6,3.2,9.3,3.2c4.2,0,7.5-1.1,9.9-3.3c2.4-2.2,3.6-5.2,3.6-8.8c0-8.9-4.9-13.3-14.7-13.3
				h-9.4V697z"/>
		</g>
		<g class="st67">
			<path d="M3216.3,259.5c0,12.3-2.5,21.7-7.6,28.3c-5.1,6.5-12.6,9.8-22.4,9.8c-9.7,0-17.1-3.2-22.3-9.6
				c-5.1-6.4-7.8-15.6-7.9-27.5V244c0-12.4,2.6-21.9,7.7-28.3c5.2-6.4,12.6-9.7,22.3-9.7c9.7,0,17.1,3.2,22.3,9.6
				c5.1,6.4,7.8,15.6,7.9,27.5V259.5z M3198.6,241.5c0-7.4-1-12.8-3-16.1c-2-3.4-5.2-5.1-9.5-5.1c-4.2,0-7.2,1.6-9.2,4.8
				c-2,3.2-3,8.2-3.2,15v21.7c0,7.3,1,12.7,3,16.2c2,3.5,5.2,5.3,9.5,5.3c4.3,0,7.4-1.7,9.4-5.1c1.9-3.4,2.9-8.6,3-15.6V241.5z"/>
			<path d="M3280.5,262.8h10.1v14.3h-10.1v19.3h-17.7v-19.3h-36.5l-0.8-11.1l37.1-58.7h17.9V262.8z M3243.2,262.8h19.7v-31.5l-1.2,2
				L3243.2,262.8z"/>
		</g>
	</g>
</g>
</svg>
