<?xml version="1.0" encoding="utf-8"?>
<!-- Generator: Adobe Illustrator 25.1.0, SVG Export Plug-In . SVG Version: 6.00 Build 0)  -->
<svg version="1.1" id="Capa_1" xmlns="http://www.w3.org/2000/svg" xmlns:xlink="http://www.w3.org/1999/xlink" x="0px" y="0px"
	 viewBox="0 0 512 512" style="enable-background:new 0 0 512 512;" xml:space="preserve">
<style type="text/css">
	.st0{fill:url(#SVGID_1_);}
	.st1{fill:url(#SVGID_2_);}
</style>
<g>
	<g>
		<g>
			<linearGradient id="SVGID_1_" gradientUnits="userSpaceOnUse" x1="0" y1="256.0012" x2="512.007" y2="256.0012">
				<stop  offset="0" style="stop-color:#0DA23E"/>
				<stop  offset="0.43" style="stop-color:#186E5E"/>
				<stop  offset="0.81" style="stop-color:#204876"/>
				<stop  offset="1" style="stop-color:#23397F"/>
			</linearGradient>
			<path class="st0" d="M510.3,215.6c-1.2-3.2-3.1-6.1-5.6-8.6l-72.9-74.2c-5.5-5.6-13.2-8.4-21.1-7.5l-28.6,3.3
				c-6.8,0.8-12.8,4.2-17.1,9.5c-4.2,5.3-6.1,12-5.3,18.8c1.6,14,14.3,24,28.3,22.4l16.2-1.9l23,23.4c2.9,3,7.7,3,10.6,0.1
				s3-7.7,0.1-10.6l-25.6-26c-1.6-1.7-3.9-2.5-6.2-2.2l-19.9,2.3c-5.7,0.7-11-3.5-11.6-9.2c-0.3-2.8,0.5-5.5,2.2-7.7
				c1.7-2.2,4.2-3.6,7-3.9l28.6-3.3c3.2-0.4,6.4,0.7,8.7,3.1l68.3,69.5H22.6l68.3-69.5c2.3-2.3,5.4-3.4,8.7-3.1l28.6,3.3
				c2.8,0.3,5.3,1.7,7,3.9c1.7,2.2,2.5,4.9,2.2,7.7c-0.7,5.7-5.9,9.9-11.6,9.2l-19.9-2.3c-2.3-0.3-4.6,0.5-6.2,2.2l-25.6,26
				c-2.9,3-2.9,7.7,0.1,10.6c3,2.9,7.7,2.9,10.6-0.1l23-23.4l16.2,1.9c14,1.6,26.6-8.4,28.3-22.4c0.8-6.8-1.1-13.4-5.3-18.8
				c-4.2-5.3-10.3-8.7-17.1-9.5l-28.6-3.3c-7.9-0.9-15.6,1.8-21.1,7.5L7.3,207c-2.4,2.5-4.3,5.4-5.6,8.6c-1.1,1.3-1.7,3-1.7,4.8
				v63.9c0,23.5,14,44.7,35.7,53.9l60.2,25.6c3.8,1.6,8.2-0.2,9.9-4s-0.2-8.2-4-9.9l-60.2-25.6C25.4,317.5,15,301.8,15,284.3V228
				H497v56.3c0,17.5-10.4,33.2-26.5,40.1L368,367.9c-27.4,10.3-57.8-0.7-72.4-26.1l-5.9-10.4c-6.9-12-19.8-19.5-33.8-19.5h-0.5
				c-13.5,0-26.1,7.3-32.9,19l-6.2,10.8c-14.6,25.4-45,36.3-72.4,26.1l-15.8-6.7c-3.8-1.6-8.2,0.2-9.9,4c-1.6,3.8,0.2,8.2,4,9.9
				l16,6.8c0.1,0,0.2,0.1,0.3,0.1c34.4,13,72.6-0.8,90.9-32.6l6.2-10.8c4.1-7.1,11.7-11.5,19.8-11.5h0.5c8.6,0,16.5,4.6,20.7,12
				l5.9,10.4c13.7,23.8,38.4,37.5,64.4,37.5c8.8,0,17.8-1.6,26.5-4.9c0.1,0,0.2-0.1,0.3-0.1l102.6-43.6C498,329,512,307.8,512,284.3
				v-63.9C512,218.6,511.3,216.9,510.3,215.6z"/>
			<linearGradient id="SVGID_2_" gradientUnits="userSpaceOnUse" x1="-1.5" y1="256.0014" x2="513.5068" y2="256.0014">
				<stop  offset="0" style="stop-color:#0DA23E"/>
				<stop  offset="0.43" style="stop-color:#186E5E"/>
				<stop  offset="0.81" style="stop-color:#204876"/>
				<stop  offset="1" style="stop-color:#23397F"/>
			</linearGradient>
			<path class="st1" d="M347,388.3c-27,0-52.2-14.6-65.7-38.2l-5.9-10.4c-4-6.9-11.4-11.2-19.4-11.2h-0.5c-7.6,0-14.7,4.1-18.5,10.7
				l-6.2,10.8c-13.9,24.3-39.2,38.2-65.7,38.2c-9,0-18.1-1.6-27-5c-0.1,0-0.2-0.1-0.3-0.1l-16-6.8c-4.6-1.9-6.7-7.2-4.8-11.8
				c0.9-2.2,2.7-3.9,4.9-4.8c2.2-0.9,4.7-0.9,6.9,0.1l15.8,6.7c26.6,10,56.3-0.7,70.5-25.5l6.2-10.8c7-12.2,20.1-19.8,34.2-19.8h0.5
				c14.5,0,27.9,7.8,35.1,20.3l5.9,10.4c14.2,24.7,43.9,35.4,70.6,25.4L469.9,323c15.5-6.6,25.6-21.8,25.6-38.7v-54.8H16.5v54.8
				c0,16.9,10,32.1,25.6,38.7l60.2,25.6c4.6,1.9,6.7,7.2,4.8,11.8c-0.9,2.2-2.7,3.9-4.9,4.8c-2.2,0.9-4.7,0.9-6.9-0.1l-60.2-25.6
				c-22.2-9.4-36.6-31.1-36.6-55.3v-63.9c0-2,0.7-4,1.9-5.6c1.3-3.3,3.3-6.4,5.8-8.9l72.9-74.1c5.9-6,14-8.9,22.3-7.9l28.6,3.3
				c7.2,0.8,13.6,4.4,18.1,10.1c4.5,5.7,6.5,12.7,5.7,19.9c-1.7,14.8-15.1,25.4-29.9,23.7l-15.5-1.8l-22.5,22.9
				c-3.5,3.5-9.2,3.6-12.7,0.1c-1.7-1.7-2.7-3.9-2.7-6.4c0-2.4,0.9-4.7,2.6-6.4l25.6-26c2-2,4.7-3,7.5-2.6l19.9,2.3
				c2.4,0.3,4.7-0.4,6.6-1.9c1.9-1.5,3.1-3.6,3.3-6c0.3-2.4-0.4-4.7-1.9-6.6c-1.5-1.9-3.6-3.1-6-3.3l-28.6-3.3
				c-2.8-0.3-5.5,0.6-7.4,2.6l-65.8,67h459.7l-65.8-67c-2-2-4.7-3-7.4-2.6l-28.6,3.3c-2.4,0.3-4.5,1.5-6,3.3
				c-1.5,1.9-2.2,4.2-1.9,6.6c0.6,4.9,5,8.4,10,7.9l19.8-2.3c2.7-0.3,5.5,0.7,7.5,2.6l25.6,26c3.5,3.5,3.4,9.3-0.1,12.7
				c-3.5,3.5-9.3,3.4-12.7-0.1l-22.5-22.9l-15.5,1.8c-14.8,1.7-28.2-8.9-29.9-23.7c-0.8-7.2,1.2-14.2,5.7-19.9
				c4.5-5.7,10.9-9.2,18.1-10.1l28.6-3.3c8.3-1,16.5,1.9,22.4,7.9l72.9,74.2c2.5,2.5,4.5,5.5,5.8,8.9c1.2,1.6,1.9,3.6,1.9,5.6v63.9
				c0,24.1-14.4,45.8-36.6,55.3l-102.6,43.6c-0.1,0-0.2,0.1-0.3,0.1C365.3,386.6,356.2,388.3,347,388.3z M255.5,325.5h0.5
				c9.1,0,17.5,4.9,22,12.7l5.9,10.4c13,22.6,37.2,36.7,63.1,36.7c8.8,0,17.6-1.6,25.9-4.8l0.2-0.1l102.6-43.6
				c21.1-9,34.7-29.6,34.7-52.5v-63.9c0-1.4-0.5-2.8-1.4-3.9l-0.2-0.2l-0.1-0.2c-1.2-3.1-3-5.8-5.2-8.1l-72.9-74.2
				c-5.2-5.3-12.5-7.9-19.9-7l-28.6,3.3c-6.4,0.7-12.1,3.9-16.1,8.9c-4,5-5.8,11.3-5,17.7c1.5,13.1,13.5,22.6,26.6,21.1l16.9-2
				l23.5,23.9c2.3,2.4,6.1,2.4,8.5,0.1c2.4-2.3,2.4-6.1,0.1-8.5l-25.6-26c-1.3-1.3-3.2-2-5-1.8l-19.9,2.3c-6.6,0.7-12.5-4-13.3-10.5
				c-0.4-3.2,0.5-6.3,2.5-8.8c2-2.5,4.8-4.1,8-4.5l28.6-3.3c3.7-0.4,7.3,0.9,9.9,3.5l70.8,72.1H19l70.8-72.1
				c2.6-2.7,6.2-3.9,9.9-3.5l28.6,3.3c3.2,0.4,6,2,8,4.5c2,2.5,2.9,5.6,2.5,8.8c-0.4,3.2-2,6-4.5,8c-2.5,2-5.6,2.9-8.8,2.5
				l-19.9-2.3c-1.9-0.2-3.7,0.4-5,1.8l-25.6,26c-1.1,1.1-1.7,2.7-1.7,4.3c0,1.6,0.7,3.1,1.8,4.2c2.4,2.3,6.2,2.3,8.5-0.1l23.5-23.9
				l16.9,2c13.1,1.5,25.1-8,26.6-21.1c0.7-6.4-1-12.6-5-17.7c-4-5-9.7-8.2-16.1-8.9l-28.6-3.3c-7.4-0.9-14.6,1.7-19.9,7L8.4,208.1
				c-2.3,2.3-4.1,5.1-5.3,8.1l-0.1,0.2l-0.2,0.2c-0.9,1.1-1.4,2.5-1.4,3.9v63.9c0,22.9,13.6,43.5,34.7,52.5l60.2,25.6
				c1.5,0.6,3.1,0.6,4.6,0c1.5-0.6,2.7-1.7,3.3-3.2c1.3-3.1-0.1-6.6-3.2-7.9l-60.2-25.6c-16.7-7.1-27.4-23.3-27.4-41.4v-57.8h484.9
				v57.8c0,18.1-10.8,34.4-27.4,41.4l-102.5,43.5c-28.1,10.5-59.4-0.7-74.3-26.7l-5.9-10.4c-6.6-11.6-19.1-18.8-32.5-18.8h-0.5
				c-13,0-25.1,7-31.6,18.3l-6.2,10.8c-14.9,26-46.1,37.3-74.2,26.7l-15.9-6.7c-1.5-0.6-3.1-0.6-4.6,0c-1.5,0.6-2.7,1.7-3.3,3.2
				c-1.3,3.1,0.1,6.6,3.2,7.9l16,6.8c0.1,0,0.1,0.1,0.2,0.1c33.7,12.7,71.1-0.7,89.1-32l6.2-10.8
				C238.7,330.2,246.8,325.5,255.5,325.5z"/>
		</g>
	</g>
</g>
</svg>
