<?xml version="1.0" encoding="utf-8"?>
<!-- Generator: Adobe Illustrator 25.1.0, SVG Export Plug-In . SVG Version: 6.00 Build 0)  -->
<svg version="1.1" id="Layer_5" xmlns="http://www.w3.org/2000/svg" xmlns:xlink="http://www.w3.org/1999/xlink" x="0px" y="0px"
	 viewBox="0 0 512 512" style="enable-background:new 0 0 512 512;" xml:space="preserve">
<style type="text/css">
	.st0{fill:url(#SVGID_1_);}
	.st1{fill:url(#SVGID_2_);}
	.st2{fill:url(#SVGID_3_);}
	.st3{fill:url(#SVGID_4_);}
	.st4{fill:url(#SVGID_5_);}
	.st5{fill:url(#SVGID_6_);}
	.st6{fill:url(#SVGID_7_);}
	.st7{fill:url(#SVGID_8_);}
	.st8{fill:url(#SVGID_9_);}
	.st9{fill:url(#SVGID_10_);}
	.st10{fill-rule:evenodd;clip-rule:evenodd;fill:url(#SVGID_11_);}
</style>
<linearGradient id="SVGID_1_" gradientUnits="userSpaceOnUse" x1="8" y1="256" x2="504" y2="256">
	<stop  offset="0" style="stop-color:#0DA23E"/>
	<stop  offset="0.43" style="stop-color:#186E5E"/>
	<stop  offset="0.81" style="stop-color:#204876"/>
	<stop  offset="1" style="stop-color:#23397F"/>
</linearGradient>
<path class="st0" d="M504,177.8l-19.3-4.8l10.2-17.1L480,140.9V8H256v128h-18.8c1.8-7.8,2.8-15.8,2.8-24C240,54.7,193.3,8,136,8
	S32,54.7,32,112.2c0,8.9,1.2,17.6,3.4,26C19.5,143.6,8,158.6,8,176v192c0,22.1,17.9,40,40,40h104v16h-30.1
	c-9.2,0-17.4,5.1-21.5,13.3L88,462.1V504h224v-41.9l-12.4-24.8c-4.1-8.2-12.3-13.3-21.5-13.3H248v-16h104c22.1,0,40-17.9,40-40v-56
	h38.2l4.8-19.3l17.1,10.2l42.8-42.8l-10.2-17.1l19.3-4.8L504,177.8z M272,24h192v100.9l-11.8-11.8l-17.1,10.2l-4.8-19.3h-60.5
	l-4.8,19.3l-17.1-10.2L324.9,136H272L272,24z M308.9,152l-3.8,3.8l11.4,19l-14.6,9L256,184l0,16l104.4-0.2l1.9-5.3
	c6.8-18.9,26.2-29.6,46-25.6c15.2,3.1,27.5,15.3,30.7,30.5c2.5,12.2-0.4,24.5-8,33.9S412.1,248,400,248c-16.9,0-32.1-10.7-37.7-26.7
	l-1.9-5.3H280c-13.2,0-24,10.8-24,24v48c0,4.4-3.6,8-8,8s-8-3.6-8-8v-16c0-13.2-10.8-24-24-24s-24,10.8-24,24v16c0,4.4-3.6,8-8,8
	h-32c-4.4,0-8-3.6-8-8v-8.7c22.7-3.8,40-23.5,40-47.3v-20.7l25.5-25.5c9.8-9.8,17.4-21.3,22.6-33.8H308.9z M104,216h64v16
	c0,17.6-14.4,32-32,32s-32-14.4-32-32V216z M112,120H96c-8.8,0-16-7.2-16-16s7.2-16,16-16s16,7.2,16,16V120z M144,200h-16v-64h16
	V200z M136,24c48.5,0,88,39.5,88,88.2c0,23.5-9.2,45.6-25.8,62.2L172.7,200H160v-64h16c17.6,0,32-14.4,32-32s-14.4-32-32-32
	s-32,14.4-32,32v16h-16v-16c0-17.6-14.4-32-32-32s-32,14.4-32,32s14.4,32,32,32h16v64H99.3l-25.5-25.5C57.2,157.8,48,135.7,48,112
	C48,63.5,87.5,24,136,24z M160,120v-16c0-8.8,7.2-16,16-16s16,7.2,16,16s-7.2,16-16,16H160z M121.9,440H152v16h-43.1l5.8-11.6
	C116.1,441.7,118.8,440,121.9,440z M104,488v-16h192v16H104z M278.1,440c3.1,0,5.8,1.7,7.2,4.4l5.8,11.6H248v-16H278.1z M232,456
	h-64v-48h64V456z M352,392H48c-13.2,0-24-10.8-24-24v-24h96v8c0,13.2,10.8,24,24,24h112c13.2,0,24-10.8,24-24v-8h96v24
	C376,381.2,365.2,392,352,392z M264,344v8c0,4.4-3.6,8-8,8h-24v-16H264z M216,360h-32v-16h32V360z M168,360h-24c-4.4,0-8-3.6-8-8v-8
	h32V360z M376,328H24V176c0-10.5,6.9-19.5,16.5-22.7c5.1,12,12.5,23,22,32.5L88,211.3V232c0,23.7,17.3,43.4,40,47.3v8.7
	c0,13.2,10.8,24,24,24h32c13.2,0,24-10.8,24-24v-16c0-4.4,3.6-8,8-8s8,3.6,8,8v16c0,13.2,10.8,24,24,24s24-10.8,24-24v-48
	c0-4.4,3.6-8,8-8h21.7l14.8,9.1l-11.4,19l42.8,42.8l17.1-10.2l4.8,19.3h6.2L376,328z M488,225.8l-15.6,3.9l-4.3,1.6l-3.7,9.1
	l10.4,17.3l-25.1,25.1l-17.3-10.4l-9.8,4l-4.9,19.6h-35.5l-3.9-15.6l-1.6-4.3l-9.1-3.7l-17.3,10.4l-25.1-25.1l10.4-17.3l-3.4-8.4
	l0,0h17.3c9.2,19.4,28.8,32,50.6,32c16.9,0,32.8-7.5,43.5-20.7c10.7-13.2,14.8-30.4,11.3-47.3c-4.4-21.3-21.8-38.6-43.2-42.9
	c-25.9-5.2-51.1,7.6-62.1,30.6l-17.7,0l0.6-0.5l3.2-7.8l-10.4-17.3l25.1-25.1l17.3,10.4l9.8-4l4.9-19.6h35.5l4.9,19.6l9.8,4
	l17.3-10.4l25.1,25.1l-10.4,17.3l4,9.8l19.6,4.9V225.8z"/>
<linearGradient id="SVGID_2_" gradientUnits="userSpaceOnUse" x1="224" y1="192" x2="240" y2="192">
	<stop  offset="0" style="stop-color:#0DA23E"/>
	<stop  offset="0.43" style="stop-color:#186E5E"/>
	<stop  offset="0.81" style="stop-color:#204876"/>
	<stop  offset="1" style="stop-color:#23397F"/>
</linearGradient>
<path class="st1" d="M224,184h16v16h-16V184z"/>
<linearGradient id="SVGID_3_" gradientUnits="userSpaceOnUse" x1="288" y1="48" x2="304" y2="48">
	<stop  offset="0" style="stop-color:#0DA23E"/>
	<stop  offset="0.43" style="stop-color:#186E5E"/>
	<stop  offset="0.81" style="stop-color:#204876"/>
	<stop  offset="1" style="stop-color:#23397F"/>
</linearGradient>
<path class="st2" d="M288,40h16v16h-16V40z"/>
<linearGradient id="SVGID_4_" gradientUnits="userSpaceOnUse" x1="320" y1="48" x2="448" y2="48">
	<stop  offset="0" style="stop-color:#0DA23E"/>
	<stop  offset="0.43" style="stop-color:#186E5E"/>
	<stop  offset="0.81" style="stop-color:#204876"/>
	<stop  offset="1" style="stop-color:#23397F"/>
</linearGradient>
<path class="st3" d="M320,40h128v16H320V40z"/>
<linearGradient id="SVGID_5_" gradientUnits="userSpaceOnUse" x1="288" y1="80" x2="448" y2="80">
	<stop  offset="0" style="stop-color:#0DA23E"/>
	<stop  offset="0.43" style="stop-color:#186E5E"/>
	<stop  offset="0.81" style="stop-color:#204876"/>
	<stop  offset="1" style="stop-color:#23397F"/>
</linearGradient>
<path class="st4" d="M288,72h160v16H288V72z"/>
<linearGradient id="SVGID_6_" gradientUnits="userSpaceOnUse" x1="288" y1="112" x2="304" y2="112">
	<stop  offset="0" style="stop-color:#0DA23E"/>
	<stop  offset="0.43" style="stop-color:#186E5E"/>
	<stop  offset="0.81" style="stop-color:#204876"/>
	<stop  offset="1" style="stop-color:#23397F"/>
</linearGradient>
<path class="st5" d="M288,104h16v16h-16V104z"/>
<linearGradient id="SVGID_7_" gradientUnits="userSpaceOnUse" x1="320" y1="112" x2="336" y2="112">
	<stop  offset="0" style="stop-color:#0DA23E"/>
	<stop  offset="0.43" style="stop-color:#186E5E"/>
	<stop  offset="0.81" style="stop-color:#204876"/>
	<stop  offset="1" style="stop-color:#23397F"/>
</linearGradient>
<path class="st6" d="M320,104h16v16h-16V104z"/>
<linearGradient id="SVGID_8_" gradientUnits="userSpaceOnUse" x1="40" y1="272" x2="56" y2="272">
	<stop  offset="0" style="stop-color:#0DA23E"/>
	<stop  offset="0.43" style="stop-color:#186E5E"/>
	<stop  offset="0.81" style="stop-color:#204876"/>
	<stop  offset="1" style="stop-color:#23397F"/>
</linearGradient>
<path class="st7" d="M40,264h16v16H40V264z"/>
<linearGradient id="SVGID_9_" gradientUnits="userSpaceOnUse" x1="40" y1="240" x2="56" y2="240">
	<stop  offset="0" style="stop-color:#0DA23E"/>
	<stop  offset="0.43" style="stop-color:#186E5E"/>
	<stop  offset="0.81" style="stop-color:#204876"/>
	<stop  offset="1" style="stop-color:#23397F"/>
</linearGradient>
<path class="st8" d="M40,232h16v16H40V232z"/>
<linearGradient id="SVGID_10_" gradientUnits="userSpaceOnUse" x1="40" y1="304" x2="56" y2="304">
	<stop  offset="0" style="stop-color:#0DA23E"/>
	<stop  offset="0.43" style="stop-color:#186E5E"/>
	<stop  offset="0.81" style="stop-color:#204876"/>
	<stop  offset="1" style="stop-color:#23397F"/>
</linearGradient>
<path class="st9" d="M40,296h16v16H40V296z"/>
<linearGradient id="SVGID_11_" gradientUnits="userSpaceOnUse" x1="665.0071" y1="8.3509" x2="867.2803" y2="358.7289" gradientTransform="matrix(1 0 0 -1 0 512)">
	<stop  offset="0" style="stop-color:#0DA23E"/>
	<stop  offset="0.43" style="stop-color:#186E5E"/>
	<stop  offset="0.81" style="stop-color:#204876"/>
	<stop  offset="1" style="stop-color:#23397F"/>
</linearGradient>
<path class="st10" d="M958.3,330.5c0.1,10.3-2.9,20.4-8.6,28.9l0,0c-1.9,2.9-4.1,5.5-6.6,7.8l0,0c-3.1,3.2-6.6,5.9-10.4,8.2l0,0
	l-2.6,1.4c-14.7,7-31.9,7-46.6,0l0,0c-5.1-2.5-9.7-5.8-13.7-9.9l0,0c-2.4-2.4-4.5-4.9-6.4-7.7l0,0c-3.8-5.6-6.4-11.9-7.5-18.5h-10.8
	c-2,16.3-9.2,31.5-20.4,43.5l0,0c-0.3,0.4-0.6,0.7-1,1l-2.3,0.1l0,0c-2.4,2.6-5,4.9-7.8,7.1l0,0l8.1,13.7c4.4-1.3,9.1-2,13.7-1.9
	l0,0c7-0.1,13.9,1.5,20.2,4.7c4.4,2.2,8.4,5.1,11.8,8.6c1.8,1.7,3.4,3.5,4.8,5.5l1,1.1l0,0c11.8,18,9.3,41.8-5.9,57l0,0
	c-2.7,2.6-5.7,5-8.9,7l0,0c-6.9,3.9-14.6,5.9-22.5,5.9l0,0c-12.1,0-23.7-4.9-32-13.7c-8.7-8.3-13.7-19.9-13.7-32
	c0-8.9,2.6-17.7,7.5-25.1l0,0l0.8-1.2c1.4-2,3-3.8,4.8-5.5l1.1-1.2l-8.1-13.7c-9.6,3.9-19.8,5.9-30.2,5.8l0,0
	c-10.4,0.1-20.7-1.9-30.3-5.8l0,0l-22.2,37.8l0,0l0,0c1.3,1.5,2.6,3,3.7,4.7l0,0c4.3,6.4,6.6,14,6.4,21.7l0,0v2.9
	c-0.6,9.5-4.7,18.5-11.5,25.1l0,0c-12.8,12.6-32.3,15.1-47.9,6.3l0,0c-3-1.8-5.8-3.9-8.2-6.4l0,0c-6.5-6.3-10.6-14.8-11.4-23.9v-0.7
	c0.1-1.1,0.1-2.1,0-3.2l0,0c-0.1-4.7,0.7-9.3,2.2-13.7c1-3.1,2.5-6,4.3-8.6l0,0c1.3-2,2.8-3.8,4.5-5.5l0,0l0,0
	c2.5-2.5,5.3-4.6,8.4-6.3c1-0.6,2-1.1,3-1.5l0,0c1.9-0.8,3.8-1.5,5.8-2.1c3.4-0.9,6.9-1.4,10.4-1.4c3.5,0,6.9,0.4,10.3,1.4l0,0l0,0
	l0,0l21.9-37.6c-2.7-2.1-5.3-4.4-7.7-6.9l-1.4-1.2l0,0l0,0l0,0l0,0c-11.6-11.9-18.9-27.3-20.8-43.7h-25.8
	c-1.2,5.3-3.4,10.3-6.4,14.8l0,0c-1.6,2.4-3.5,4.6-5.5,6.6l0,0l0,0c-2.8,2.6-5.8,5-9.1,7l0,0l0,0l0,0l-1.5,0.8l0,0l0,0
	c-13,6.3-28.1,6.3-41.1,0l0,0c-4.2-2.1-8.1-4.9-11.4-8.2l0,0l0,0c-2-2.1-3.8-4.3-5.5-6.6l0,0c-5-7.4-7.6-16.2-7.5-25.1
	c-0.1-12.1,4.9-23.6,13.7-31.8l0,0c2.7-2.8,5.8-5.2,9.1-7.3l0,0c6.9-4,14.7-6,22.6-5.9l0,0c12.1-0.1,23.7,4.9,32,13.7
	c6.1,5.8,10.4,13.4,12.2,21.7h25.8c2.2-16.2,9.5-31.2,20.8-42.9l0,0l1.9-1.9l0,0c2.4-2.3,4.9-4.5,7.5-6.6l0,0l-8.1-13.7l0,0
	c-4.5,1.3-9.1,2-13.7,1.9l0,0c-7,0.1-14-1.5-20.3-4.7c-4.4-2.2-8.3-5.1-11.8-8.5c-1.7-1.7-3.3-3.6-4.8-5.6l-0.8-1.1l0,0
	c-11.7-18-9.3-41.8,5.8-57l0,0c2.6-2.7,5.6-5.1,8.9-7l0,0l0,0c6.9-3.9,14.6-5.9,22.5-5.9l0,0c12.1,0,23.7,4.9,32,13.7
	c15.3,15.2,17.7,39.1,5.8,57l0,0l-1,1.2c-1.4,2-3,3.9-4.8,5.6l-1.1,1l8.1,13.7l0,0c9.6-3.9,19.8-5.9,30.2-5.9l0,0
	c10.4-0.1,20.7,1.9,30.3,5.9l0,0c8.1-13.7,16-27.4,24.1-41.1l0,0l0,0c-1.4-1.4-2.6-2.9-3.7-4.5l0,0c-4.3-6.5-6.6-14.1-6.4-21.9l0,0
	v-2.9c0.5-9.5,4.5-18.5,11.4-25.1l0,0c7.2-7.4,17.1-11.5,27.4-11.5c7-0.1,13.8,1.7,19.9,5.1l0,0c3,1.8,5.7,4,8.1,6.4l0,0
	c6.5,6.3,10.6,14.8,11.4,23.9v0.7c0,1.1,0,2.2,0,3.3l0,0c0.1,4.7-0.6,9.3-2.2,13.7c-1.1,3.1-2.5,6-4.4,8.6l0,0
	c-1.4,1.9-2.9,3.8-4.5,5.5l0,0l0,0c-2.4,2.5-5.2,4.6-8.2,6.3l-3.2,1.6l0,0c-1.9,0.8-3.8,1.5-5.8,2.1c-3.5,0.8-7,1.3-10.6,1.4
	c-3.4-0.1-6.8-0.6-10.1-1.4l0,0l0,0L813.8,269c2.6,2,5,4.1,7.3,6.4c0.8,0.7,1.5,1.4,2.2,2.2l0,0c11.5,11.9,18.8,27.3,20.7,43.7h10.8
	c1.7-10.5,6.7-20.1,14.4-27.4l0,0c3.1-3,6.5-5.7,10.1-8c8-4.6,17.1-7,26.3-6.9l0,0c13.9-0.2,27.3,5.3,36.9,15.4l0,0
	c7.1,7.2,11.9,16.3,13.7,26.2l0,0C957.2,323.9,957.9,327.2,958.3,330.5z M678.6,193.3c-9.7,9.7-9.7,25.4,0,35.1
	c9.7,9.7,25.4,9.7,35.1,0c9.7-9.7,9.7-25.4,0-35.1c-4.7-4.7-11-7.3-17.5-7.3c-6.5-0.4-12.8,1.9-17.6,6.3V193.3z M599.6,313.5
	c-4.7,4.6-7.4,11-7.3,17.6c-0.1,13.7,11,24.9,24.7,25c0.1,0,0.2,0,0.3,0c13.7,0,24.8-11.1,24.8-24.8c0-0.2,0-0.5,0-0.7
	c0-13.7-11.1-24.8-24.8-24.8c-6.6-0.3-13,2.2-17.7,6.9V313.5z M736.7,280.4c-1.9,1.1-3.7,2.3-5.5,3.7c6.4,4.9,13.7,8.3,21.5,10.1
	h3.3v-21.8c-6.7,1.1-13.1,3.4-18.9,6.7l0,0L736.7,280.4z M756.1,315.5c-2.6-0.3-5.1-0.7-7.7-1.2c-11.5-2.6-22.2-7.8-31.3-15.2
	c-4.4,6.6-7.3,14-8.6,21.8h47.6V315.5z M862.3,174.5c-3.5-3.8-8.5-5.8-13.7-5.6c-10.6-0.1-19.3,8.5-19.3,19.1c0,0,0,0.1,0,0.1
	c0.2,10.5,8.8,19,19.3,18.9c10.6-0.1,19.2-8.6,19.3-19.2C868,182.8,866,178,862.3,174.5z M795.4,279.3L795.4,279.3
	c-5.7-3.3-12-5.5-18.5-6.6v21.4h3l0,0c7.8-1.8,15.2-5.3,21.5-10.1c-1.6-1.3-3.4-2.5-5.2-3.6l0,0L795.4,279.3z M776.4,320.5h47.4
	c-1.3-7.8-4.3-15.2-8.6-21.8c-9.1,7.4-19.8,12.6-31.3,15.2c-2.5,0.6-5,1-7.5,1.2V320.5z M874.8,330.6c-0.1,8.5,3.3,16.7,9.3,22.6
	c12.5,12.3,32.6,12.3,45.1,0c12.3-12.6,12-32.9-0.6-45.2c-12.6-12.3-32.9-12-45.2,0.6c-5.7,5.9-9,13.7-9,21.9H874.8z M823.8,340.9
	h-47.4v5.5c2.5,0.3,5.1,0.8,7.5,1.4c11.4,2.5,22.1,7.7,31.1,15.1c4.3-6.8,7.2-14.5,8.2-22.5L823.8,340.9z M776.4,388.3
	c6.4-1,12.5-3.1,18.1-6.3l2.1-1.2c1.5-0.9,3-2,4.4-3.2c-6.3-4.9-13.6-8.3-21.4-10l0,0h-3L776.4,388.3z M834.9,425.5
	c-13.7-0.1-24.9,11-25,24.7c0,0.1,0,0.2,0,0.3c0,13.7,11.1,24.8,24.8,24.8c0,0,0.1,0,0.1,0c13.7,0,24.8-11.1,24.8-24.8
	c0.1-13.7-11-24.9-24.7-25C835,425.5,835,425.5,834.9,425.5z M755.2,345.8v-5.5h-47.6c1.3,7.9,4.3,15.3,8.8,21.9
	c9-7.5,19.7-12.6,31.1-15.1c2.6-0.6,5.2-1.1,7.8-1.4H755.2z M755.2,387.8v-21.3h-3.3c-7.8,1.8-15.1,5.2-21.5,10
	c1.5,1.2,3,2.3,4.7,3.3h1.1c5.8,3.9,12.3,6.6,19.2,8H755.2z M703.8,469.2c-0.1-10.6-8.6-19.2-19.2-19.3c-5.2-0.1-10.2,2-13.7,5.8
	c-3.7,3.6-5.7,8.6-5.6,13.7c-0.1,5.1,2,10.1,5.6,13.7c3.6,3.7,8.6,5.7,13.7,5.6c10.6,0,19.2-8.6,19.2-19.2l0,0V469.2z"/>
</svg>
