<?xml version="1.0" encoding="utf-8"?>
<!-- Generator: Adobe Illustrator 25.1.0, SVG Export Plug-In . SVG Version: 6.00 Build 0)  -->
<svg version="1.1" id="Smart_control" xmlns="http://www.w3.org/2000/svg" xmlns:xlink="http://www.w3.org/1999/xlink" x="0px"
	 y="0px" viewBox="0 0 512 512" style="enable-background:new 0 0 512 512;" xml:space="preserve">
<style type="text/css">
	.st0{fill-rule:evenodd;clip-rule:evenodd;fill:#343434;}
	.st1{fill-rule:evenodd;clip-rule:evenodd;fill:url(#SVGID_1_);}
	.st2{fill-rule:evenodd;clip-rule:evenodd;fill:#0DA23E;}
	.st3{fill-rule:evenodd;clip-rule:evenodd;fill:#D21216;}
	.st4{fill-rule:evenodd;clip-rule:evenodd;fill:#23397F;}
	.st5{fill-rule:evenodd;clip-rule:evenodd;fill:#F9AF1B;}
</style>
<g>
	<path class="st0" d="M144.3,66L144.3,66z M186.1,192.2L186.1,192.2L186.1,192.2z M210.5,151.1c-0.4,0.5-0.8,0.9-1.3,1.2
		L210.5,151.1z M342.7,132.3L342.7,132.3L342.7,132.3z M396.9,314L396.9,314z M300.6,363.6c0.5-0.4,0.9-0.8,1.3-1.3l-1.3,1.5V363.6z
		 M122.3,288.1L122.3,288.1z M124.5,459.1L124.5,459.1z"/>
	
		<linearGradient id="SVGID_1_" gradientUnits="userSpaceOnUse" x1="134.5337" y1="44.9726" x2="378.2726" y2="467.1777" gradientTransform="matrix(1 0 0 -1 0 512)">
		<stop  offset="0" style="stop-color:#0DA23E"/>
		<stop  offset="0.43" style="stop-color:#186E5E"/>
		<stop  offset="0.81" style="stop-color:#204876"/>
		<stop  offset="1" style="stop-color:#23397F"/>
	</linearGradient>
	<path class="st1" d="M488,258.3c0.2,12.4-3.5,24.6-10.4,34.9l0,0c-2.3,3.4-4.9,6.6-7.9,9.4l0,0c-3.8,3.8-8,7.2-12.6,9.9l0,0
		l-3.1,1.7c-17.8,8.5-38.4,8.5-56.2,0l0,0c-6.1-3-11.7-7-16.5-11.9l0,0c-2.9-2.8-5.5-5.9-7.8-9.3l0,0c-4.6-6.7-7.7-14.3-9.1-22.3
		h-13.1c-2.4,19.6-11.1,38-24.6,52.4l0,0c-0.3,0.4-0.7,0.8-1.2,1.2l-2.8,0.2l0,0c-2.9,3.1-6.1,5.9-9.4,8.6l0,0l9.7,16.5
		c5.4-1.6,10.9-2.4,16.5-2.3l0,0c8.4-0.1,16.8,1.8,24.3,5.6c5.3,2.6,10.1,6.1,14.2,10.4c2.1,2,4.1,4.2,5.8,6.6l1.2,1.3l0,0
		c14.2,21.7,11.2,50.4-7.1,68.7l0,0c-3.3,3.2-6.9,6-10.7,8.4l0,0c-8.3,4.7-17.6,7.1-27.1,7.1l0,0c-14.6,0-28.5-5.9-38.5-16.5
		c-10.5-10-16.5-24-16.5-38.5c-0.1-10.8,3.1-21.3,9.1-30.2l0,0l1-1.5c1.7-2.4,3.6-4.6,5.8-6.6l1.3-1.5l-9.7-16.5
		c-11.5,4.7-23.9,7-36.4,6.9l0,0c-12.5,0.1-24.9-2.2-36.5-6.9l0,0l-26.8,45.6l0,0l0,0c1.6,1.8,3.1,3.6,4.5,5.6l0,0
		c5.2,7.7,7.9,16.8,7.8,26.1l0,0v3.5c-0.7,11.5-5.6,22.2-13.9,30.2l0,0c-15.4,15.1-38.9,18.2-57.7,7.6l0,0c-3.7-2.1-7-4.7-9.9-7.8
		l0,0c-7.9-7.6-12.8-17.8-13.7-28.8v-0.8c0.1-1.3,0.1-2.5,0-3.8l0,0c-0.1-5.6,0.8-11.2,2.6-16.5c1.2-3.7,3-7.2,5.1-10.4l0,0
		c1.5-2.4,3.4-4.6,5.5-6.6l0,0l0,0c3-3,6.4-5.5,10.1-7.6c1.2-0.7,2.4-1.3,3.6-1.8l0,0c2.3-1,4.6-1.8,6.9-2.5
		c4.1-1.1,8.3-1.7,12.6-1.7c4.2-0.1,8.4,0.5,12.4,1.7l0,0l0,0l0,0l26.4-45.3c-3.2-2.6-6.3-5.3-9.3-8.3l-1.7-1.5l0,0l0,0l0,0l0,0
		c-13.9-14.3-22.7-32.9-25.1-52.7h-31.1c-1.4,6.4-4,12.5-7.8,17.8l0,0c-2,2.8-4.2,5.5-6.6,7.9l0,0l0,0c-3.3,3.2-7,6-10.9,8.4l0,0
		l0,0l0,0l-1.8,1l0,0l0,0c-15.7,7.5-33.9,7.5-49.6,0l0,0c-5.1-2.5-9.7-5.9-13.7-9.9l0,0l0,0c-2.4-2.5-4.6-5.1-6.6-7.9l0,0
		c-6-8.9-9.1-19.5-9.1-30.2c-0.1-14.5,5.9-28.4,16.5-38.3l0,0c3.3-3.3,6.9-6.3,10.9-8.8l0,0c8.3-4.8,17.7-7.3,27.3-7.1l0,0
		c14.6-0.1,28.5,5.9,38.5,16.5c7.4,7,12.5,16.1,14.7,26.1H161c2.6-19.5,11.4-37.6,25.1-51.7l0,0l2.3-2.3l0,0
		c2.9-2.8,5.9-5.5,9.1-7.9l0,0l-9.7-16.5l0,0c-5.4,1.6-10.9,2.4-16.5,2.3l0,0c-8.5,0.1-16.9-1.8-24.5-5.6c-5.3-2.6-10-6.1-14.2-10.2
		c-2.1-2.1-4-4.4-5.8-6.8l-1-1.3l0,0c-14.2-21.7-11.3-50.3,6.9-68.7l0,0c3.2-3.3,6.8-6.1,10.7-8.4l0,0l0,0
		c8.3-4.7,17.6-7.1,27.1-7.1l0,0c14.6,0,28.5,5.9,38.5,16.5c18.4,18.3,21.3,47.1,6.9,68.7l0,0l-1.2,1.5c-1.7,2.4-3.6,4.7-5.8,6.8
		l-1.3,1.2l9.7,16.5l0,0c11.5-4.7,23.9-7.2,36.4-7.1l0,0c12.5-0.1,24.9,2.3,36.5,7.1l0,0c9.7-16.5,19.3-33,29.1-49.6l0,0l0,0
		c-1.7-1.7-3.2-3.5-4.5-5.5l0,0c-5.2-7.8-7.9-17-7.8-26.4l0,0v-3.5c0.6-11.5,5.5-22.3,13.7-30.2l0,0c8.7-8.9,20.6-13.9,33-13.9
		c8.4-0.1,16.6,2,24,6.1l0,0c3.6,2.2,6.9,4.8,9.7,7.8l0,0c7.9,7.6,12.8,17.8,13.7,28.8v0.8c0,1.3,0,2.6,0,4l0,0
		c0.1,5.6-0.8,11.2-2.6,16.5c-1.3,3.7-3.1,7.2-5.3,10.4l0,0c-1.6,2.3-3.5,4.6-5.5,6.6l0,0l0,0c-2.9,3-6.3,5.5-9.9,7.6l-3.8,2l0,0
		c-2.2,1-4.6,1.8-6.9,2.5c-4.2,1-8.4,1.5-12.7,1.7c-4.1-0.1-8.2-0.7-12.2-1.7l0,0l0,0l-28.6,49.6c3.1,2.4,6,5,8.8,7.8
		c1,0.8,1.8,1.7,2.6,2.6l0,0c13.9,14.4,22.6,32.9,25,52.7h13.1c2-12.6,8.1-24.2,17.4-33l0,0c3.7-3.7,7.8-6.9,12.2-9.6
		c9.6-5.5,20.6-8.4,31.7-8.3l0,0c16.7-0.3,32.9,6.4,44.5,18.5l0,0c8.5,8.6,14.3,19.6,16.5,31.6l0,0
		C486.7,250.4,487.5,254.4,488,258.3z M150.9,93.1c-11.7,11.7-11.7,30.6,0,42.3c11.7,11.7,30.6,11.7,42.3,0
		c11.7-11.7,11.7-30.6,0-42.3c-5.6-5.6-13.2-8.8-21.1-8.8c-7.8-0.4-15.4,2.3-21.2,7.6V93.1z M55.7,237.9c-5.7,5.5-8.9,13.2-8.8,21.2
		c-0.1,16.5,13.2,30,29.7,30.1c0.1,0,0.2,0,0.3,0c16.5,0,29.9-13.4,29.9-29.9c0-0.3,0-0.6,0-0.8c0-16.5-13.4-29.9-29.9-29.9
		c-7.9-0.3-15.7,2.7-21.3,8.3V237.9z M221,198c-2.3,1.3-4.5,2.8-6.6,4.5c7.7,5.9,16.5,10,25.9,12.2h4v-26.3
		c-8,1.3-15.7,4.1-22.8,8.1l0,0L221,198z M244.3,240.3c-3.1-0.3-6.2-0.8-9.3-1.5c-13.8-3.1-26.7-9.4-37.7-18.3
		c-5.3,7.9-8.8,16.9-10.4,26.3h57.3V240.3z M372.3,70.5c-4.3-4.5-10.3-7-16.5-6.8c-12.8-0.1-23.2,10.2-23.3,23c0,0.1,0,0.1,0,0.2
		c0.2,12.7,10.6,22.9,23.3,22.8c12.8-0.1,23.1-10.4,23.3-23.1C379.2,80.4,376.7,74.6,372.3,70.5z M291.7,196.7L291.7,196.7
		c-6.9-4-14.5-6.7-22.3-7.9v25.8h3.6l0,0c9.4-2.2,18.3-6.4,25.9-12.2c-2-1.6-4.1-3-6.3-4.3l0,0L291.7,196.7z M268.7,246.3h57.2
		c-1.6-9.4-5.1-18.3-10.4-26.3c-11,8.9-23.9,15.2-37.7,18.3c-3,0.7-6,1.2-9.1,1.5V246.3z M387.4,258.5c-0.1,10.2,3.9,20.1,11.2,27.3
		c15.1,14.8,39.3,14.8,54.4,0c14.8-15.2,14.5-39.6-0.8-54.4c-15.2-14.8-39.6-14.5-54.4,0.8c-6.9,7.1-10.8,16.5-10.9,26.4H387.4z
		 M325.9,270.9h-57.2v6.6c3.1,0.4,6.1,0.9,9.1,1.7c13.8,3,26.6,9.2,37.5,18.2c5.2-8.2,8.6-17.5,9.9-27.1L325.9,270.9z M268.7,328.1
		c7.7-1.2,15.1-3.8,21.8-7.6l2.5-1.5c1.9-1.1,3.6-2.4,5.3-3.8c-7.6-5.8-16.4-10-25.8-12.1l0,0h-3.6L268.7,328.1z M339.3,372.9
		c-16.5-0.1-30,13.2-30.1,29.7c0,0.1,0,0.2,0,0.3c0,16.5,13.4,29.9,29.9,29.9c0.1,0,0.1,0,0.2,0c16.5,0,29.9-13.4,29.9-29.9
		c0.1-16.5-13.2-30-29.7-30.1C339.4,372.9,339.3,372.9,339.3,372.9z M243.3,276.9v-6.6h-57.3c1.6,9.5,5.2,18.5,10.6,26.4
		c10.9-9,23.7-15.2,37.5-18.2c3.1-0.7,6.2-1.3,9.4-1.7H243.3z M243.3,327.4v-25.6h-4c-9.4,2.1-18.3,6.2-25.9,12.1
		c1.8,1.4,3.7,2.8,5.6,4h1.3c7,4.7,14.8,8,23.1,9.6H243.3z M181.3,425.6c-0.1-12.8-10.4-23.1-23.1-23.3c-6.2-0.2-12.3,2.4-16.5,6.9
		c-4.5,4.3-6.9,10.3-6.8,16.5c-0.1,6.2,2.4,12.2,6.8,16.5c4.3,4.5,10.3,6.9,16.5,6.8c12.8,0,23.1-10.4,23.1-23.1l0,0V425.6z"/>
	<path class="st2" d="M77,241.8c9.1,0,16.5,7.4,16.5,16.5c0.1,4.4-1.7,8.7-4.8,11.9c-6.3,6.6-16.7,6.9-23.4,0.6
		c-0.2-0.2-0.4-0.4-0.6-0.6c-3.1-3.2-4.9-7.4-4.8-11.9c0-9.1,7.4-16.5,16.5-16.5H77z"/>
	<path class="st3" d="M155.4,113.1c0.1-9.1,7.7-16.4,16.8-16.3c9.1,0.1,16.4,7.7,16.3,16.8c-0.1,9.1-7.7,16.4-16.8,16.3
		c-4.3-0.1-8.4-1.8-11.5-4.9C157,121.8,155.3,117.5,155.4,113.1z"/>
	<path class="st4" d="M442.9,240.2c4.8,4.6,7.5,11,7.4,17.7c0.1,6.7-2.6,13.2-7.4,17.8c-9.8,9.7-25.7,9.7-35.5,0
		c-4.8-4.7-7.5-11.1-7.4-17.8c0-13.9,11.2-25.1,25.1-25.1C431.7,232.7,438.2,235.4,442.9,240.2L442.9,240.2z"/>
	<path class="st5" d="M339.3,386.1c4.5,0,8.8,1.8,11.9,5c3.1,3.2,4.9,7.4,4.8,11.9c0,9.1-7.4,16.5-16.5,16.5s-16.5-7.4-16.5-16.5
		s7.4-16.5,16.5-16.5L339.3,386.1z"/>
</g>
</svg>
