<?xml version="1.0" encoding="utf-8"?>
<!-- Generator: Adobe Illustrator 25.1.0, SVG Export Plug-In . SVG Version: 6.00 Build 0)  -->
<svg version="1.1" id="Layer_1" xmlns="http://www.w3.org/2000/svg" xmlns:xlink="http://www.w3.org/1999/xlink" x="0px" y="0px"
	 viewBox="0 0 512 512" style="enable-background:new 0 0 512 512;" xml:space="preserve">
<style type="text/css">
	.st0{fill:url(#SVGID_1_);}
	.st1{fill:url(#SVGID_2_);}
	.st2{fill:url(#SVGID_3_);}
	.st3{fill:url(#SVGID_4_);}
	.st4{fill:url(#SVGID_5_);}
	.st5{fill:url(#SVGID_6_);}
	.st6{fill:url(#SVGID_7_);}
	.st7{fill:url(#SVGID_8_);}
	.st8{fill:url(#SVGID_9_);}
	.st9{fill:url(#SVGID_10_);}
	.st10{fill-rule:evenodd;clip-rule:evenodd;fill:#343434;}
</style>
<g id="outline">
	<linearGradient id="SVGID_1_" gradientUnits="userSpaceOnUse" x1="21.181" y1="77.2514" x2="120.8" y2="77.2514">
		<stop  offset="0" style="stop-color:#0DA23E"/>
		<stop  offset="0.43" style="stop-color:#186E5E"/>
		<stop  offset="0.81" style="stop-color:#204876"/>
		<stop  offset="1" style="stop-color:#23397F"/>
	</linearGradient>
	<path class="st0" d="M21.2,92.4l13.3,8.9C52.3,74.7,85.5,63,116,72.5l4.8-15.3C83.5,45.6,42.9,59.9,21.2,92.4z"/>
	<linearGradient id="SVGID_2_" gradientUnits="userSpaceOnUse" x1="130.387" y1="84.5955" x2="169.852" y2="84.5955">
		<stop  offset="0" style="stop-color:#0DA23E"/>
		<stop  offset="0.43" style="stop-color:#186E5E"/>
		<stop  offset="0.81" style="stop-color:#204876"/>
		<stop  offset="1" style="stop-color:#23397F"/>
	</linearGradient>
	<path class="st1" d="M138.4,65l-8,13.8c10.6,6.1,19.4,14.8,25.8,25.3l13.7-8.2C162.1,83.1,151.3,72.5,138.4,65z"/>
	<linearGradient id="SVGID_3_" gradientUnits="userSpaceOnUse" x1="47.807" y1="105.8835" x2="74.4" y2="105.8835">
		<stop  offset="0" style="stop-color:#0DA23E"/>
		<stop  offset="0.43" style="stop-color:#186E5E"/>
		<stop  offset="0.81" style="stop-color:#204876"/>
		<stop  offset="1" style="stop-color:#23397F"/>
	</linearGradient>
	<path class="st2" d="M47.8,110.2l13.3,8.9c3.4-5.1,8-9.4,13.3-12.5l-8-13.8C58.9,97,52.6,103,47.8,110.2z"/>
	<linearGradient id="SVGID_4_" gradientUnits="userSpaceOnUse" x1="85.072" y1="102.9365" x2="142.412" y2="102.9365">
		<stop  offset="0" style="stop-color:#0DA23E"/>
		<stop  offset="0.43" style="stop-color:#186E5E"/>
		<stop  offset="0.81" style="stop-color:#204876"/>
		<stop  offset="1" style="stop-color:#23397F"/>
	</linearGradient>
	<path class="st3" d="M85.1,86l2.7,15.8c2.2-0.4,4.4-0.6,6.7-0.6c14.1-0.1,27.1,7.3,34.3,19.4l13.7-8.2
		C130.5,92.7,107.8,82.2,85.1,86z"/>
	<linearGradient id="SVGID_5_" gradientUnits="userSpaceOnUse" x1="74.43" y1="127.1718" x2="114.955" y2="127.1718">
		<stop  offset="0" style="stop-color:#0DA23E"/>
		<stop  offset="0.43" style="stop-color:#186E5E"/>
		<stop  offset="0.81" style="stop-color:#204876"/>
		<stop  offset="1" style="stop-color:#23397F"/>
	</linearGradient>
	<path class="st4" d="M74.4,127.9l13.3,8.9c2.4-3.7,7.4-4.7,11.1-2.2c1,0.7,1.8,1.5,2.4,2.6l13.7-8.2c-6.8-11.4-21.5-15.1-32.9-8.2
		C79,122.5,76.4,124.9,74.4,127.9L74.4,127.9z"/>
	<linearGradient id="SVGID_6_" gradientUnits="userSpaceOnUse" x1="16" y1="312" x2="496" y2="312">
		<stop  offset="0" style="stop-color:#0DA23E"/>
		<stop  offset="0.43" style="stop-color:#186E5E"/>
		<stop  offset="0.81" style="stop-color:#204876"/>
		<stop  offset="1" style="stop-color:#23397F"/>
	</linearGradient>
	<path class="st5" d="M488,424V256c0-4.4-3.6-8-8-8c-1.1,0-2.1,0.2-3.1,0.6l-20.9,8.7V200c0-4.4-3.6-8-8-8h-24
		c-3.9,0-7.2,2.8-7.9,6.7l-13.5,80.9L392,284v-28c0-4.4-3.6-8-8-8c-1.1,0-2.1,0.2-3.1,0.6l-20.9,8.7V200c0-4.4-3.6-8-8-8h-8v-11.7
		c0-11.2-9.1-20.3-20.3-20.3c-4,0-7.9,1.2-11.3,3.4c-3.7,2.4-4.7,7.4-2.3,11.1c2.4,3.7,7.4,4.7,11.1,2.3c0,0,0.1,0,0.1-0.1
		c2-1.3,4.6-0.8,5.9,1.2c0.5,0.7,0.7,1.5,0.7,2.4V192c-3.9,0-7.2,2.8-7.9,6.7l-13.5,80.9L296,284v-28c0-4.4-3.6-8-8-8
		c-1.1,0-2.1,0.2-3.1,0.6l-20.9,8.7V200c0-4.4-3.6-8-8-8h-8v-11.7c0-8.5-5.3-16-13.2-19c-4.1-1.5-8.7,0.6-10.3,4.7s0.6,8.7,4.7,10.3
		l0,0c1.7,0.6,2.8,2.2,2.8,4V192c-3.9,0-7.2,2.8-7.9,6.7l-13.5,80.9l-21.7,9c-3,1.2-4.9,4.2-4.9,7.4v128h-24v-32c4.4,0,8-3.6,8-8
		V280c0-7.9-2.9-15.6-8.2-21.4l7.2-12.4c1.7-3,1.3-6.7-0.9-9.3L154.6,224l11.4-12.8c2.3-2.6,2.7-6.3,0.9-9.3l-16-27.7
		c-1.7-3-5.2-4.5-8.5-3.8l-16.8,3.4l-5.4-16.3c-1.1-3.3-4.1-5.5-7.6-5.5h-32c-3.4,0-6.5,2.2-7.6,5.5l-5.4,16.3l-16.8-3.4
		c-3.4-0.7-6.8,0.9-8.5,3.8l-16,27.7c-1.7,3-1.3,6.7,0.9,9.3L38.5,224l-11.4,12.8c-2.3,2.6-2.7,6.3-0.9,9.3l6.7,11.7
		c-5.7,6-8.9,13.9-9,22.2v104c0,4.4,3.6,8,8,8v32h-8c-4.4,0-8,3.6-8,8v32c0,4.4,3.6,8,8,8h464c4.4,0,8-3.6,8-8v-32
		C496,427.6,492.4,424,488,424z M430.8,208h9.2v16h-11.9L430.8,208z M425.4,240H440v24l-19.9,8.3L425.4,240z M392,301.3l80-33.3
		v14.7L392,316V301.3z M392,333.3l80-33.3v44h-80V333.3z M392,360h80v64h-16v-24c0-13.3-10.7-24-24-24s-24,10.7-24,24v24h-16V360z
		 M440,400v24h-16v-24c0-4.4,3.6-8,8-8S440,395.6,440,400z M334.8,208h9.2v16h-11.9L334.8,208z M329.4,240H344v24l-19.9,8.3
		L329.4,240z M296,301.3l80-33.3v14.7L296,316V301.3z M296,333.3l80-33.3v44h-80V333.3z M296,360h80v64h-16v-24
		c0-13.3-10.7-24-24-24s-24,10.7-24,24v24h-16V360z M344,400v24h-16v-24c0-4.4,3.6-8,8-8S344,395.6,344,400z M238.8,208h9.2v16
		h-11.9L238.8,208z M233.4,240H248v24l-19.9,8.3L233.4,240z M200,301.3l80-33.3v14.7L200,316V301.3z M200,333.3l80-33.3v44h-80
		V333.3z M200,360h80v64h-16v-24c0-13.3-10.7-24-24-24s-24,10.7-24,24v24h-16V360z M248,400v24h-16v-24c0-4.4,3.6-8,8-8
		S248,395.6,248,400z M152,280v96h-32v-85.1c0.1-0.1,0.1-0.3,0.2-0.4l5.4-16.3l16.8,3.4c3.3,0.7,6.7-0.8,8.4-3.7
		C151.6,275.9,152,277.9,152,280z M133.3,392H144v8L133.3,392z M144,420v4h-16v-16L144,420z M56.6,224l0-0.6c0-2-0.7-3.9-2-5.4
		L43,204.9l10.2-17.7l17.1,3.5c2,0.4,4,0.1,5.7-1c0.4-0.2,0.7-0.4,1.1-0.6c1.7-1,3.1-2.6,3.7-4.5l5.5-16.6h20.5l5.5,16.6
		c0.6,1.9,1.9,3.5,3.7,4.5c0.4,0.2,0.7,0.4,1.1,0.6c1.7,1,3.8,1.4,5.7,1l17.1-3.5l10.2,17.7L138.6,218c-1.3,1.5-2,3.4-2,5.4l0,0.6
		l0,0.6c0,2,0.7,3.9,2,5.4l11.6,13.1L140,260.9l-17.1-3.5c-2-0.4-4-0.1-5.7,1c-0.4,0.2-0.7,0.4-1.1,0.6c-1.7,1-3.1,2.6-3.7,4.5
		l-5.5,16.6H86.3l-5.5-16.6c-0.6-1.9-1.9-3.5-3.7-4.5c-0.4-0.2-0.7-0.4-1.1-0.6c-1.7-1-3.8-1.4-5.7-1l-17.1,3.5L43,243.1L54.6,230
		c1.3-1.5,2-3.4,2-5.4L56.6,224z M104,320v16H88v-16H104z M88,304v-8h16v8H88z M104,352v8H88v-8H104z M104,376v8c0,4.4,3.6,8,8,8v32
		H80v-32c4.4,0,8-3.6,8-8v-8H104z M40,280c0-2.5,0.6-4.9,1.7-7.1l0.5,0.9c1.7,3,5.2,4.5,8.5,3.8l16.8-3.4l4.5,13.4
		c0,0.1,0,0.2,0,0.4v88H40V280z M53.3,392H64v8L53.3,392z M64,420v4H48v-16L64,420z M480,456H32v-16h448V456z"/>
	<linearGradient id="SVGID_7_" gradientUnits="userSpaceOnUse" x1="359.999" y1="174.14" x2="440" y2="174.14">
		<stop  offset="0" style="stop-color:#0DA23E"/>
		<stop  offset="0.43" style="stop-color:#186E5E"/>
		<stop  offset="0.81" style="stop-color:#204876"/>
		<stop  offset="1" style="stop-color:#23397F"/>
	</linearGradient>
	<path class="st6" d="M363.6,174.7l3.1,2.1c15.3,10.3,35.3,10.3,50.7,0c2-1.3,4.6-0.8,5.9,1.2c0.5,0.7,0.7,1.5,0.7,2.4
		c0,4.4,3.6,8,8,8s8-3.6,8-8c0-11.2-9.1-20.3-20.3-20.3c-4,0-7.9,1.2-11.2,3.4c-10,6.7-23,6.7-32.9,0l-3.1-2.1
		c-3.7-2.5-8.6-1.5-11.1,2.2C358.9,167.2,359.9,172.2,363.6,174.7z"/>
	<linearGradient id="SVGID_8_" gradientUnits="userSpaceOnUse" x1="263.999" y1="172.196" x2="304" y2="172.196">
		<stop  offset="0" style="stop-color:#0DA23E"/>
		<stop  offset="0.43" style="stop-color:#186E5E"/>
		<stop  offset="0.81" style="stop-color:#204876"/>
		<stop  offset="1" style="stop-color:#23397F"/>
	</linearGradient>
	<path class="st7" d="M267.6,174.7l3.1,2.1c7.5,5,16.3,7.7,25.3,7.7c4.4,0,8-3.6,8-8s-3.6-8-8-8c-5.9,0-11.6-1.7-16.5-5l-3.1-2.1
		c-3.7-2.5-8.6-1.5-11.1,2.2C262.9,167.2,263.9,172.2,267.6,174.7L267.6,174.7z"/>
	<linearGradient id="SVGID_9_" gradientUnits="userSpaceOnUse" x1="167.999" y1="172.1895" x2="216.002" y2="172.1895">
		<stop  offset="0" style="stop-color:#0DA23E"/>
		<stop  offset="0.43" style="stop-color:#186E5E"/>
		<stop  offset="0.81" style="stop-color:#204876"/>
		<stop  offset="1" style="stop-color:#23397F"/>
	</linearGradient>
	<path class="st8" d="M180.4,161.3c-3.7-2.5-8.6-1.5-11.1,2.2s-1.5,8.6,2.2,11.1l3.1,2.1c7.5,5,16.4,7.7,25.4,7.7
		c3.2,0,6.5-0.3,9.6-1c4.3-0.9,7.1-5.2,6.1-9.5s-5.2-7.1-9.5-6.1l0,0c-7.9,1.7-16.1,0.1-22.8-4.3L180.4,161.3z"/>
	<linearGradient id="SVGID_10_" gradientUnits="userSpaceOnUse" x1="72.574" y1="224" x2="120.574" y2="224">
		<stop  offset="0" style="stop-color:#0DA23E"/>
		<stop  offset="0.43" style="stop-color:#186E5E"/>
		<stop  offset="0.81" style="stop-color:#204876"/>
		<stop  offset="1" style="stop-color:#23397F"/>
	</linearGradient>
	<path class="st9" d="M96.6,248c13.3,0,24-10.7,24-24s-10.7-24-24-24s-24,10.7-24,24C72.6,237.2,83.3,248,96.6,248z M96.6,216
		c4.4,0,8,3.6,8,8s-3.6,8-8,8s-8-3.6-8-8C88.6,219.6,92.2,216,96.6,216z"/>
</g>
<path class="st10" d="M810.3,69.5L810.3,69.5z M845,174.3L845,174.3L845,174.3z M865.3,140.1c-0.3,0.4-0.7,0.7-1.1,1L865.3,140.1z
	 M975,124.5L975,124.5L975,124.5z M1020,275.3L1020,275.3z M940.1,316.5c0.4-0.3,0.8-0.7,1.1-1.1l-1.1,1.2V316.5z M792.1,253.8
	L792.1,253.8z M793.9,395.7L793.9,395.7z"/>
</svg>
