<svg xmlns="http://www.w3.org/2000/svg" width="800" height="360" viewBox="0 0 800 360">
  <defs>
    <style>
      .cls-1 {
        fill: none;
        stroke: #696969;
        stroke-width: 4px;
        stroke-dasharray: 16 8;
      }

      .cls-1, .cls-2, .cls-3, .cls-5 {
        fill-rule: evenodd;
      }

      .cls-2 {
        fill: #6a944a;
      }

      .cls-3 {
        fill: #af3333;
      }

      .cls-4, .cls-6 {
        font-size: 36px;
        font-family: "YiSunShin Dotum B";
      }

      .cls-4 {
        fill: #fff;
      }

      .cls-5, .cls-6 {
        fill: #696969;
      }
    </style>
  </defs>
  <path id="모양_1" data-name="모양 1" class="cls-1" d="M349.549,60.775S460.219,35.347,494.193,31.48,567.43,44.3,567.43,44.3"/>
  <path id="모양_1_복사_4" data-name="모양 1 복사 4" class="cls-1" d="M429.2,147.744s110.669-25.428,144.643-29.295,73.237,12.817,73.237,12.817"/>
  <path id="모양_1_복사_5" data-name="모양 1 복사 5" class="cls-1" d="M409.055,237.717S519.724,263.145,553.7,267.012,626.935,254.2,626.935,254.2"/>
  <path id="모양_1_복사_2" data-name="모양 1 복사 2" class="cls-2" d="M139.889,104.945h3.887V255.138h-3.887V104.945Zm0,70.307v-4.078h38.22v4.078h-38.22Zm0,80.873v-4.078h38.22v4.078h-38.22Z"/>
  <path id="모양_1_복사_3" data-name="모양 1 복사 3" class="cls-3" d="M307.021,107.663h3.886V257.856h-3.886V107.663Zm0,70.307v-4.077h38.22v4.077h-38.22Zm0,80.873v-4.077h38.22v4.077h-38.22Z"/>
  <path id="모서리가_둥근_직사각형_1" data-name="모서리가 둥근 직사각형 1" class="cls-2" d="M104.049,52.479H235.015a10,10,0,0,1,10,10V97.922a10,10,0,0,1-10,10H104.049a10,10,0,0,1-10-10V62.479A10,10,0,0,1,104.049,52.479Z"/>
  <path id="모서리가_둥근_직사각형_1_복사" data-name="모서리가 둥근 직사각형 1 복사" class="cls-2" d="M179.775,143.453h84.992a10,10,0,0,1,10,10V188.9a10,10,0,0,1-10,10H179.775a10,10,0,0,1-10-10V153.453A10,10,0,0,1,179.775,143.453Z"/>
  <path id="모서리가_둥근_직사각형_1_복사_2" data-name="모서리가 둥근 직사각형 1 복사 2" class="cls-2" d="M179.718,215.946h84.964a10,10,0,0,1,10,10v35.472a10,10,0,0,1-10,10H179.718a10,10,0,0,1-10-10V225.946A10,10,0,0,1,179.718,215.946Z"/>
  <path id="모서리가_둥근_직사각형_1_복사_3" data-name="모서리가 둥근 직사각형 1 복사 3" class="cls-3" d="M276.357,52.479H407.322a10,10,0,0,1,10,10V97.922a10,10,0,0,1-10,10H276.357a10,10,0,0,1-10-10V62.479A10,10,0,0,1,276.357,52.479Z"/>
  <path id="모서리가_둥근_직사각형_1_복사_3-2" data-name="모서리가 둥근 직사각형 1 복사 3" class="cls-2" d="M352.083,143.453h84.992a10,10,0,0,1,10,10V188.9a10,10,0,0,1-10,10H352.083a10,10,0,0,1-10-10V153.453A10,10,0,0,1,352.083,143.453Z"/>
  <path id="모서리가_둥근_직사각형_1_복사_3-3" data-name="모서리가 둥근 직사각형 1 복사 3" class="cls-3" d="M352.025,215.946h84.964a10,10,0,0,1,10,10v35.472a10,10,0,0,1-10,10H352.025a10,10,0,0,1-10-10V225.946A10,10,0,0,1,352.025,215.946Z"/>
  <text id="Assembly_A" data-name="Assembly A" class="cls-4" transform="matrix(0.648, 0, 0, 0.68, 106.852, 85.916)">Assembly A</text>
  <text id="Part_A" data-name="Part A" class="cls-4" transform="matrix(0.648, 0, 0, 0.68, 186.53, 178.342)">Part A</text>
  <path id="모양_1_복사" data-name="모양 1 복사" class="cls-5" d="M571.073,89.382h3.887V239.575h-3.887V89.382Zm0,70.307v-4.077h38.22v4.077h-38.22Zm0,80.873v-4.077h38.22v4.077h-38.22Zm-0.01-2.061H574.4v75.312h-3.338V238.5Zm0.434,75.228v-3.337h34.951v3.337H571.5Z"/>
  <path id="모서리가_둥근_직사각형_1-2" data-name="모서리가 둥근 직사각형 1" class="cls-5" d="M535.233,36.916H666.2a10,10,0,0,1,10,10V82.359a10,10,0,0,1-10,10H535.233a10,10,0,0,1-10-10V46.916A10,10,0,0,1,535.233,36.916Z"/>
  <path id="모서리가_둥근_직사각형_1_복사-2" data-name="모서리가 둥근 직사각형 1 복사" class="cls-5" d="M610.959,127.89h84.992a10,10,0,0,1,10,10v35.443a10,10,0,0,1-10,10H610.959a10,10,0,0,1-10-10V137.89A10,10,0,0,1,610.959,127.89Z"/>
  <path id="모서리가_둥근_직사각형_1_복사_2-2" data-name="모서리가 둥근 직사각형 1 복사 2" class="cls-5" d="M610.9,200.383h84.963a10,10,0,0,1,10,10v35.472a10,10,0,0,1-10,10H610.9a10,10,0,0,1-10-10V210.383A10,10,0,0,1,610.9,200.383Z"/>
  <path id="모서리가_둥근_직사각형_1_복사_4" data-name="모서리가 둥근 직사각형 1 복사 4" class="cls-5" d="M610.9,273.621h84.963a10,10,0,0,1,10,10v35.471a10,10,0,0,1-10,10H610.9a10,10,0,0,1-10-10V283.621A10,10,0,0,1,610.9,273.621Z"/>
  <text id="Assembly_A-2" data-name="Assembly A" class="cls-4" transform="matrix(0.648, 0, 0, 0.68, 538.035, 70.353)">Assembly A</text>
  <text id="Part_A-2" data-name="Part A" class="cls-4" transform="matrix(0.648, 0, 0, 0.68, 617.714, 162.779)">Part A</text>
  <text id="Part_B" data-name="Part B" class="cls-4" transform="matrix(0.648, 0, 0, 0.68, 618.63, 236.016)">Part B</text>
  <text id="Part_C" data-name="Part C" class="cls-4" transform="matrix(0.648, 0, 0, 0.68, 618.63, 310.169)">Part C</text>
  <text id="Part_A_복사_2" data-name="Part A 복사 2" class="cls-4" transform="matrix(0.648, 0, 0, 0.68, 360.14, 178.342)">Part A</text>
  <text id="Part_B-2" data-name="Part B" class="cls-4" transform="matrix(0.648, 0, 0, 0.68, 189.77, 250.38)">Part B</text>
  <text id="Part_B-3" data-name="Part B" class="cls-4" transform="matrix(0.648, 0, 0, 0.68, 361.436, 248.341)">Part B</text>
  <text id="Assembly_A-3" data-name="Assembly A" class="cls-4" transform="matrix(0.648, 0, 0, 0.68, 279.166, 85.916)">Assembly A</text>
  <text id="v1" class="cls-6" transform="translate(94.042 319.504) rotate(0.618) scale(0.878)">v1</text>
  <text id="v2" class="cls-6" transform="translate(249.671 319.504) rotate(0.618) scale(0.878)">v2</text>
</svg>
