<svg height="480pt" viewBox="0 0 480 480" width="480pt" xmlns="http://www.w3.org/2000/svg"><path d="m440 224c0 119.292969-96.707031 216-216 216s-216-96.707031-216-216 96.707031-216 216-216 216 96.707031 216 216zm0 0" fill="#ff5023"/><path d="m408 224c0 101.621094-82.378906 184-184 184s-184-82.378906-184-184 82.378906-184 184-184 184 82.378906 184 184zm0 0" fill="#78b9eb"/><path d="m201.363281 224 22.640625-22.640625 22.636719 22.640625-22.636719 22.640625zm0 0" fill="#ff5023"/><path d="m445.28125 381.359375c-2.101562 8.398437-5.445312 16.433594-9.921875 23.839844l15.121094 22.722656-22.558594 22.558594-22.722656-15.121094c-7.40625 4.476563-15.441407 7.820313-23.839844 9.921875l-5.359375 26.71875h-32l-5.359375-26.71875c-8.398437-2.101562-16.433594-5.445312-23.839844-9.921875l-22.722656 15.121094-22.558594-22.558594 15.121094-22.722656c-1.257813-2.046875-2.402344-4.15625-3.441406-6.320313-2.792969-5.585937-4.964844-11.460937-6.480469-17.519531l-26.71875-5.359375v-32l26.71875-5.359375c2.101562-8.398437 5.445312-16.433594 9.921875-23.839844l-15.121094-22.722656 22.558594-22.558594 22.722656 15.121094c7.40625-4.476563 15.441407-7.820313 23.839844-9.921875l5.359375-26.71875h32l5.359375 26.71875c6.058594 1.515625 11.933594 3.6875 17.519531 6.480469 2.164063 1.039062 4.273438 2.183593 6.320313 3.441406l22.722656-15.121094 22.558594 22.558594-15.121094 22.722656c4.476563 7.40625 7.820313 15.441407 9.921875 23.839844l26.71875 5.359375v32zm0 0" fill="#ff9811"/><path d="m414.320312 326.160156c-16.875-27.085937-51.128906-37.601562-80.292968-24.648437-29.167969 12.949219-44.335938 45.410156-35.558594 76.09375 8.777344 30.679687 38.816406 50.210937 70.417969 45.777343 31.605469-4.433593 55.113281-31.46875 55.113281-63.382812.019531-11.964844-3.335938-23.695312-9.679688-33.839844zm0 0" fill="#ffd422"/><path d="m216 64h16v16h-16zm0 0"/><path d="m105.210938 116.519531 11.3125-11.3125 11.3125 11.3125-11.3125 11.3125zm0 0"/><path d="m64 216h16v16h-16zm0 0"/><path d="m105.210938 331.480469 11.3125-11.316407 11.3125 11.316407-11.3125 11.3125zm0 0"/><path d="m216 368h16v16h-16zm0 0"/><path d="m368 216h16v16h-16zm0 0"/><path d="m320.167969 116.515625 11.316406-11.308594 11.308594 11.316407-11.316407 11.308593zm0 0"/><path d="m252.289062 218.34375-20.289062-20.289062v-94.054688h-16v94.054688l-17.945312 17.945312h-78.054688v16h78.054688l20.289062 20.289062c3.125 3.121094 8.1875 3.121094 11.3125 0l22.632812-22.632812c3.121094-3.125 3.121094-8.1875 0-11.3125zm-28.289062 16.976562-11.320312-11.320312 11.320312-11.320312 11.320312 11.320312zm0 0"/><path d="m224 400c-97.203125 0-176-78.796875-176-176s78.796875-176 176-176 176 78.796875 176 176c-.003906 7.679688-.5 15.351562-1.488281 22.96875l15.863281 2.0625c10.425781-79.261719-29.359375-156.6875-99.867188-194.367188-70.511718-37.679687-156.988281-27.726562-217.09375 24.988282-60.101562 52.714844-81.253906 137.152344-53.09375 211.976562 28.160157 74.820313 99.734376 124.363282 179.679688 124.371094 8.371094.003906 16.730469-.53125 25.03125-1.601562l-2.0625-15.871094c-7.617188.988281-15.289062 1.480468-22.96875 1.472656zm0 0"/><path d="m224 432c-114.875 0-208-93.125-208-208s93.125-208 208-208 208 93.125 208 208c0 7.722656-.425781 15.441406-1.273438 23.121094l15.90625 1.757812c.910157-8.261718 1.367188-16.566406 1.367188-24.878906 0-123.710938-100.289062-224-224-224s-224 100.289062-224 224 100.289062 224 224 224c8.3125-.003906 16.617188-.457031 24.878906-1.359375l-1.757812-15.914063c-7.679688.851563-15.398438 1.277344-23.121094 1.273438zm0 0"/><path d="m473.601562 336.160156-21.898437-4.382812c-1.773437-5.75-4.078125-11.320313-6.886719-16.640625l12.382813-18.585938c2.113281-3.171875 1.695312-7.390625-1-10.085937l-22.632813-22.632813c-2.695312-2.691406-6.914062-3.113281-10.085937-1l-18.625 12.367188c-5.3125-2.820313-10.882813-5.128907-16.632813-6.894531l-4.382812-21.90625c-.761719-3.722657-4.039063-6.398438-7.839844-6.398438h-32c-3.800781 0-7.078125 2.675781-7.839844 6.398438l-4.382812 21.898437c-5.75 1.765625-11.320313 4.074219-16.632813 6.894531l-18.59375-12.390625c-3.171875-2.113281-7.390625-1.695312-10.085937 1l-22.632813 22.632813c-2.691406 2.695312-3.113281 6.914062-1 10.085937l12.367188 18.617188c-2.808594 5.320312-5.113281 10.890625-6.886719 16.640625l-21.914062 4.382812c-3.722657.761719-6.398438 4.039063-6.398438 7.839844v32c0 3.800781 2.675781 7.078125 6.398438 7.839844l21.898437 4.382812c1.773437 5.75 4.078125 11.320313 6.886719 16.640625l-12.382813 18.585938c-2.113281 3.171875-1.695312 7.390625 1 10.085937l22.632813 22.632813c2.695312 2.691406 6.914062 3.113281 10.085937 1l18.625-12.367188c5.3125 2.820313 10.882813 5.128907 16.632813 6.894531l4.382812 21.90625c.761719 3.722657 4.039063 6.398438 7.839844 6.398438h32c3.800781 0 7.078125-2.675781 7.839844-6.398438l4.382812-21.898437c5.75-1.765625 11.320313-4.074219 16.632813-6.894531l18.59375 12.390625c3.171875 2.113281 7.390625 1.695312 10.085937-1l22.632813-22.632813c2.691406-2.695312 3.113281-6.914062 1-10.085937l-12.367188-18.617188c2.808594-5.320312 5.113281-10.890625 6.886719-16.640625l21.914062-4.382812c3.722657-.761719 6.398438-4.039063 6.398438-7.839844v-32c0-3.800781-2.675781-7.078125-6.398438-7.839844zm-9.601562 33.28125-20.289062 4.0625c-3.035157.605469-5.449219 2.902344-6.199219 5.902344-1.898438 7.632812-4.925781 14.941406-8.976563 21.683594-1.589844 2.652344-1.511718 5.984375.207032 8.558594l11.464843 17.214843-13.351562 13.351563-17.207031-11.480469c-2.574219-1.714844-5.910157-1.792969-8.558594-.199219-6.742188 4.058594-14.046875 7.085938-21.683594 8.984375-3 .746094-5.300781 3.160157-5.910156 6.191407l-4.046875 20.289062h-18.898438l-4.054687-20.289062c-.605469-3.03125-2.90625-5.441407-5.902344-6.191407-7.636719-1.898437-14.941406-4.925781-21.683594-8.984375-2.648437-1.59375-5.984375-1.515625-8.558594.199219l-17.207031 11.480469-13.351562-13.351563 11.464843-17.214843c1.71875-2.574219 1.796876-5.90625.207032-8.558594-4.050782-6.742188-7.078125-14.050782-8.976563-21.683594-.75-3-3.164062-5.296875-6.199219-5.902344l-20.289062-4.0625v-18.882812l20.289062-4.0625c3.035157-.605469 5.449219-2.902344 6.199219-5.902344 1.898438-7.632812 4.925781-14.941406 8.976563-21.683594 1.589844-2.652344 1.511718-5.984375-.207032-8.558594l-11.464843-17.214843 13.351562-13.351563 17.207031 11.480469c2.574219 1.714844 5.910157 1.792969 8.558594.199219 6.742188-4.058594 14.046875-7.085938 21.683594-8.984375 2.996094-.75 5.296875-3.160157 5.902344-6.191407l4.054687-20.289062h18.898438l4.046875 20.289062c.609375 3.03125 2.910156 5.445313 5.910156 6.191407 7.636719 1.898437 14.941406 4.925781 21.683594 8.984375 2.648437 1.59375 5.984375 1.515625 8.558594-.199219l17.207031-11.480469 13.351562 13.351563-11.464843 17.214843c-1.71875 2.574219-1.796876 5.90625-.207032 8.558594 4.050782 6.742188 7.078125 14.050782 8.976563 21.683594.75 3 3.164062 5.296875 6.199219 5.902344l20.289062 4.0625zm0 0"/><path d="m360 288c-39.765625 0-72 32.234375-72 72s32.234375 72 72 72 72-32.234375 72-72c-.042969-39.746094-32.253906-71.957031-72-72zm0 128c-30.929688 0-56-25.070312-56-56s25.070312-56 56-56 56 25.070312 56 56c-.035156 30.914062-25.085938 55.964844-56 56zm0 0"/><path d="m360 336c4.417969 0 8 3.582031 8 8h16c-.042969-10.132812-6.445312-19.148438-16-22.527344v-9.472656h-16v9.472656c-11.011719 3.878906-17.621094 15.132813-15.644531 26.640625 1.980469 11.507813 11.96875 19.910157 23.644531 19.886719 4.417969 0 8 3.582031 8 8s-3.582031 8-8 8-8-3.582031-8-8h-16c.042969 10.132812 6.445312 19.148438 16 22.527344v9.472656h16v-9.472656c11.011719-3.878906 17.621094-15.132813 15.644531-26.640625-1.980469-11.507813-11.96875-19.910157-23.644531-19.886719-4.417969 0-8-3.582031-8-8s3.582031-8 8-8zm0 0"/></svg>