<?xml version="1.0" encoding="iso-8859-1"?>
<!-- Generator: Adobe Illustrator 19.0.0, SVG Export Plug-In . SVG Version: 6.00 Build 0)  -->
<svg version="1.1" id="Capa_1" xmlns="http://www.w3.org/2000/svg" xmlns:xlink="http://www.w3.org/1999/xlink" x="0px" y="0px"
	 viewBox="0 0 512.001 512.001" style="enable-background:new 0 0 512.001 512.001;" xml:space="preserve">
<path style="fill:#36474F;" d="M464.214,73.509H47.786c-8.729,0-15.805,7.076-15.805,15.805v82.883L256,209.909l224.019-37.711
	V89.315C480.019,80.586,472.943,73.509,464.214,73.509z"/>
<path style="fill:#455A64;" d="M31.98,172.198v69.951c0,8.729,7.076,15.805,15.805,15.805h416.429
	c8.729,0,15.805-7.076,15.805-15.805v-69.951H31.98z"/>
<path style="opacity:0.1;enable-background:new    ;" d="M71.98,242.149V89.315c0-8.729,7.076-15.805,15.805-15.805h-40
	c-8.729,0-15.805,7.076-15.805,15.805v152.834c0,8.729,7.076,15.805,15.805,15.805h40C79.057,257.954,71.98,250.878,71.98,242.149z"
	/>
<g>
	<path style="fill:#36474F;" d="M113.677,197.427H92.724c-3.961,0-7.172,3.211-7.172,7.172v20.953c0,3.961,3.211,7.172,7.172,7.172
		h20.953c3.961,0,7.172-3.211,7.172-7.172v-20.953C120.849,200.638,117.638,197.427,113.677,197.427z"/>
	<path style="fill:#36474F;" d="M215.543,197.427H194.59c-3.961,0-7.172,3.211-7.172,7.172v20.953c0,3.961,3.211,7.172,7.172,7.172
		h20.953c3.961,0,7.172-3.211,7.172-7.172v-20.953C222.715,200.638,219.504,197.427,215.543,197.427z"/>
	<path style="fill:#36474F;" d="M317.41,197.427h-20.953c-3.961,0-7.172,3.211-7.172,7.172v20.953c0,3.961,3.211,7.172,7.172,7.172
		h20.953c3.961,0,7.172-3.211,7.172-7.172v-20.953C324.582,200.638,321.371,197.427,317.41,197.427z"/>
	<path style="fill:#36474F;" d="M419.276,197.427h-20.953c-3.961,0-7.172,3.211-7.172,7.172v20.953c0,3.961,3.211,7.172,7.172,7.172
		h20.953c3.961,0,7.172-3.211,7.172-7.172v-20.953C426.448,200.638,423.237,197.427,419.276,197.427z"/>
</g>
<g>
	<path style="fill:#B0BEC5;" d="M35.625,403.194H14.672c-3.961,0-7.172,3.211-7.172,7.172v20.953c0,3.961,3.211,7.172,7.172,7.172
		h20.953c3.961,0,7.172-3.211,7.172-7.172v-20.953C42.797,406.405,39.586,403.194,35.625,403.194z"/>
	<path style="fill:#B0BEC5;" d="M215.543,403.194H194.59c-3.961,0-7.172,3.211-7.172,7.172v20.953c0,3.961,3.211,7.172,7.172,7.172
		h20.953c3.961,0,7.172-3.211,7.172-7.172v-20.953C222.715,406.405,219.504,403.194,215.543,403.194z"/>
	<path style="fill:#B0BEC5;" d="M317.41,403.194h-20.953c-3.961,0-7.172,3.211-7.172,7.172v20.953c0,3.961,3.211,7.172,7.172,7.172
		h20.953c3.961,0,7.172-3.211,7.172-7.172v-20.953C324.582,406.405,321.371,403.194,317.41,403.194z"/>
	<path style="fill:#B0BEC5;" d="M476.375,403.194h20.953c3.961,0,7.172,3.211,7.172,7.172v20.953c0,3.961-3.211,7.172-7.172,7.172
		h-20.953c-3.961,0-7.172-3.211-7.172-7.172v-20.953C469.203,406.405,472.414,403.194,476.375,403.194z"/>
</g>
<path d="M358.31,130.354h46.16c4.142,0,7.5-3.358,7.5-7.5s-3.358-7.5-7.5-7.5h-46.16c-4.142,0-7.5,3.358-7.5,7.5
	S354.167,130.354,358.31,130.354z"/>
<path d="M358.31,106.337h46.16c4.142,0,7.5-3.358,7.5-7.5s-3.358-7.5-7.5-7.5h-46.16c-4.142,0-7.5,3.358-7.5,7.5
	S354.167,106.337,358.31,106.337z"/>
<path d="M358.31,154.371h46.16c4.142,0,7.5-3.358,7.5-7.5s-3.358-7.5-7.5-7.5h-46.16c-4.142,0-7.5,3.358-7.5,7.5
	S354.167,154.371,358.31,154.371z"/>
<path d="M197.567,265.454v130.24h-2.977c-8.09,0-14.672,6.582-14.672,14.672v20.953c0,8.09,6.582,14.671,14.672,14.671h20.953
	c8.09,0,14.672-6.582,14.672-14.671v-20.953c0-8.09-6.582-14.672-14.672-14.672h-2.977v-130.24h86.867v130.24h-2.977
	c-8.09,0-14.672,6.582-14.672,14.672v20.953c0,8.09,6.582,14.671,14.672,14.671h20.953c8.09,0,14.671-6.582,14.671-14.671v-20.953
	c0-8.09-6.582-14.672-14.671-14.672h-2.977v-130.24H401.3v77.336c0,38.424,25.465,71.008,60.404,81.774v6.754
	c0,8.09,6.582,14.671,14.672,14.671h20.953c8.09,0,14.672-6.582,14.672-14.671v-20.953c0-8.09-6.582-14.672-14.672-14.672h-20.953
	c-7.537,0-13.759,5.714-14.575,13.037c-26.569-10.128-45.5-35.858-45.5-65.94v-77.336h47.915c12.851,0,23.305-10.455,23.305-23.305
	V89.315c0-12.851-10.455-23.305-23.305-23.305H157.527c-4.142,0-7.5,3.358-7.5,7.5s3.358,7.5,7.5,7.5h306.688
	c4.58,0,8.305,3.726,8.305,8.305v75.383H39.481V89.315c0-4.58,3.726-8.305,8.305-8.305h79.741c4.142,0,7.5-3.358,7.5-7.5
	s-3.358-7.5-7.5-7.5H47.786c-12.85,0-23.305,10.455-23.305,23.305v152.834c0,12.851,10.455,23.305,23.305,23.305H95.7v77.336
	c0,30.082-18.932,55.812-45.5,65.94c-0.816-7.323-7.038-13.037-14.575-13.037H14.672C6.582,395.694,0,402.276,0,410.366v20.953
	c0,8.09,6.582,14.671,14.672,14.671h20.953c8.09,0,14.672-6.582,14.672-14.671v-6.754c34.938-10.767,60.403-43.35,60.403-81.774
	v-77.336h86.867V265.454z M215.215,410.694v20.296h-20.297v-20.296h2.648v10.148c0,4.142,3.358,7.5,7.5,7.5s7.5-3.358,7.5-7.5
	v-10.148H215.215z M317.082,410.694v20.296h-20.296v-20.296h2.648v10.148c0,4.142,3.358,7.5,7.5,7.5s7.5-3.358,7.5-7.5v-10.148
	H317.082z M476.704,410.694H497v20.296h-20.296v-3.271c3.331,0.396,6.712,0.623,10.148,0.623c4.142,0,7.5-3.358,7.5-7.5
	s-3.358-7.5-7.5-7.5c-3.447,0-6.832-0.26-10.148-0.74V410.694z M35.297,430.99H15v-20.296h20.297v1.908
	c-3.316,0.48-6.702,0.74-10.148,0.74c-4.142,0-7.5,3.358-7.5,7.5s3.358,7.5,7.5,7.5c3.436,0,6.817-0.227,10.148-0.623V430.99z
	 M47.786,250.454c-4.58,0-8.305-3.726-8.305-8.305v-62.451H472.52v62.451c0,4.58-3.726,8.305-8.305,8.305H416.3v-10.23h2.977
	c8.09,0,14.672-6.582,14.672-14.672v-20.953c0-8.09-6.582-14.672-14.672-14.672h-20.953c-8.09,0-14.672,6.582-14.672,14.672v20.953
	c0,8.09,6.582,14.672,14.672,14.672h2.977v10.23h-86.866v-10.23h2.977c8.09,0,14.671-6.582,14.671-14.672v-20.953
	c0-8.09-6.582-14.672-14.671-14.672h-20.953c-8.09,0-14.672,6.582-14.672,14.672v20.953c0,8.09,6.582,14.672,14.672,14.672h2.977
	v10.23h-86.867v-10.23h2.977c8.09,0,14.672-6.582,14.672-14.672v-20.953c0-8.09-6.582-14.672-14.672-14.672H194.59
	c-8.09,0-14.672,6.582-14.672,14.672v20.953c0,8.09,6.582,14.672,14.672,14.672h2.977v10.23H110.7v-10.23h2.977
	c8.09,0,14.672-6.582,14.672-14.672v-20.953c0-8.09-6.582-14.672-14.672-14.672H92.724c-8.09,0-14.671,6.582-14.671,14.672v20.953
	c0,8.09,6.582,14.672,14.671,14.672H95.7v10.23L47.786,250.454L47.786,250.454z M408.8,207.576c-4.142,0-7.5,3.358-7.5,7.5v10.148
	h-2.648v-20.297h20.297v20.297H416.3v-10.148C416.3,210.934,412.942,207.576,408.8,207.576z M306.934,207.576
	c-4.142,0-7.5,3.358-7.5,7.5v10.148h-2.648v-20.297h20.296v20.297h-2.648v-10.148C314.434,210.934,311.076,207.576,306.934,207.576z
	 M205.067,207.576c-4.142,0-7.5,3.358-7.5,7.5v10.148h-2.648v-20.297h20.297v20.297h-2.648v-10.148
	C212.567,210.934,209.209,207.576,205.067,207.576z M103.2,207.576c-4.142,0-7.5,3.358-7.5,7.5v10.148h-2.648v-20.297h20.296v20.297
	H110.7v-10.148C110.7,210.934,107.342,207.576,103.2,207.576z"/>
<g>
</g>
<g>
</g>
<g>
</g>
<g>
</g>
<g>
</g>
<g>
</g>
<g>
</g>
<g>
</g>
<g>
</g>
<g>
</g>
<g>
</g>
<g>
</g>
<g>
</g>
<g>
</g>
<g>
</g>
</svg>
