<svg fill="#fff" id="Capa_1" enable-background="new 0 0 512 512" height="512" viewBox="0 0 512 512" width="512" xmlns="http://www.w3.org/2000/svg"><g><g><g><g><path d="m512 213.193c0-17.718-8.428-35.732-23.124-49.424-1.628-1.517-3.318-2.946-5.045-4.314v-8.649c0-43.875-35.694-79.569-79.568-79.569h-296.526c-43.874 0-79.568 35.694-79.568 79.569v9.298c-17.202 14.374-28.169 35.972-28.169 60.089v105.18c0 63.627 51.764 115.391 115.39 115.391h49.088c31.904 0 62.681-13.4 84.44-36.766 1.796-1.929 4.161-3.035 6.489-3.035h1.187c2.328 0 4.693 1.105 6.488 3.034 21.759 23.365 52.536 36.767 84.44 36.767h49.088c63.626 0 115.39-51.764 115.39-115.391 0-.534 0-112.18 0-112.18zm-404.263-126.957h296.526c35.334 0 64.115 28.534 64.548 63.768-5.789-2.814-11.882-4.922-18.169-6.28-.503-23.155-19.481-41.839-42.754-41.839h-47.011c-4.142 0-7.5 3.357-7.5 7.5s3.358 7.5 7.5 7.5h47.011c14.398 0 26.269 11.011 27.643 25.053-.61-.014-1.218-.043-1.83-.043-5.511 0-11.036.586-16.421 1.741l-34.739 7.451c-83.967 18.012-169.116 18.012-253.083 0l-34.738-7.451c-5.386-1.155-10.911-1.741-16.422-1.741-.614 0-1.219.032-1.829.046 1.372-14.044 13.244-25.056 27.642-25.056h222.942c4.142 0 7.5-3.357 7.5-7.5s-3.358-7.5-7.5-7.5h-222.942c-23.285 0-42.272 18.704-42.754 41.877-6.385 1.414-12.476 3.609-18.174 6.481.304-35.344 29.139-64.007 64.554-64.007zm351.159 142.041c4.319-5.631 6.704-12.534 6.704-19.857 0-18.053-14.687-32.74-32.74-32.74s-32.74 14.688-32.74 32.74c0 .542.036 1.082.063 1.623-1.187-.036-2.377-.061-3.573-.061h-137.934c-4.142 0-7.5 3.357-7.5 7.5s3.358 7.5 7.5 7.5h137.934c55.355 0 100.39 45.035 100.39 100.391s-45.035 100.391-100.39 100.391h-49.088c-27.755 0-54.531-11.659-73.463-31.989-4.623-4.965-10.989-7.812-17.465-7.812h-1.187c-6.477 0-12.843 2.848-17.466 7.813-18.931 20.329-45.707 31.988-73.462 31.988h-49.089c-55.355 0-100.39-45.035-100.39-100.391s45.035-100.391 100.39-100.391h109.462c4.142 0 7.5-3.357 7.5-7.5s-3.358-7.5-7.5-7.5h-109.462c-1.196 0-2.386.024-3.573.061.027-.541.063-1.081.063-1.623 0-18.053-14.687-32.74-32.74-32.74s-32.74 14.688-32.74 32.74c0 7.323 2.385 14.226 6.704 19.857-15.725 10.122-28.84 23.959-38.104 40.258v-48.342c0-34.902 28.396-63.298 63.298-63.298 4.456 0 8.922.474 13.276 1.407l34.738 7.451c86.055 18.461 173.322 18.461 259.375 0l34.739-7.451c4.354-.934 8.82-1.407 13.275-1.407 36.228 0 63.298 29.723 63.298 56.298v55.342c-9.263-16.299-22.378-30.136-38.103-40.258zm-43.496-16.756c-.18-1.025-.28-2.06-.28-3.101 0-9.782 7.958-17.74 17.74-17.74s17.74 7.958 17.74 17.74c0 4.731-1.839 9.142-5.107 12.444-9.411-4.419-19.511-7.603-30.093-9.343zm-354-3.101c0-9.782 7.958-17.74 17.74-17.74s17.74 7.958 17.74 17.74c0 1.04-.102 2.076-.281 3.101-10.581 1.74-20.681 4.924-30.091 9.344-3.27-3.303-5.108-7.714-5.108-12.445z"/><path d="m224.695 261.194-7.034-14.321c-1.261-2.566-3.872-4.193-6.732-4.193h-95.54c-38.791 0-72.801 27.539-80.869 65.482-.861 4.051 1.725 8.034 5.776 8.896 4.054.867 8.035-1.724 8.896-5.776 6.604-31.059 34.444-53.602 66.197-53.602h90.868l4.974 10.127c4.587 9.342 14.276 15.378 24.684 15.378h40.17c10.407 0 20.096-6.036 24.684-15.377l4.974-10.128h90.868c18.173 0 35.247 7.134 48.075 20.087 12.825 12.95 19.791 30.096 19.614 48.276-.359 36.957-31.154 67.023-68.648 67.023h-48.129c-18.986 0-36.578-7.662-49.534-21.575-10.786-11.583-25.874-18.226-41.395-18.226h-1.187c-15.521 0-30.609 6.644-41.394 18.227-12.957 13.912-30.548 21.574-49.535 21.574h-48.129c-31.595 0-58.987-21.118-66.613-51.354-1.013-4.017-5.09-6.454-9.106-5.438-4.017 1.014-6.451 5.09-5.438 9.106 9.31 36.909 42.683 62.687 81.158 62.687h48.129c23.196 0 44.686-9.358 60.512-26.352 7.958-8.547 19.045-13.449 30.417-13.449h1.187c11.372 0 22.458 4.901 30.417 13.448 15.825 16.994 37.315 26.353 60.512 26.353h48.129c45.685 0 83.209-36.73 83.647-81.877.216-22.216-8.292-43.161-23.955-58.978-15.667-15.82-36.525-24.532-58.733-24.532h-95.54c-2.86 0-5.471 1.627-6.732 4.193l-7.034 14.322c-2.085 4.246-6.489 6.989-11.22 6.989h-40.17c-4.731.001-9.135-2.743-11.221-6.99z"/></g></g></g></g></svg>