<svg id="Capa_1" enable-background="new 0 0 512 512" height="512" viewBox="0 0 512 512" width="512" xmlns="http://www.w3.org/2000/svg"><g><path d="m130 344.633h76.445v41.697h-76.445z" fill="#acacac"/><path d="m130 344.633h31.555v41.697h-31.555z" fill="#9c9c9c"/><path d="m322 344.633h27.186v41.697h-27.186z" fill="#acacac"/><path d="m349.186 386.33h-258.351c-2.761 0-5 2.239-5 5v23.59c0 2.761 2.239 5 5 5h258.351z" fill="#9c9c9c"/><g><path d="m127.835 414.919v-23.59c0-2.761 2.239-5 5-5h-42c-2.761 0-5 2.239-5 5v23.59c0 2.761 2.239 5 5 5h42c-2.761 0-5-2.238-5-5z" fill="#838383"/></g><path d="m350.187 195.951c0-4.962 4.037-9 9-9h130.149v-128.832c0-5.523-4.477-10-10-10h-460.253c-6.397 0-11.583 5.186-11.583 11.583v231.493h342.687z" fill="#d8ecfe"/><path d="m109.427 48.119v242.076h25.738v-230.494c0-6.397 5.186-11.583 11.583-11.583h-37.321z" fill="#c4e2ff"/><path d="m109.427 290.194v-242.075h-90.344c-6.397 0-11.583 5.186-11.583 11.583v230.493h101.927z" fill="#fe646f"/><path d="m39 290.194v-230.493c0-6.397 5.186-11.583 11.583-11.583h-31.5c-6.397 0-11.583 5.186-11.583 11.583v230.493z" fill="#fd4755"/><path d="m349.186 290.194h-341.686v44.438c0 5.523 4.477 10 10 10h331.686z" fill="#9c9c9c"/><g><path d="m39 334.633v-44.438h-31.5v44.438c0 5.523 4.477 10 10 10h31.5c-5.523 0-10-4.477-10-10z" fill="#838383"/></g><g><path d="m199.771 143.096h-41.697c-3.198 0-5.791-2.593-5.791-5.791v-41.698c0-3.198 2.593-5.791 5.791-5.791h41.697c3.198 0 5.791 2.593 5.791 5.791v41.697c0 3.199-2.593 5.792-5.791 5.792z" fill="#6cf5c2"/></g><g><path d="m173 137.304v-41.697c0-3.198 2.593-5.791 5.791-5.791h-20.718c-3.198 0-5.791 2.593-5.791 5.791v41.697c0 3.198 2.593 5.791 5.791 5.791h20.718c-3.198.001-5.791-2.592-5.791-5.791z" fill="#00f2a6"/></g><g><path d="m298.223 143.096h-41.697c-3.198 0-5.791-2.593-5.791-5.791v-41.698c0-3.198 2.593-5.791 5.791-5.791h41.697c3.198 0 5.791 2.593 5.791 5.791v41.697c0 3.199-2.593 5.792-5.791 5.792z" fill="#26a6fe"/></g><g><path d="m271.72 137.304v-41.697c0-3.198 2.593-5.791 5.791-5.791h-20.986c-3.198 0-5.791 2.593-5.791 5.791v41.697c0 3.198 2.593 5.791 5.791 5.791h20.986c-3.198.001-5.791-2.592-5.791-5.791z" fill="#0593fc"/></g><g><path d="m396.675 143.096h-41.697c-3.198 0-5.791-2.593-5.791-5.791v-41.698c0-3.198 2.593-5.791 5.791-5.791h41.697c3.198 0 5.791 2.593 5.791 5.791v41.697c0 3.199-2.593 5.792-5.791 5.792z" fill="#fff"/></g><g><path d="m369.904 137.304v-41.697c0-3.198 2.593-5.791 5.791-5.791h-20.718c-3.198 0-5.791 2.593-5.791 5.791v41.697c0 3.198 2.593 5.791 5.791 5.791h20.718c-3.198.001-5.791-2.592-5.791-5.791z" fill="#eaf6ff"/></g><g><path d="m199.771 239.231h-41.697c-3.198 0-5.791-2.593-5.791-5.791v-41.697c0-3.198 2.593-5.791 5.791-5.791h41.697c3.198 0 5.791 2.593 5.791 5.791v41.697c0 3.198-2.593 5.791-5.791 5.791z" fill="#fe646f"/></g><g><path d="m173 233.44v-41.697c0-3.198 2.593-5.791 5.791-5.791h-20.718c-3.198 0-5.791 2.593-5.791 5.791v41.697c0 3.198 2.593 5.791 5.791 5.791h20.718c-3.198 0-5.791-2.593-5.791-5.791z" fill="#fd4755"/></g><g><path d="m298.223 239.231h-41.697c-3.198 0-5.791-2.593-5.791-5.791v-41.697c0-3.198 2.593-5.791 5.791-5.791h41.697c3.198 0 5.791 2.593 5.791 5.791v41.697c0 3.198-2.593 5.791-5.791 5.791z" fill="#fed402"/></g><g><path d="m271.72 233.44v-41.697c0-3.198 2.593-5.791 5.791-5.791h-20.986c-3.198 0-5.791 2.593-5.791 5.791v41.697c0 3.198 2.593 5.791 5.791 5.791h20.986c-3.198 0-5.791-2.593-5.791-5.791z" fill="#fac600"/></g><g><g><path d="m494.5 463.881h-135.314c-5.523 0-10-4.477-10-10v-257.93c0-5.523 4.477-10 10-10h135.314c5.523 0 10 4.477 10 10v257.93c0 5.523-4.477 10-10 10z" fill="#fedba6"/></g><g><path d="m380.686 453.881v-257.93c0-5.523 4.477-10 10-10h-31.5c-5.523 0-10 4.477-10 10v257.93c0 5.523 4.477 10 10 10h31.5c-5.523 0-10-4.477-10-10z" fill="#fece85"/></g></g><g><path d="m457 388h-61c-2.761 0-5-2.239-5-5v-20c0-2.761 2.239-5 5-5h61c2.761 0 5 2.239 5 5v20c0 2.761-2.239 5-5 5z" fill="#fff"/></g><g><path d="m421 383v-20c0-2.761 2.239-5 5-5h-30c-2.761 0-5 2.239-5 5v20c0 2.761 2.239 5 5 5h30c-2.761 0-5-2.239-5-5z" fill="#eaf6ff"/></g><g><path d="m401.187 436c-2.454 0-4.545 1.78-4.936 4.203l-3.825 23.679h68.473l-4.234-23.759c-.425-2.385-2.499-4.123-4.922-4.123z" fill="#9c9c9c"/></g><g><path d="m421.761 436h-20.574c-2.454 0-4.545 1.78-4.936 4.203l-3.825 23.679h20.574l3.825-23.679c.391-2.423 2.482-4.203 4.936-4.203z" fill="#838383"/></g><g><circle cx="39.5" cy="316.255" r="7.5"/><circle cx="64.5" cy="316.255" r="7.5"/><circle cx="89.5" cy="316.255" r="7.5"/><path d="m199.771 82.316h-41.697c-7.329 0-13.291 5.962-13.291 13.291v41.697c0 7.329 5.962 13.292 13.291 13.292h41.697c7.329 0 13.292-5.962 13.292-13.292v-41.697c0-7.329-5.963-13.291-13.292-13.291zm-1.708 53.28h-38.28v-38.28h38.28z"/><path d="m298.223 82.316h-41.697c-7.329 0-13.291 5.962-13.291 13.291v41.697c0 7.329 5.962 13.292 13.291 13.292h41.697c7.329 0 13.291-5.962 13.291-13.292v-41.697c0-7.329-5.962-13.291-13.291-13.291zm-1.709 53.28h-38.279v-38.28h38.279z"/><path d="m199.771 178.451h-41.697c-7.329 0-13.291 5.962-13.291 13.292v41.697c0 7.329 5.962 13.291 13.291 13.291h41.697c7.329 0 13.292-5.962 13.292-13.291v-41.697c0-7.329-5.963-13.292-13.292-13.292zm-1.708 53.28h-38.28v-38.28h38.28z"/><path d="m298.223 178.451h-41.697c-7.329 0-13.291 5.962-13.291 13.292v41.697c0 7.329 5.962 13.291 13.291 13.291h41.697c7.329 0 13.291-5.962 13.291-13.291v-41.697c0-7.329-5.962-13.292-13.291-13.292zm-1.709 53.28h-38.279v-38.28h38.279z"/><path d="m74.679 74.208h-35.906c-4.143 0-7.5 3.358-7.5 7.5s3.357 7.5 7.5 7.5h35.905c4.143 0 7.5-3.358 7.5-7.5s-3.357-7.5-7.499-7.5z"/><path d="m74.679 103.165h-35.906c-4.143 0-7.5 3.358-7.5 7.5s3.357 7.5 7.5 7.5h35.905c4.143 0 7.5-3.358 7.5-7.5s-3.357-7.5-7.499-7.5z"/><path d="m74.679 161.077h-35.906c-4.143 0-7.5 3.358-7.5 7.5s3.357 7.5 7.5 7.5h35.905c4.143 0 7.5-3.358 7.5-7.5s-3.357-7.5-7.499-7.5z"/><path d="m74.679 190.034h-35.906c-4.143 0-7.5 3.358-7.5 7.5s3.357 7.5 7.5 7.5h35.905c4.143 0 7.5-3.358 7.5-7.5s-3.357-7.5-7.499-7.5z"/><path d="m74.679 247.947h-35.906c-4.143 0-7.5 3.358-7.5 7.5s3.357 7.5 7.5 7.5h35.905c4.143 0 7.5-3.358 7.5-7.5s-3.357-7.5-7.499-7.5z"/><path d="m496.835 178.626v-120.507c0-9.649-7.851-17.5-17.5-17.5h-460.252c-10.522 0-19.083 8.56-19.083 19.082v274.932c0 9.649 7.851 17.5 17.5 17.5h105v26.697h-31.665c-6.893 0-12.5 5.607-12.5 12.5v23.589c0 6.893 5.607 12.5 12.5 12.5h179.498c4.143 0 7.5-3.358 7.5-7.5s-3.357-7.5-7.5-7.5h-176.998v-18.589h248.352v18.589h-35.687c-4.143 0-7.5 3.358-7.5 7.5s3.357 7.5 7.5 7.5h35.687v26.462c0 9.649 7.851 17.5 17.5 17.5h135.313c9.649 0 17.5-7.851 17.5-17.5v-257.93c0-8.856-6.618-16.178-15.165-17.325zm-481.835-118.925c0-2.251 1.832-4.083 4.083-4.083h82.844v227.076h-86.927zm183.945 319.129h-61.445v-26.697h61.445zm115.555 0h-100.555v-26.697h100.555zm27.187 0h-12.187v-26.697h12.187zm59.547 77.551 2.081-12.881h46.332l2.296 12.881zm95.766-2.5c0 1.378-1.121 2.5-2.5 2.5h-27.32l-3.132-17.574c-1.063-5.973-6.239-10.308-12.306-10.308h-50.556c-6.168 0-11.358 4.419-12.34 10.506l-2.807 17.375h-26.854c-1.379 0-2.5-1.122-2.5-2.5v-257.93c0-1.378 1.121-2.5 2.5-2.5h27.815c4.143 0 7.5-3.358 7.5-7.5s-3.357-7.5-7.5-7.5h-27.813c-9.649 0-17.5 7.851-17.5 17.5v86.743h-157.354c-4.143 0-7.5 3.358-7.5 7.5s3.357 7.5 7.5 7.5h157.354v39.438h-324.187c-1.379 0-2.5-1.122-2.5-2.5v-36.938h134c4.143 0 7.5-3.358 7.5-7.5s-3.357-7.5-7.5-7.5h-32.073v-227.074h362.408c1.379 0 2.5 1.122 2.5 2.5v120.333h-59.168c-4.143 0-7.5 3.358-7.5 7.5s3.357 7.5 7.5 7.5h71.833c1.379 0 2.5 1.122 2.5 2.5z"/><path d="m377.761 279.801c-2.929 2.929-2.929 7.678 0 10.606s7.677 2.93 10.607 0c21.216-21.216 55.736-21.214 76.95 0 1.465 1.464 3.385 2.197 5.304 2.197s3.839-.732 5.304-2.197c2.929-2.929 2.929-7.678 0-10.606-27.064-27.062-71.1-27.064-98.165 0z"/><path d="m447.205 310.781c1.919 0 3.839-.732 5.303-2.197 2.93-2.929 2.93-7.677.001-10.606-6.855-6.855-15.971-10.631-25.666-10.631s-18.81 3.775-25.665 10.631c-2.93 2.929-2.93 7.677-.001 10.606s7.678 2.929 10.606 0c4.023-4.022 9.371-6.237 15.06-6.237s11.037 2.215 15.059 6.237c1.464 1.465 3.383 2.197 5.303 2.197z"/><circle cx="426.843" cy="324.073" r="7.5"/><path d="m481 202.5h-27.504c-4.143 0-7.5 3.358-7.5 7.5s3.357 7.5 7.5 7.5h27.504c4.143 0 7.5-3.358 7.5-7.5s-3.357-7.5-7.5-7.5z"/><path d="m457 350.5h-61c-6.893 0-12.5 5.607-12.5 12.5v20c0 6.893 5.607 12.5 12.5 12.5h61c6.893 0 12.5-5.607 12.5-12.5v-20c0-6.893-5.607-12.5-12.5-12.5zm-2.5 30h-56v-15h56z"/><path d="m409.966 137.304v-41.697c0-7.329-5.962-13.291-13.291-13.291h-41.697c-7.329 0-13.291 5.962-13.291 13.291v41.697c0 7.329 5.962 13.292 13.291 13.292h41.697c7.329 0 13.291-5.963 13.291-13.292zm-15-1.708h-38.279v-38.28h38.279z"/></g></g></svg>