<svg id="Capa_1" enable-background="new 0 0 512 512" height="512" viewBox="0 0 512 512" width="512" xmlns="http://www.w3.org/2000/svg"><g><g><g clip-rule="evenodd" fill-rule="evenodd"><path d="m7.5 58.538v285.657h497v-285.657l-15-15h-467zm148.441 60.935c0 12.426-10.073 22.5-22.5 22.5-12.426 0-22.5-10.074-22.5-22.5 0-12.427 10.074-22.5 22.5-22.5 12.427 0 22.5 10.073 22.5 22.5zm127.73 41.535c-4.039 6.012-10.902 9.967-18.689 9.967-12.427 0-22.5-10.073-22.5-22.5 0-1.042.071-2.068.208-3.072 1.498-10.973 10.908-19.428 22.292-19.428 12.426 0 22.5 10.073 22.5 22.5 0 4.64-1.404 8.951-3.811 12.533zm81.27 127.547c-12.427 0-22.5-10.074-22.5-22.5 0-12.427 10.073-22.5 22.5-22.5s22.5 10.074 22.5 22.5c0 2.928-.559 5.726-1.577 8.292-3.301 8.323-11.424 14.208-20.923 14.208z" fill="#d0dbef"/><circle cx="133.441" cy="119.473" fill="#faee91" r="22.5"/><path d="m264.982 125.975c-11.385 0-20.794 8.455-22.292 19.428-.137 1.005-.208 2.03-.208 3.072 0 12.427 10.073 22.5 22.5 22.5 7.787 0 14.65-3.956 18.689-9.967 2.407-3.582 3.811-7.893 3.811-12.533 0-12.426-10.073-22.5-22.5-22.5z" fill="#fed8a7"/><path d="m348.965 250.212c-4.033 4.066-6.524 9.664-6.524 15.844 0 12.426 10.073 22.5 22.5 22.5 9.498 0 17.622-5.885 20.923-14.208 1.018-2.566 1.577-5.364 1.577-8.292 0-12.427-10.073-22.5-22.5-22.5-6.246-.001-11.899 2.545-15.976 6.656z" fill="#f492a7"/><path d="m504.5 344.196h-497v30l15 15h466.999l15-15v-30z" fill="#e4e8ed"/><path d="m286.001 389.196h-60l-16.824 36.079h93.649z" fill="#e4e8ed"/><path d="m133.879 425.275-21.935 28.064v15.124h288.115v-15.124l-21.935-28.064c-81.415 0-162.83 0-244.245 0z" fill="#e4e8ed"/><path d="m7.5 58.538v285.658h30v-285.658l15-15h-30z" fill="#6c90c9"/><path d="m37.5 344.196h-30v29.999l15 15.001h30l-15-15.001z" fill="#9c9c9f"/><path d="m256.001 389.196h-30l-16.824 36.079h30z" fill="#9c9c9f"/><path d="m163.879 425.275h-30l-21.935 28.064v15.123h30v-15.123z" fill="#9c9c9f"/></g><g><path d="m45 118.538h-15v-15h15zm0-30h-15v-15h15z" fill="#fff"/></g></g><g><path d="m492.606 36.038h-40.605v15h34.393l10.606 10.606v275.051h-414.5v15h414.5v19.394l-10.606 10.606h-460.788l-10.606-10.606v-19.394h52.499v-15h-52.499v-275.051l10.606-10.606h411.394v-15h-417.606l-19.394 19.393v321.871l19.394 19.394h194.835l-9.829 21.079h-74.178l-25.777 32.981v25.207h67.498v-15h-52.498v-5.041l18.092-23.147h236.931l18.092 23.147v5.041h-205.617v15h220.615v-25.207l-25.777-32.981h-74.179l-9.829-21.079h194.833l19.394-19.394v-321.871zm-201.553 381.736h-70.104l9.829-21.079h50.445z"/><path d="m133.584 211.387h.083c5.468.045 9.88 4.531 9.835 10l15 .123c.093-11.356-7.467-21.018-17.849-24.095v-16.028h-15v16.302c-9.786 3.297-16.894 12.516-16.985 23.411-.112 13.739 10.973 25.008 24.712 25.122 5.468.045 9.88 4.531 9.835 9.999-.021 2.649-1.074 5.131-2.963 6.989-1.888 1.857-4.424 2.856-7.035 2.846-5.47-.045-9.882-4.531-9.837-9.999l-15-.123c-.091 11.145 7.187 20.664 17.273 23.922v16.2h15v-16.101c3.767-1.159 7.227-3.208 10.117-6.051 4.745-4.667 7.389-10.902 7.444-17.559.055-6.655-2.485-12.934-7.153-17.679-4.667-4.745-10.903-7.389-17.558-7.443-5.469-.045-9.881-4.531-9.836-9.999.046-5.442 4.486-9.837 9.917-9.837z"/><path d="m364.941 296.055c9.831 0 18.573-4.754 24.047-12.083l26.906 12.083h28.606v-15h-25.393l-24.443-10.978c.177-1.317.277-2.658.277-4.022 0-16.542-13.458-30-30-30-5.199 0-10.092 1.331-14.359 3.667l-58.072-79.336c1.587-3.654 2.472-7.68 2.472-11.911 0-16.542-13.458-30-30-30-12.121 0-22.579 7.23-27.307 17.601l-74.793-22.357c-2.692-13.799-14.866-24.247-29.441-24.247-13.953 0-25.712 9.575-29.051 22.5h-23.449v15h23.449c3.339 12.925 15.098 22.5 29.051 22.5 13.186 0 24.405-8.555 28.417-20.404l73.235 21.891c1.268 15.383 14.184 27.516 29.889 27.516 6.684 0 12.863-2.199 17.855-5.909l56.733 77.508c-2.927 4.631-4.63 10.109-4.63 15.981.001 16.542 13.459 30 30.001 30zm15-30c0 8.271-6.729 15-15 15s-15-6.729-15-15 6.729-15 15-15 15 6.729 15 15zm-246.5-131.582c-8.271 0-15-6.729-15-15s6.729-15 15-15 15 6.729 15 15-6.728 15-15 15zm131.541 29.002c-8.271 0-15-6.729-15-15s6.729-15 15-15 15 6.729 15 15-6.728 15-15 15z"/><path d="m212.192 281.055h52.5v15h-52.5z"/><path d="m182.192 281.055h15v15h-15z"/><path d="m212.192 251.055h52.5v15h-52.5z"/><path d="m182.192 251.055h15v15h-15z"/><path d="m182.192 221.055h15v15h-15z"/><path d="m212.192 221.055h52.5v15h-52.5z"/><path d="m356.192 119.473h52.5v15h-52.5z"/><path d="m356.192 149.472h52.5v15h-52.5z"/></g></g></svg>