<svg height="512" viewBox="0 0 64 64" width="512" xmlns="http://www.w3.org/2000/svg"><g id="Resume-Portfolio-Clipboard-Application-Curriculum_Vitae" data-name="Resume-Portfolio-Clipboard-Application-Curriculum Vitae"><rect fill="#a97c50" height="50" rx="4" width="42" x="19" y="11"/><path d="m57 16v33h-6a2.006 2.006 0 0 0 -2 2v6h-25a1 1 0 0 1 -1-1v-40a1 1 0 0 1 1-1h32a1 1 0 0 1 1 1z" fill="#e6e7e8"/><path d="m57 49v7a1 1 0 0 1 -1 1h-7z" fill="#e6e7e8"/><path d="m57 49-8 8v-6a2.006 2.006 0 0 1 2-2z" fill="#bcbec0"/><path d="m29 16h22v3h-22z" fill="#ffb655"/><path d="m51 14v2h-22v-2a4.009 4.009 0 0 1 4-4h3v-3a4 4 0 0 1 8 0v3h3a4.009 4.009 0 0 1 4 4z" fill="#ff9811"/><path d="m36.28 26.72a4 4 0 1 1 -3.28-1.72 4.009 4.009 0 0 1 3.28 1.72z" fill="#ffd422"/><path d="m36.28 40.72a4 4 0 1 1 -3.28-1.72 4.009 4.009 0 0 1 3.28 1.72z" fill="#ffd422"/><path d="m27 58.9v2.1h-9l-1.82-6.18.82-.82 2 .67 1 .33.7-2.8 2.3 1.02.44.2a6 6 0 0 1 3.56 5.48z" fill="#3d9ae2"/><path d="m20.7 52.2-.7 2.8-1-.33v-3.23z" fill="#1e81ce"/><path d="m19 51.44v3.23l-2-.67-1-2 2-1z" fill="#1e81ce"/><path d="m16.18 54.82 1.82 6.18h-6l1.82-6.18 1.18 1.18z" fill="#ed1c24"/><path d="m16 52 1 2-.82.82-1.18 1.18-1.18-1.18-.82-.82 1-2z" fill="#ed1c24"/><path d="m14 52-1 2-3 1-.7-2.8 2.7-1.2z" fill="#1e81ce"/><path d="m13.82 54.82-1.82 6.18h-9v-2.1a6 6 0 0 1 3.56-5.48l2.74-1.22.7 2.8 3-1z" fill="#3d9ae2"/><path d="m22 36v2h-.66a3.014 3.014 0 0 1 -2.91-2.27l-.43-1.73a4 4 0 0 1 -4 4h-6v-2a7 7 0 1 1 14 0z" fill="#57565c"/><path d="m25 41a2.006 2.006 0 0 1 -2 2h-2v-4h2a2.006 2.006 0 0 1 2 2z" fill="#ffb655"/><path d="m9 39v4h-2a2 2 0 0 1 0-4z" fill="#ffb655"/><path d="m18 48v3l-2 1h-2l-2-1v-3z" fill="#ffc477"/><path d="m18 48v2.32a6.958 6.958 0 0 1 -6 0v-2.32z" fill="#ffb655"/><path d="m21.34 38a3.014 3.014 0 0 1 -2.91-2.27l-.43-1.73a4 4 0 0 1 -4 4h-6v4a7 7 0 0 0 14 0v-4z" fill="#ffc477"/><path d="m11 40h2v2h-2z"/><path d="m17 40h2v2h-2z"/><path d="m23.846 52.506-4.846-2.155v-1.444a7.969 7.969 0 0 0 3.75-4.941c.084.007.165.034.25.034a3 3 0 0 0 0-6v-2a8 8 0 0 0 -16 0v2a3 3 0 0 0 0 6c.085 0 .167-.027.252-.035a8 8 0 0 0 2.091 3.693 7.862 7.862 0 0 0 1.657 1.235v1.458l-4.846 2.155a7 7 0 0 0 -4.154 6.394v2.1a1 1 0 0 0 1 1h24a1 1 0 0 0 1-1v-2.1a7 7 0 0 0 -4.154-6.394zm-4.32.267-.234.937-1.583-.528-.367-.735.683-.341zm-4.526-2.773a7.915 7.915 0 0 0 2-.262v.644l-1.236.618h-1.528l-1.236-.618v-.644a7.921 7.921 0 0 0 2 .262zm-.783 3.8.4-.8h.764l.4.8-.781.786zm.088 2.912a.99.99 0 0 0 1.39 0l.968 3.288h-3.326zm9.695-15.712a1 1 0 0 1 -1 1v-2a1 1 0 0 1 1 1zm-9-11a6.006 6.006 0 0 1 6 6v.97a2 2 0 0 1 -1.6-1.485l-.432-1.728a1 1 0 0 0 -1.968.243 3 3 0 0 1 -3 3h-5v-1a6.006 6.006 0 0 1 6-6zm-9 11a1 1 0 0 1 1-1v2a1 1 0 0 1 -1-1zm3.031 1.58a4.614 4.614 0 0 1 -.031-.58v-3h5a5 5 0 0 0 3.93-1.912 3.985 3.985 0 0 0 3.07 1.89v3.022a4.6 4.6 0 0 1 -.036.614 6 6 0 0 1 -8.542 4.8 5.833 5.833 0 0 1 -1.665-1.17 5.991 5.991 0 0 1 -1.726-3.664zm2.944 9.526.683.341-.367.735-1.583.528-.234-.937zm-7.975 6.794a5 5 0 0 1 2.966-4.567l1.653-.733.411 1.644a1 1 0 0 0 .97.756 1.01 1.01 0 0 0 .316-.051l2.36-.787-1.424 4.838h-7.252zm22 1.1h-7.252l-1.424-4.838 2.36.787a1.01 1.01 0 0 0 .316.051 1 1 0 0 0 .97-.757l.411-1.644 1.653.735a5 5 0 0 1 2.966 4.566z"/><path d="m57 10h-7.031a4.952 4.952 0 0 0 -2.969-1h-2v-2a5 5 0 0 0 -10 0v2h-2a4.952 4.952 0 0 0 -2.969 1h-7.031a5.006 5.006 0 0 0 -5 5v12h2v-12a3 3 0 0 1 3-3h5.424a4.95 4.95 0 0 0 -.424 2h-4a2 2 0 0 0 -2 2v14h2v-14h4v3a1 1 0 0 0 1 1h22a1 1 0 0 0 1-1v-3h4v32h-5a3 3 0 0 0 -3 3v5h-18v2h26a2 2 0 0 0 2-2v-40a2 2 0 0 0 -2-2h-4a4.95 4.95 0 0 0 -.424-2h5.424a3 3 0 0 1 3 3v42a3 3 0 0 1 -3 3h-27v2h27a5.006 5.006 0 0 0 5-5v-42a5.006 5.006 0 0 0 -5-5zm-7 41a1 1 0 0 1 1-1h3.586l-4.586 4.586zm1.414 5 4.586-4.586v4.586zm-18.414-45h3a1 1 0 0 0 1-1v-3a3 3 0 0 1 6 0v3a1 1 0 0 0 1 1h3a3 3 0 0 1 3 3v1h-20v-1a3 3 0 0 1 3-3zm-3 7v-1h20v1z"/><path d="m22 47h2v3h-2z"/><path d="m39 6h2v2h-2z"/><path d="m37.293 24.293-.986.986a5.026 5.026 0 1 0 1.212 1.621l1.188-1.188zm-1.293 4.707a3 3 0 1 1 -3-3 2.972 2.972 0 0 1 1.894.692l-2.6 2.6 1.414 1.414 2.239-2.239a3.008 3.008 0 0 1 .053.533z"/><path d="m38 43a4.94 4.94 0 0 0 -.481-2.1l1.188-1.188-1.414-1.414-.986.986a4.98 4.98 0 1 0 1.693 3.716zm-8 0a3 3 0 0 1 3-3 2.972 2.972 0 0 1 1.894.692l-2.6 2.6 1.414 1.414 2.239-2.239a3 3 0 1 1 -5.947.533z"/><path d="m42 30h10v2h-10z"/><path d="m42 26h2v2h-2z"/><path d="m46 26h6v2h-6z"/><path d="m42 44h10v2h-10z"/><path d="m42 40h2v2h-2z"/><path d="m46 40h6v2h-6z"/></g></svg>