<svg id="Capa_1" enable-background="new 0 0 511.991 511.991" height="512" viewBox="0 0 511.991 511.991" width="512" xmlns="http://www.w3.org/2000/svg"><g><path d="m394.955 135.45-29.398-25.926 68.529-34.521c2.096-1.056 4.645-.497 6.108 1.338l57.557 72.223c.85 1.067-.4 2.522-1.583 1.843l-59.321-34.081c-1.462-.84-3.251-.879-4.749-.104z" fill="#f6f1f1"/><path d="m372.551 191.706-39.173-1.383 26.034 72.182c.796 2.208 3.031 3.555 5.355 3.227l91.45-12.879c1.351-.19 1.443-2.107.117-2.426l-66.509-16.032c-1.64-.395-2.966-1.597-3.52-3.189z" fill="#f6f1f1"/><path d="m397.489 93.439-31.932 16.085 29.398 25.926 28.158-14.576z" fill="#efe7e4"/><path d="m383.078 221.94-10.527-30.234-39.173-1.383 12.235 33.923z" fill="#efe7e4"/><path d="m122.356 98.098 26.554-66.673 70.008 27.882c2.547 1.015 3.79 3.902 2.775 6.449l-22.88 57.448c-1.015 2.547-3.902 3.79-6.449 2.775z" fill="#544f57"/><path d="m232.472 65.691h40.466v91.393h-40.466z" fill="#f6f1f1" transform="matrix(-.37 .929 -.929 -.37 449.687 -82.171)"/><path d="m198.649 88.627h40.466v18.58h-40.466z" fill="#efe7e4" transform="matrix(.37 -.929 .929 .37 46.927 265.035)"/><path d="m266.733 116.213h40.466v17.637h-40.466z" fill="#efe7e4" transform="matrix(.37 -.929 .929 .37 64.631 345.372)"/><path d="m373.396 95.395-58.502-1.369c-3.626-.085-6.922 2.095-8.264 5.464l-22.943 57.607c-1.342 3.37-.447 7.218 2.245 9.65l43.425 39.225c1.732 1.564 4.02 2.365 6.35 2.222l49.329-3.037c3.353-.206 6.285-2.329 7.528-5.45l22.426-56.309c1.243-3.121.573-6.679-1.72-9.133l-33.735-36.118c-1.593-1.706-3.806-2.697-6.139-2.752z" fill="#da4a54"/><path d="m413.27 134.265-33.735-36.118c-1.593-1.705-3.806-2.697-6.139-2.752l-13.322-.312 26.4 28.265c2.293 2.455 2.963 6.013 1.72 9.134l-22.426 56.309c-1.243 3.121-4.175 5.244-7.528 5.45l-39.2 2.413 10.317 9.319c1.732 1.564 4.02 2.365 6.35 2.222l49.329-3.037c3.353-.207 6.285-2.33 7.528-5.45l22.426-56.309c1.243-3.121.573-6.679-1.72-9.134z" fill="#c63d4f"/><path d="m160.493 288.332h-71.766v-43.899c0-2.742 2.223-4.965 4.965-4.965h61.837c2.742 0 4.965 2.223 4.965 4.965v43.899z" fill="#544f57"/><path d="m225.574 504.491h-199.623c-6.615 0-11.978-5.363-11.978-11.978v-31.995c0-6.615 5.363-11.978 11.978-11.978h199.623c6.615 0 11.978 5.363 11.978 11.978v31.995c0 6.616-5.363 11.978-11.978 11.978z" fill="#544f57"/><path d="m225.574 448.541h-21.385c6.615 0 11.978 5.362 11.978 11.978v31.995c0 6.615-5.363 11.978-11.978 11.978h21.385c6.615 0 11.978-5.363 11.978-11.978v-31.995c0-6.615-5.363-11.978-11.978-11.978z" fill="#454045"/><path d="m201.969 448.541h-152.413v-27.464c0-7.046 5.712-12.758 12.758-12.758h126.897c7.046 0 12.758 5.712 12.758 12.758z" fill="#f6f1f1"/><path d="m189.211 408.319h-21.385c7.046 0 12.758 5.712 12.758 12.758v27.464h21.385v-27.464c0-7.046-5.712-12.758-12.758-12.758z" fill="#efe7e4"/><path d="m186.759 323.256c0-30.975-25.369-56.025-56.463-55.506-30.438.508-54.564 25.977-54.564 56.419v84.149h93.417v-27.478c0-9.618 3.054-18.92 8.376-26.932 5.833-8.782 9.234-19.318 9.234-30.652z" fill="#80b4fb"/><path d="m130.296 267.751c-3.293.055-6.506.418-9.629 1.033 25.53 4.994 44.798 27.48 44.798 54.473 0 11.334-3.401 21.87-9.234 30.652-5.322 8.012-8.376 17.313-8.376 26.932v27.479h21.294v-27.48c0-9.618 3.054-18.92 8.375-26.932 5.833-8.782 9.235-19.318 9.235-30.652 0-30.974-25.369-56.025-56.463-55.505z" fill="#61a2f9"/><circle cx="131.245" cy="323.257" fill="#da4a54" r="17.392"/><path d="m186.759 63.014c0-30.975-25.369-56.025-56.463-55.506-30.438.509-54.564 25.977-54.564 56.42v68.279c0 8.765 7.105 15.87 15.87 15.87h61.676c8.765 0 15.87-7.105 15.87-15.87v-11.609c0-9.618 3.054-18.92 8.376-26.932 5.834-8.782 9.235-19.318 9.235-30.652z" fill="#80b4fb"/><path d="m130.296 7.508c-3.283.055-6.486.417-9.6 1.027 25.543 4.984 44.824 27.477 44.824 54.479 0 11.334-3.401 21.87-9.235 30.652-5.322 8.012-8.375 17.313-8.375 26.932v11.608c0 8.765-7.105 15.871-15.87 15.871h21.239c8.765 0 15.87-7.105 15.87-15.871v-11.608c0-9.618 3.054-18.92 8.375-26.932 5.833-8.782 9.235-19.318 9.235-30.652 0-30.975-25.369-56.025-56.463-55.506z" fill="#61a2f9"/><circle cx="131.245" cy="63.014" fill="#da4a54" r="17.392"/><path d="m104.377 148.077h40.466v91.393h-40.466z" fill="#f6f1f1"/><path d="m104.377 223.131h40.466v16.339h-40.466z" fill="#efe7e4"/><path d="m104.377 148.077h40.466v16.339h-40.466z" fill="#efe7e4"/><path d="m67.906 476.516h115.713v27.975h-115.713z" fill="#da4a54"/><path d="m165.465 476.516h18.153v27.975h-18.153z" fill="#c63d4f"/><g><path d="m503.616 143.891-25.953-32.567c-2.581-3.239-7.3-3.773-10.539-1.191-3.239 2.581-3.773 7.3-1.191 10.539l5.46 6.852-30.807-17.699c-3.692-2.122-8.153-2.22-11.936-.262l-19.003 9.837-15.045-16.108 41.013-20.66 11.625 14.587c2.582 3.237 7.299 3.771 10.54 1.19 3.239-2.582 3.771-7.301 1.19-10.54l-12.912-16.2c-3.655-4.59-10.11-5.999-15.347-3.362l-46.854 23.602c-2.835-2.478-6.503-3.922-10.286-4.011l-58.502-1.368c-6.771-.182-12.918 3.937-15.408 10.187l-1.21 3.039-70.969-28.266 1.179-2.959c2.543-6.385-.583-13.649-6.969-16.192l-31.91-12.708c-3.191-7.993-8.023-15.318-14.355-21.545-12.141-11.941-28.214-18.361-45.255-18.077-34.154.571-61.94 29.245-61.94 63.919v16.162c0 4.143 3.357 7.5 7.5 7.5s7.5-3.357 7.5-7.5v-16.162c0-26.54 21.169-48.486 47.189-48.921 12.944-.206 25.236 4.675 34.487 13.772 9.342 9.187 14.35 21.477 14.35 34.234 0 9.478-2.76 18.642-7.981 26.503-6.443 9.7-9.628 20.519-9.628 31.081v11.608c0 4.616-3.755 8.371-8.371 8.371-2.344 0-10.731-.001-61.676 0-4.615 0-8.37-3.755-8.37-8.371v-22.13c0-4.143-3.357-7.5-7.5-7.5s-7.5 3.357-7.5 7.5v22.13c0 12.887 10.483 23.371 23.37 23.371h5.274v76.391h-3.185c-6.873 0-12.465 5.592-12.465 12.465v41.05c-8.135 10.779-12.995 24.205-12.995 38.688v76.649h-5.918c-11.17 0-20.258 9.088-20.258 20.258v19.964h-16.104c-10.74 0-19.478 8.737-19.478 19.478v31.995c0 10.74 8.737 19.478 19.478 19.478h199.623c10.74 0 19.478-8.737 19.478-19.478v-31.995c0-10.74-8.737-19.478-19.478-19.478h-16.105v-19.964c0-11.17-9.088-20.258-20.258-20.258h-12.562v-19.979c0-7.889 2.463-15.767 7.122-22.781 6.861-10.329 10.488-22.363 10.488-34.803 0-17.03-6.688-32.986-18.831-44.929-2.339-2.3-4.826-4.391-7.436-6.274v-27.621c0-6.873-5.592-12.465-12.465-12.465h-3.186v-76.391h.936c12.887 0 23.371-10.484 23.371-23.371v-4.412l12.939 5.153c1.508.601 3.064.885 4.597.885 4.956 0 9.652-2.976 11.596-7.853l1.179-2.959 70.969 28.264-1.21 3.04c-2.488 6.25-.807 13.479 4.186 17.99l43.425 39.224c2.807 2.537 6.462 3.992 10.222 4.143l17.806 49.366c1.791 4.971 6.562 8.233 11.74 8.233.568 0 1.143-.039 1.717-.12l91.457-12.88c4.146-.588 7.301-4.051 7.501-8.233.2-4.184-2.609-7.931-6.679-8.91l-65.16-15.707-5.25-15.076c5.299-1.071 9.818-4.77 11.85-9.87l4.356-10.938 9.635 3.838c3.848 1.532 8.21-.344 9.743-4.192 1.532-3.849-.345-8.21-4.192-9.743l-9.636-3.838 2.615-6.566 9.635 3.838c3.846 1.531 8.21-.345 9.742-4.193s-.345-8.21-4.192-9.742l-9.636-3.837 4.356-10.938c2.03-5.101 1.291-10.893-1.821-15.313l14.176-7.339 58.121 33.393c3.632 2.085 8.25 1.292 10.979-1.888 2.727-3.179 2.812-7.863.202-11.134zm-273.564 316.628v31.995c0 2.469-2.009 4.478-4.478 4.478h-34.455v-20.475c0-4.143-3.357-7.5-7.5-7.5h-47.958c-4.143 0-7.5 3.357-7.5 7.5s3.357 7.5 7.5 7.5h40.458v12.975h-100.713v-12.975h30.268c4.143 0 7.5-3.357 7.5-7.5s-3.357-7.5-7.5-7.5h-37.768c-4.143 0-7.5 3.357-7.5 7.5v20.475h-34.455c-2.469 0-4.478-2.009-4.478-4.478v-31.995c0-2.469 2.009-4.478 4.478-4.478h199.623c2.469 0 4.478 2.009 4.478 4.478zm-35.583-39.442v19.964h-137.413v-19.964c0-2.899 2.358-5.258 5.258-5.258h126.896c2.9.001 5.259 2.359 5.259 5.258zm-15.209-97.821c0 9.477-2.761 18.641-7.982 26.503-6.299 9.482-9.628 20.23-9.628 31.081v19.979h-78.418v-76.649c0-26.54 21.169-48.486 47.189-48.921 26.413-.491 48.839 20.768 48.839 48.007zm-26.267-59.169c-7.202-2.646-14.904-3.978-22.821-3.835-12.526.209-24.188 4.211-33.944 10.89v-24.173c57.422.002 49.403 0 56.766 0v17.118zm-15.65-32.119h-25.466v-76.391h25.466zm55.441-113.894-15.166-6.039c1.118-4.942 3.189-9.755 6.153-14.218 6.861-10.328 10.487-22.362 10.487-34.803 0-1.867-.095-3.719-.254-5.556l19.783 7.879c-1.763 4.416-20.106 50.485-21.003 52.737zm19.726-8.989 9.423-23.659 70.969 28.264-4.711 11.83-4.711 11.83zm78.45 52.098c-.364-.328-.486-.855-.306-1.31 8.685-21.806 18.185-45.661 22.943-57.607.178-.446.615-.741 1.094-.741h.027l58.502 1.368c.314.007.619.144.833.373-.507-.543 31.832 34.081 33.734 36.118.311.332.401.819.234 1.239-2.736 6.869-20.107 50.488-22.426 56.309-.168.422-.569.713-1.021.74-21.472 1.322-28.608 1.761-49.329 3.037-.333.008-.629-.091-.861-.302zm131.651 88.83-56.845 8.005-15.582-43.2 22-1.354 7.038 20.208c1.4 4.021 4.708 7.018 8.845 8.014z"/><path d="m342.61 167.142c3.858 1.534 8.213-.351 9.743-4.192l8.799-22.093c1.532-3.849-.345-8.211-4.192-9.743-3.851-1.534-8.211.345-9.743 4.192l-8.799 22.093c-1.533 3.848.344 8.211 4.192 9.743z"/><path d="m131.246 298.365c-13.726 0-24.892 11.166-24.892 24.891 0 13.726 11.166 24.892 24.892 24.892s24.892-11.166 24.892-24.892c-.001-13.725-11.167-24.891-24.892-24.891zm0 34.783c-5.454 0-9.892-4.438-9.892-9.892s4.438-9.891 9.892-9.891 9.892 4.437 9.892 9.891-4.438 9.892-9.892 9.892z"/><path d="m156.137 63.014c0-13.726-11.166-24.892-24.892-24.892s-24.892 11.166-24.892 24.892 11.166 24.892 24.892 24.892 24.892-11.166 24.892-24.892zm-34.783 0c0-5.454 4.438-9.892 9.892-9.892s9.892 4.438 9.892 9.892-4.438 9.892-9.892 9.892-9.892-4.438-9.892-9.892z"/></g></g></svg>