<svg fill="#fff" id="Capa_1" enable-background="new 0 0 512 512" height="512" viewBox="0 0 512 512" width="512" xmlns="http://www.w3.org/2000/svg"><g><circle cx="286" cy="474.5" r="7.5"/><circle cx="316" cy="474.5" r="7.5"/><path d="m256 467h-60c-4.142 0-7.5 3.357-7.5 7.5s3.358 7.5 7.5 7.5h60c4.142 0 7.5-3.357 7.5-7.5s-3.358-7.5-7.5-7.5z"/><path d="m421 0h-330c-20.678 0-37.5 16.822-37.5 37.5v437c0 20.678 16.822 37.5 37.5 37.5h330c20.678 0 37.5-16.822 37.5-37.5v-437c0-20.678-16.822-37.5-37.5-37.5zm22.5 474.5c0 12.406-10.093 22.5-22.5 22.5h-330c-12.407 0-22.5-10.094-22.5-22.5v-437c0-12.406 10.093-22.5 22.5-22.5h330c12.407 0 22.5 10.094 22.5 22.5z"/><path d="m256 75c12.407 0 22.5-10.094 22.5-22.5s-10.093-22.5-22.5-22.5-22.5 10.094-22.5 22.5 10.093 22.5 22.5 22.5zm0-30c4.136 0 7.5 3.364 7.5 7.5s-3.364 7.5-7.5 7.5-7.5-3.364-7.5-7.5 3.364-7.5 7.5-7.5z"/><path d="m421 60h-116.367c-1.988 0-3.896.79-5.302 2.195-10.516 10.511-16.843 16.818-16.843 16.818-7.091 7.086-16.498 10.987-26.488 10.987-9.983 0-19.405-3.905-26.517-10.984l-16.82-16.819c-1.406-1.407-3.313-2.197-5.303-2.197h-116.36c-4.142 0-7.5 3.357-7.5 7.5v173.5c0 4.143 3.358 7.5 7.5 7.5s7.5-3.357 7.5-7.5v-166h105.754l14.635 14.635c9.955 9.908 23.134 15.365 37.111 15.365 13.994 0 27.167-5.46 37.09-15.375.425-.419 14.648-14.625 14.648-14.625h105.762v362h-315v-166c0-4.143-3.358-7.5-7.5-7.5s-7.5 3.357-7.5 7.5v173.5c0 4.143 3.358 7.5 7.5 7.5h330c4.142 0 7.5-3.357 7.5-7.5v-377c0-4.143-3.358-7.5-7.5-7.5z"/></g></svg>