<svg id="Capa_1" enable-background="new 0 0 511.991 511.991" height="512" viewBox="0 0 511.991 511.991" width="512" xmlns="http://www.w3.org/2000/svg"><g><g><path d="m241.271 126.836-114.435 114.435-116.238-116.239c-4.142-4.142-4.142-10.857 0-14.999l99.436-99.436c4.142-4.142 10.857-4.142 14.999 0z" fill="#e2e2e2"/><g fill="#838383"><path d="m151.82 92.564-11.999 11.999c-2.071 2.071-5.428 2.071-7.499 0l-31.497-31.497c-2.071-2.071-2.071-5.428 0-7.499l11.999-11.999c2.071-2.071 5.428-2.071 7.499 0l31.497 31.497c2.07 2.071 2.07 5.429 0 7.499z"/><path d="m105.053 139.332-11.999 11.998c-2.071 2.071-5.428 2.071-7.499 0l-31.497-31.497c-2.071-2.071-2.071-5.428 0-7.499l11.999-11.999c2.071-2.071 5.428-2.071 7.499 0l31.497 31.497c2.07 2.071 2.07 5.429 0 7.5z"/></g><path d="m488.96 410.468-78.492 78.492c-20.709 20.709-54.284 20.709-74.993 0l-263.233-263.233c-3.548-3.548-3.548-9.301 0-12.85l140.635-140.635c3.548-3.548 9.301-3.548 12.85 0l263.233 263.233c20.709 20.709 20.709 54.284 0 74.993z" fill="#528fd8"/><path d="m355.729 289.355-66.374 66.374c-2.485 2.485-6.514 2.485-8.999 0l-144.736-144.736c-2.485-2.485-2.485-6.514 0-8.999l66.374-66.374c2.485-2.485 6.514-2.485 8.999 0l144.736 144.736c2.485 2.485 2.485 6.514 0 8.999z" fill="#b2caec"/><path d="m212.877 72.242-28.062 28.062c3.548-3.548 9.301-3.548 12.85 0l263.233 263.233c20.709 20.709 20.709 54.284 0 74.993l28.062-28.062c20.709-20.709 20.709-54.284 0-74.993l-263.233-263.233c-3.548-3.548-9.301-3.548-12.85 0z" fill="#0473ce"/><path d="m488.96 335.475-66.428-66.428-153.485 153.485 66.428 66.428c20.709 20.709 54.284 20.709 74.993 0l78.492-78.492c20.709-20.709 20.709-54.284 0-74.993z" fill="#0055a3"/><path d="m394.471 297.109 66.428 66.428c20.709 20.709 20.709 54.284 0 74.993l28.062-28.062c20.709-20.709 20.709-54.284 0-74.993l-66.428-66.428z" fill="#004281"/></g><g><path d="m127.018 109.866c5.004 5.004 13.102 5.004 18.105 0l11.999-11.999c5.004-5.004 5.004-13.102 0-18.106l-31.497-31.496c-5.003-5.004-13.102-5.005-18.106 0l-11.998 11.999c-5.004 5.004-5.004 13.102 0 18.106zm-10.445-49.441 28.39 28.389-8.892 8.892-28.39-28.389z"/><path d="m98.357 156.633 11.999-11.999c5.004-5.004 5.004-13.102 0-18.106l-31.497-31.495c-5.003-5.004-13.102-5.005-18.106 0l-11.999 11.999c-5.004 5.004-5.004 13.102 0 18.106l31.497 31.497c5.004 5.003 13.102 5.002 18.106-.002zm-37.443-40.549 8.892-8.892 28.39 28.389-8.892 8.892z"/><path d="m494.263 330.172c-8.739-8.739-180.707-180.707-188.007-188.007-2.929-2.929-7.678-2.929-10.606 0-2.929 2.929-2.929 7.678 0 10.606l116.276 116.276-142.879 142.879-191.502-191.503c-.621-.621-.621-1.622 0-2.243 1.649-1.649 129.867-129.866 140.635-140.634.622-.622 1.622-.623 2.244-.001l50.478 50.478c2.929 2.929 7.678 2.929 10.606 0 2.929-2.929 2.929-7.678 0-10.606l-50.478-50.479c-6.483-6.481-16.971-6.483-23.456.001l-7.797 7.797-69.441-69.441c-7.06-7.06-18.545-7.059-25.605 0l-99.436 99.436c-7.06 7.059-7.06 18.546 0 25.605l69.441 69.441-7.798 7.798c-6.482 6.484-6.482 16.973.001 23.456 3.16 3.16 226.475 226.476 232.865 232.865 2.929 2.929 7.678 2.929 10.606 0 2.929-2.929 2.929-7.678 0-10.606l-30.756-30.756 142.879-142.879 61.125 61.125c8.599 8.599 13.334 20.033 13.334 32.193 0 12.161-4.735 23.594-13.334 32.193l-78.493 78.492c-8.6 8.599-20.033 13.335-32.193 13.335s-23.594-4.736-32.193-13.335l-5.619-5.619c-2.929-2.929-7.678-2.929-10.606 0-2.929 2.929-2.929 7.678 0 10.606l5.619 5.619c11.432 11.433 26.632 17.729 42.799 17.729s31.367-6.296 42.8-17.729l78.493-78.492c11.432-11.431 17.728-26.631 17.728-42.799-.002-16.169-6.297-31.369-17.73-42.801zm-478.362-210.443c-1.211-1.211-1.211-3.181 0-4.392l99.436-99.436c1.211-1.211 3.181-1.211 4.392 0l69.441 69.441-103.828 103.828z"/><path d="m196.691 130.317-66.374 66.374c-5.405 5.405-5.405 14.201 0 19.606l144.735 144.735c5.418 5.42 14.187 5.419 19.606 0l66.374-66.374c5.404-5.405 5.404-14.2 0-19.605l-144.735-144.736c-5.406-5.405-14.201-5.406-19.606 0zm88.165 219.305-143.129-143.129 64.767-64.766 143.128 143.128z"/></g></g></svg>