<?xml version="1.0" encoding="utf-8"?>
<!-- Generator: Adobe Illustrator 25.2.3, SVG Export Plug-In . SVG Version: 6.00 Build 0)  -->
<svg version="1.1" id="Layer_1" xmlns="http://www.w3.org/2000/svg" xmlns:xlink="http://www.w3.org/1999/xlink" x="0px" y="0px"
	 viewBox="0 0 512 512" style="enable-background:new 0 0 512 512;" xml:space="preserve">
<style type="text/css">
	.st0{fill:#394CFF;}
</style>
<g id="Robot-2">
	<path class="st0" d="M320,112H192c-22.1,0-40,17.9-40,40v16c0,22.1,17.9,40,40,40h128c22.1,0,40-17.9,40-40v-16
		C360,129.9,342.1,112,320,112z M344,168c0,13.3-10.7,24-24,24H192c-13.3,0-24-10.7-24-24v-16c0-13.3,10.7-24,24-24h128
		c13.3,0,24,10.7,24,24V168z"/>
	<path class="st0" d="M216,136c-13.3,0-24,10.7-24,24s10.7,24,24,24s24-10.7,24-24S229.3,136,216,136z M216,168c-4.4,0-8-3.6-8-8
		s3.6-8,8-8s8,3.6,8,8S220.4,168,216,168z"/>
	<path class="st0" d="M296,136c-13.3,0-24,10.7-24,24s10.7,24,24,24s24-10.7,24-24S309.3,136,296,136z M296,168c-4.4,0-8-3.6-8-8
		s3.6-8,8-8s8,3.6,8,8S300.4,168,296,168z"/>
	<path class="st0" d="M224,224h64v16h-64V224z"/>
	<path class="st0" d="M176,224h16v16h-16V224z"/>
	<path class="st0" d="M320,224h16v16h-16V224z"/>
	<path class="st0" d="M48,408c0,30.9,25.1,56,56,56h304c30.9,0,56-25.1,56-56s-25.1-56-56-56H104C73.1,352,48,377.1,48,408z M64,408
		c0-19,13.4-35.4,32.1-39.2c-21.4,21.7-21.4,56.7,0,78.4C77.4,443.4,64,427,64,408L64,408z M176,408c0,22.1-17.9,40-40,40
		s-40-17.9-40-40s17.9-40,40-40C158.1,368,176,385.9,176,408z M216,408c0-22.1,17.9-40,40-40s40,17.9,40,40s-17.9,40-40,40
		C233.9,448,216,430.1,216,408z M336,408c0-22.1,17.9-40,40-40s40,17.9,40,40s-17.9,40-40,40C353.9,448,336,430.1,336,408z M448,408
		c0,19-13.4,35.4-32.1,39.2c21.4-21.7,21.4-56.7,0-78.4C434.6,372.6,448,389,448,408L448,408z M336.9,368c-22.1,21.5-22.6,56.9-1,79
		c0.3,0.4,0.7,0.7,1,1h-41.8c22.1-21.5,22.6-56.9,1-79c-0.3-0.4-0.7-0.7-1-1H336.9z M216.9,368c-22.1,21.5-22.6,56.9-1,79
		c0.3,0.4,0.7,0.7,1,1h-41.8c22.1-21.5,22.6-56.9,1-79c-0.3-0.4-0.7-0.7-1-1H216.9z"/>
	<path class="st0" d="M256,384c-13.3,0-24,10.7-24,24s10.7,24,24,24c13.3,0,24-10.7,24-24S269.3,384,256,384z M256,416
		c-4.4,0-8-3.6-8-8s3.6-8,8-8s8,3.6,8,8S260.4,416,256,416z"/>
	<path class="st0" d="M376,384c-13.3,0-24,10.7-24,24s10.7,24,24,24s24-10.7,24-24S389.3,384,376,384z M376,416c-4.4,0-8-3.6-8-8
		s3.6-8,8-8s8,3.6,8,8S380.4,416,376,416z"/>
	<path class="st0" d="M136,432c13.3,0,24-10.7,24-24s-10.7-24-24-24s-24,10.7-24,24S122.7,432,136,432z M136,400c4.4,0,8,3.6,8,8
		s-3.6,8-8,8s-8-3.6-8-8S131.6,400,136,400z"/>
	<path class="st0" d="M456,304c4.4,0,8-3.6,8-8v-48h8c4.4,0,8-3.6,8-8V120h8c4.4,0,8-3.6,8-8V80c0-4.4-3.6-8-8-8h-8V16h-16v56h-16
		V16h-16v56h-8c-4.4,0-8,3.6-8,8v32c0,4.4,3.6,8,8,8h8v120c0,4.4,3.6,8,8,8h8v40h-88v-16h8c13.3,0,24-10.7,24-24V104
		c0-13.3-10.7-24-24-24h-40v-8c0-13.3-10.7-24-24-24h-16v-8c0-13.3-10.7-24-24-24h-16c-13.3,0-24,10.7-24,24v8h-16
		c-13.3,0-24,10.7-24,24v8h-40c-13.3,0-24,10.7-24,24v144c0,13.3,10.7,24,24,24h8v16H64v-40h8c4.4,0,8-3.6,8-8V120h8
		c4.4,0,8-3.6,8-8V80c0-4.4-3.6-8-8-8h-8V16H64v56H48V16H32v56h-8c-4.4,0-8,3.6-8,8v32c0,4.4,3.6,8,8,8h8v120c0,4.4,3.6,8,8,8h8v48
		c0,4.4,3.6,8,8,8h96v16h-48c-48.6,0-88,39.4-88,88s39.4,88,88,88h304c48.6,0,88-39.4,88-88s-39.4-88-88-88h-48v-16H456z M432,88h48
		v16h-48V88z M464,120v112h-16V120H464z M32,88h48v16H32V88z M64,120v112H48V120H64z M240,40c0-4.4,3.6-8,8-8h16c4.4,0,8,3.6,8,8v8
		h-32V40z M200,72c0-4.4,3.6-8,8-8h96c4.4,0,8,3.6,8,8v8H200V72z M136,248V104c0-4.4,3.6-8,8-8h224c4.4,0,8,3.6,8,8v144
		c0,4.4-3.6,8-8,8H144C139.6,256,136,252.4,136,248z M480,408c0,39.7-32.3,72-72,72H104c-39.8,0-72-32.2-72-72s32.2-72,72-72h304
		C447.7,336,480,368.3,480,408z M168,320v-48h176v48H168z"/>
</g>
</svg>
