<?xml version="1.0" encoding="utf-8"?>
<!-- Generator: Adobe Illustrator 25.2.3, SVG Export Plug-In . SVG Version: 6.00 Build 0)  -->
<svg version="1.1" id="Layer_5" xmlns="http://www.w3.org/2000/svg" xmlns:xlink="http://www.w3.org/1999/xlink" x="0px" y="0px"
	 viewBox="0 0 512 512" style="enable-background:new 0 0 512 512;" xml:space="preserve">
<style type="text/css">
	.st0{fill:#394CFF;}
</style>
<g>
	<path class="st0" d="M280,360h16v16h-16V360z"/>
	<path class="st0" d="M248,360h16v16h-16V360z"/>
	<path class="st0" d="M216,360h16v16h-16V360z"/>
	<path class="st0" d="M376,8c-40.3,0-76.3,18.8-99.8,48H48C25.9,56,8,73.9,8,96v272c0,22.1,17.9,40,40,40h133.8l-12,48H136
		c-13.2,0-24,10.8-24,24v24h288v-24c0-13.2-10.8-24-24-24h-33.8l-12-48H464c22.1,0,40-17.9,40-40V144v-8C504,65.4,446.6,8,376,8z
		 M279.5,328c-4-35.9-34.5-64-71.5-64s-67.5,28.1-71.5,64H104v-9.7l18.8-4.6l1.4-4.3c1.5-4.6,3.4-9.2,5.8-13.8l2.1-4l-10-16.6
		l25.1-25.1l16.6,10l4-2.1c4.6-2.4,9.2-4.3,13.8-5.8l4.3-1.4l4.6-18.8h35.5l4.6,18.8l4.3,1.4c4.6,1.4,9.2,3.4,13.8,5.8l4,2.1
		l16.6-10l25.1,25.1l-10,16.6l2.1,4c2.4,4.6,4.3,9.2,5.8,13.8l1.4,4.3l18.8,4.6v9.7H279.5z M263.4,328H152.6
		c3.9-27.1,27.2-48,55.4-48S259.5,300.9,263.4,328z M305.6,300.2c-1-2.7-2.1-5.3-3.3-8l11.9-19.7l-42.8-42.8l-19.7,11.9
		c-2.6-1.2-5.3-2.3-8-3.3l-5.5-22.3h-60.5l-5.5,22.4c-2.7,1-5.3,2.1-8,3.3l-19.7-11.9l-42.8,42.8l11.9,19.7c-1.2,2.6-2.3,5.3-3.3,8
		L88,305.7V328H56V104h196.2c-2.7,10.2-4.2,20.9-4.2,32v8h16.4c4.1,58,52.5,104,111.6,104c31.3,0,59.7-13,80-33.8V328H328v-22.3
		L305.6,300.2z M275.3,87.1l13.9,8c-4.8,10.1-7.9,21.2-8.9,32.9h-16C265.3,113.4,269.2,99.6,275.3,87.1z M376,232
		c-50.2,0-91.5-38.8-95.6-88H296v-8c0-44.1,35.9-80,80-80s80,35.9,80,80v8h15.6C467.5,193.2,426.2,232,376,232z M384,40.4v-16
		c14.6,1,28.4,4.8,40.9,11l-8,13.9C406.7,44.4,395.7,41.4,384,40.4L384,40.4z M368,40.4c-11.7,1-22.7,4.1-32.9,8.8l-8-13.9
		c12.5-6.1,26.3-9.9,40.9-11L368,40.4z M471.7,128c-1-11.7-4.1-22.7-8.9-32.9l13.9-8c6.1,12.5,10,26.3,11,40.9H471.7z M468.6,73.3
		l-13.9,8c-6.5-9.4-14.7-17.5-24-24l8-13.9C450.5,51.4,460.6,61.5,468.6,73.3L468.6,73.3z M313.3,43.4l8,13.9
		c-9.4,6.5-17.5,14.7-24,24l-13.9-8C291.4,61.5,301.5,51.4,313.3,43.4L313.3,43.4z M384,480v8H128v-8c0-4.4,3.6-8,8-8h240
		C380.4,472,384,475.6,384,480z M325.8,456H186.2l12-48h115.5L325.8,456z M488,368c0,13.2-10.8,24-24,24H48c-13.2,0-24-10.8-24-24
		V96c0-13.2,10.8-24,24-24h217.3c-3,5.1-5.6,10.5-7.9,16H56c-8.8,0-16,7.2-16,16v224c0,8.8,7.2,16,16,16h400c8.8,0,16-7.2,16-16
		V193.4c8.8-14.6,14.3-31.4,15.6-49.4h0.4V368z"/>
	<path class="st0" d="M384,153.5V72h-16v81.5c-9.3,3.3-16,12.1-16,22.5s6.7,19.2,16,22.5V216h16v-17.5c9.3-3.3,16-12.1,16-22.5
		S393.3,156.8,384,153.5z M376,184c-4.4,0-8-3.6-8-8s3.6-8,8-8s8,3.6,8,8S380.4,184,376,184z"/>
	<path class="st0" d="M96,152c-13.2,0-24,10.8-24,24s10.8,24,24,24s24-10.8,24-24S109.2,152,96,152z M96,184c-4.4,0-8-3.6-8-8
		s3.6-8,8-8s8,3.6,8,8S100.4,184,96,184z"/>
	<path class="st0" d="M160,152c-13.2,0-24,10.8-24,24s10.8,24,24,24s24-10.8,24-24S173.2,152,160,152z M160,184c-4.4,0-8-3.6-8-8
		s3.6-8,8-8s8,3.6,8,8S164.4,184,160,184z"/>
	<path class="st0" d="M224,152c-13.2,0-24,10.8-24,24s10.8,24,24,24s24-10.8,24-24S237.2,152,224,152z M224,184c-4.4,0-8-3.6-8-8
		s3.6-8,8-8s8,3.6,8,8S228.4,184,224,184z"/>
	<path class="st0" d="M424,296h16v16h-16V296z"/>
	<path class="st0" d="M344,296h64v16h-64V296z"/>
	<path class="st0" d="M344,264h96v16h-96V264z"/>
	<path class="st0" d="M416.8,110.6c2.3,3.6,4,7.6,5.2,11.6l15.3-4.5c-1.6-5.4-4-10.7-7-15.5L416.8,110.6z"/>
	<path class="st0" d="M403.4,78.2l-6.9,14.5c4.1,2,8,4.5,11.4,7.6l10.7-11.9C414,84.2,408.9,80.8,403.4,78.2L403.4,78.2z"/>
	<path class="st0" d="M104,120h16v16h-16V120z"/>
	<path class="st0" d="M72,120h16v16H72V120z"/>
	<path class="st0" d="M136,120h16v16h-16V120z"/>
</g>
</svg>
