<?xml version="1.0" encoding="utf-8"?>
<!-- Generator: Adobe Illustrator 25.2.3, SVG Export Plug-In . SVG Version: 6.00 Build 0)  -->
<svg version="1.1" id="Layer_1" xmlns="http://www.w3.org/2000/svg" xmlns:xlink="http://www.w3.org/1999/xlink" x="0px" y="0px"
	 viewBox="0 0 512 512" style="enable-background:new 0 0 512 512;" xml:space="preserve">
<style type="text/css">
	.st0{fill:#394CFF;}
</style>
<g>
	<path class="st0" d="M500.9,110.8c-9.7-21.9-35.2-31.8-57.1-22.1C428.2,95.6,418,111,417.9,128H16c-4.4,0-8,3.6-8,8v240
		c0,4.4,3.6,8,8,8h35.7c13.3,42.2,58.2,65.6,100.3,52.3c24.9-7.8,44.5-27.4,52.3-52.3H496c4.4,0,8-3.6,8-8V143.5
		c0-1.4-0.3-2.7-1-3.9C505.6,130.1,504.9,119.9,500.9,110.8z M128,424c-32.2,0-59.4-24-63.5-56h59.7l37.6,45.1
		c0.2,0.3,0.4,0.5,0.7,0.7C152.2,420.5,140.3,424,128,424z M64.5,352c4.4-35,36.4-59.9,71.4-55.5c7.9,1,15.5,3.4,22.4,7.2L123.9,352
		H64.5z M174.7,403.7c-0.2-0.3-0.4-0.5-0.6-0.8l-36-43.3l33.3-46.6c25.9,23.9,27.6,64.3,3.7,90.2C175,403.4,174.9,403.5,174.7,403.7
		L174.7,403.7z M488,368H207.6c0.3-2.6,0.4-5.3,0.4-8c0-44.2-35.8-80-80-80s-80,35.8-80,80c0,2.7,0.1,5.4,0.4,8H24V144h396.9
		c0.2,0.6,0.5,1.2,0.8,1.8c3,6.7,7.6,12.6,13.5,17l-13.5,35c-9.4-3.4-19.8-0.6-26.3,7c0,0,0,0,0,0l0,0l-42.2-16.3
		c0.3-10.2-5.9-19.4-15.3-23.1c-12.4-4.8-26.3,1.3-31,13.7c-3.7,9.5-1,20.3,6.8,26.9l-16.3,42.2c-13.3-0.5-24.5,10-25,23.3
		c-0.5,13.3,10,24.5,23.3,25c13.3,0.5,24.5-10,25-23.3c0.2-7.3-2.9-14.4-8.4-19.2c0,0,0,0,0,0l16.3-42.2v0c0.2,0,0.5,0,0.7,0
		c7,0,13.6-3.1,18.2-8.4c0,0,0,0,0,0l42.2,16.3c-0.4,13.3,10,24.3,23.3,24.7s24.3-10,24.7-23.3c0.1-3.6-0.6-7.1-2-10.4
		c-0.3-0.7-0.6-1.3-1-1.9l15-38.8c9.7,2.8,20.1,2,29.3-2.1c3.3-1.5,6.4-3.3,9.3-5.6L488,368z M416.7,227.7c-4,1.9-8.8,0.1-10.6-3.9
		s-0.1-8.8,3.9-10.6c0.1,0,0.2-0.1,0.3-0.1c1-0.5,2.1-0.7,3.2-0.7c4.4,0,8,3.6,8,8C421.5,223.6,419.6,226.4,416.7,227.7z
		 M336.5,190.6c-1.6,4.1-6.2,6.2-10.4,4.6c-4.1-1.6-6.2-6.2-4.6-10.4c0.8-2,2.3-3.6,4.2-4.4c1-0.4,2.1-0.7,3.2-0.7
		c1,0,2,0.2,2.9,0.5C336.1,181.9,338.1,186.5,336.5,190.6z M299.6,279.5c-4,1.8-8.8,0-10.5-4.1c-1.8-4,0-8.8,4.1-10.5
		c1-0.4,2.1-0.7,3.2-0.7c1,0,2,0.2,2.9,0.5c4.1,1.6,6.2,6.2,4.6,10.3C303.1,277,301.6,278.6,299.6,279.5L299.6,279.5z M472.3,153.3
		c-13.8,6.1-29.9-0.1-36-13.9s0.1-29.9,13.9-36c13.8-6.1,29.9,0.1,36,13.9c0,0,0,0,0,0c6.1,13.7,0,29.7-13.6,35.9
		C472.5,153.2,472.4,153.3,472.3,153.3z"/>
	<path class="st0" d="M472,296h-80c-4.4,0-8,3.6-8,8s3.6,8,8,8h80c4.4,0,8-3.6,8-8S476.4,296,472,296z"/>
	<path class="st0" d="M472,320h-56c-4.4,0-8,3.6-8,8s3.6,8,8,8h56c4.4,0,8-3.6,8-8S476.4,320,472,320z"/>
	<path class="st0" d="M472,344h-16c-4.4,0-8,3.6-8,8s3.6,8,8,8h16c4.4,0,8-3.6,8-8S476.4,344,472,344z"/>
	<path class="st0" d="M432,344h-8c-4.4,0-8,3.6-8,8s3.6,8,8,8h8c4.4,0,8-3.6,8-8S436.4,344,432,344z"/>
	<path class="st0" d="M256,248.1V184c0-4.4-3.6-8-8-8h-32c-4.4,0-8,3.6-8,8v64h-8v-80c0-4.4-3.6-8-8-8h-32c-4.4,0-8,3.6-8,8v80h-8
		v-24c0-4.4-3.6-8-8-8h-32c-4.4,0-8,3.6-8,8v24h-8v-64c0-4.4-3.6-8-8-8H48c-4.4,0-8,3.6-8,8v64c-4.4,0-8,3.6-8,8s3.6,8,8,8h215
		c4.4,0,8-3.6,7.9-8.1C262.9,252,260,248.6,256,248.1z M72,248H56v-56h16V248z M128,248h-16v-16h16V248z M184,248h-16v-72h16V248z
		 M240,248h-16v-56h16V248z"/>
	<path class="st0" d="M320,320h-96c-4.4,0-8,3.6-8,8v24c0,4.4,3.6,8,8,8h96c4.4,0,8-3.6,8-8v-24C328,323.6,324.4,320,320,320z
		 M312,344h-80v-8h80V344z"/>
</g>
</svg>
