<?xml version="1.0" encoding="utf-8"?>
<!-- Generator: Adobe Illustrator 25.2.3, SVG Export Plug-In . SVG Version: 6.00 Build 0)  -->
<svg version="1.1" id="Capa_1" xmlns="http://www.w3.org/2000/svg" xmlns:xlink="http://www.w3.org/1999/xlink" x="0px" y="0px"
	 viewBox="0 0 480 480" style="enable-background:new 0 0 480 480;" xml:space="preserve">
<style type="text/css">
	.st0{fill:#394CFF;}
</style>
<g>
	<g>
		<g>
			<rect x="40" y="48" class="st0" width="104" height="16"/>
		</g>
	</g>
	<g>
		<g>
			<rect x="40" y="80" class="st0" width="104" height="16"/>
		</g>
	</g>
	<g>
		<g>
			<rect x="40" y="112" class="st0" width="72" height="16"/>
		</g>
	</g>
	<g>
		<g>
			<rect x="40" y="144" class="st0" width="72" height="16"/>
		</g>
	</g>
	<g>
		<g>
			<rect x="0" y="464" class="st0" width="480" height="16"/>
		</g>
	</g>
	<g>
		<g>
			<path class="st0" d="M463.2,68.4l-32-64c-2-4-6.8-5.6-10.7-3.6c0,0,0,0,0,0l-64,32c-4,2-5.6,6.8-3.6,10.7s6.8,5.6,10.7,3.6
				L409.9,24l-12.6,36.1C341.7,218.4,198.5,329.5,31.3,344l1.4,16c173.5-15,322.1-130.3,379.7-294.6l12.9-36.9l23.5,47.1
				c2,4,6.8,5.6,10.7,3.6C463.5,77.2,465.1,72.4,463.2,68.4z"/>
		</g>
	</g>
	<g>
		<g>
			<path class="st0" d="M96,384H40c-4.4,0-8,3.6-8,8v48c0,4.4,3.6,8,8,8h56c4.4,0,8-3.6,8-8v-48C104,387.6,100.4,384,96,384z
				 M88,432H48v-32h40V432z"/>
		</g>
	</g>
	<g>
		<g>
			<path class="st0" d="M184,360h-56c-4.4,0-8,3.6-8,8v72c0,4.4,3.6,8,8,8h56c4.4,0,8-3.6,8-8v-72C192,363.6,188.4,360,184,360z
				 M176,432h-40v-56h40V432z"/>
		</g>
	</g>
	<g>
		<g>
			<path class="st0" d="M272,320h-56c-4.4,0-8,3.6-8,8v112c0,4.4,3.6,8,8,8h56c4.4,0,8-3.6,8-8V328C280,323.6,276.4,320,272,320z
				 M264,432h-40v-96h40V432z"/>
		</g>
	</g>
	<g>
		<g>
			<path class="st0" d="M360,264h-56c-4.4,0-8,3.6-8,8v168c0,4.4,3.6,8,8,8h56c4.4,0,8-3.6,8-8V272C368,267.6,364.4,264,360,264z
				 M352,432h-40V280h40V432z"/>
		</g>
	</g>
	<g>
		<g>
			<path class="st0" d="M448,152h-56c-4.4,0-8,3.6-8,8v280c0,4.4,3.6,8,8,8h56c4.4,0,8-3.6,8-8V160C456,155.6,452.4,152,448,152z
				 M440,432h-40V168h40V432z"/>
		</g>
	</g>
</g>
</svg>
