<?xml version="1.0" encoding="utf-8"?>
<!-- Generator: Adobe Illustrator 25.2.3, SVG Export Plug-In . SVG Version: 6.00 Build 0)  -->
<svg version="1.1" id="Layer_1" xmlns="http://www.w3.org/2000/svg" xmlns:xlink="http://www.w3.org/1999/xlink" x="0px" y="0px"
	 viewBox="0 0 512 512" style="enable-background:new 0 0 512 512;" xml:space="preserve">
<style type="text/css">
	.st0{fill:#394CFF;}
</style>
<g id="Artificial_Intelligence-2">
	<path class="st0" d="M488,168c4.4,0,8-3.6,8-8v-48c0-4.4-3.6-8-8-8h-30c-0.4-1.1-0.9-2.2-1.4-3.3l21.2-21.2c3.1-3.1,3.1-8.2,0-11.3
		l-33.9-33.9c-3.2-3-8.1-3-11.3,0l-21.2,21.2c-1.1-0.5-2.2-1-3.3-1.4V24c0-4.4-3.6-8-8-8h-48c-4.4,0-8,3.6-8,8v30
		c-1.1,0.4-2.2,0.9-3.3,1.4l-21.2-21.2c-3.2-3-8.1-3-11.3,0l-33.9,33.9c-3.1,3.1-3.1,8.2,0,11.3l21.2,21.2c-0.5,1.1-1,2.2-1.4,3.3
		h-30c-4.4,0-8,3.6-8,8v16H142.5c-4.3-12.4-17.9-19-30.4-14.7c-6.9,2.4-12.3,7.8-14.7,14.7H72c-13.3,0-24,10.7-24,24l0,0v88h-8
		c-13.3,0-24,10.7-24,24v96c0,13.3,10.7,24,24,24h8v32H24c-4.4,0-8,3.6-8,8v32c0,22.1,17.9,40,40,40h400c22.1,0,40-17.9,40-40v-32
		c0-4.4-3.6-8-8-8h-24V217.7l13.8-13.8c3.1-3.1,3.1-8.2,0-11.3l-21.2-21.2c0.5-1.1,1-2.2,1.4-3.3L488,168z M120,128c4.4,0,8,3.6,8,8
		s-3.6,8-8,8s-8-3.6-8-8S115.6,128,120,128z M128,208h-16v-8c0-4.4,3.6-8,8-8s8,3.6,8,8V208z M152,224c4.4,0,8,3.6,8,8v8H80v-8
		c0-4.4,3.6-8,8-8H152z M32,360v-96c0-4.4,3.6-8,8-8h160c4.4,0,8,3.6,8,8v96c0,4.4-3.6,8-8,8H40C35.6,368,32,364.4,32,360z M480,456
		c0,13.3-10.7,24-24,24H56c-13.3,0-24-10.7-24-24v-24h136v8c0,13.3,10.7,24,24,24l0,0h128c13.3,0,24-10.7,24-24l0,0v-8h136V456z
		 M448,416H336c-4.4,0-8,3.6-8,8v16c0,4.4-3.6,8-8,8H192c-4.4,0-8-3.6-8-8v-16c0-4.4-3.6-8-8-8H64v-32h136c13.3,0,24-10.7,24-24v-96
		c0-13.3-10.7-24-24-24h-24v-8c0-13.3-10.7-24-24-24h-8v-8c0-13.3-10.7-24-24-24s-24,10.7-24,24v8h-8c-13.3,0-24,10.7-24,24v-80
		c0-4.4,3.6-8,8-8h25.5c4.3,12.4,17.9,19,30.4,14.7c6.9-2.4,12.3-7.8,14.7-14.7H256v16c0,4.4,3.6,8,8,8h30c0.4,1.1,0.9,2.2,1.4,3.3
		l-21.2,21.2c-3.1,3.1-3.1,8.2,0,11.3l33.9,33.9c3.2,3,8.1,3,11.3,0l21.2-21.2c1.1,0.5,2.2,1,3.3,1.4v30c0,4.4,3.6,8,8,8h48
		c4.4,0,8-3.6,8-8v-30c1.1-0.4,2.2-0.9,3.3-1.4l21.2,21.2c3.2,3,8.1,3,11.3,0l4.1-4.1L448,416z M441.2,178.6l19.6,19.6l-22.6,22.6
		l-19.6-19.6c-2.5-2.5-6.3-3.1-9.4-1.4c-3.7,2-7.6,3.6-11.7,4.9c-3.3,1-5.6,4.1-5.6,7.6V240h-32v-27.7c0-3.5-2.3-6.6-5.6-7.6
		c-4-1.3-7.9-2.9-11.7-4.9c-3.1-1.6-6.9-1-9.4,1.4l-19.6,19.6l-22.6-22.6l19.6-19.6c2.5-2.5,3.1-6.3,1.4-9.4
		c-2-3.7-3.6-7.6-4.9-11.7c-1-3.3-4.1-5.6-7.6-5.6H272v-32h27.7c3.5,0,6.6-2.3,7.6-5.6c1.3-4,2.9-7.9,4.9-11.7
		c1.6-3.1,1-6.9-1.4-9.4l-19.6-19.6l22.6-22.6l19.6,19.6c2.5,2.5,6.3,3.1,9.4,1.4c3.7-2,7.6-3.6,11.7-4.9c3.3-1,5.6-4.1,5.6-7.6V32
		h32v27.7c0,3.5,2.3,6.6,5.6,7.6c4,1.3,7.9,2.9,11.7,4.9c3.1,1.6,6.9,1,9.4-1.4l19.6-19.6l22.6,22.6l-19.6,19.6
		c-2.5,2.5-3.1,6.3-1.4,9.4c2,3.7,3.6,7.6,4.9,11.7c1,3.3,4.1,5.6,7.6,5.6H480v32h-27.7c-3.5,0-6.6,2.3-7.6,5.6
		c-1.3,4-2.9,7.9-4.9,11.7C438.2,172.4,438.8,176.2,441.2,178.6z"/>
	<path class="st0" d="M376,80c-30.9,0-56,25.1-56,56s25.1,56,56,56s56-25.1,56-56C432,105.1,406.9,80,376,80z M376,176
		c-22.1,0-40-17.9-40-40s17.9-40,40-40s40,17.9,40,40C416,158.1,398.1,176,376,176z"/>
	<path class="st0" d="M72,272c-13.3,0-24,10.7-24,24s10.7,24,24,24s24-10.7,24-24S85.3,272,72,272z M72,304c-4.4,0-8-3.6-8-8
		s3.6-8,8-8s8,3.6,8,8S76.4,304,72,304z"/>
	<path class="st0" d="M168,272c-13.3,0-24,10.7-24,24s10.7,24,24,24s24-10.7,24-24S181.3,272,168,272z M168,304c-4.4,0-8-3.6-8-8
		s3.6-8,8-8s8,3.6,8,8S172.4,304,168,304z"/>
	<path class="st0" d="M96,336h48v16H96V336z"/>
	<path class="st0" d="M64,336h16v16H64V336z"/>
	<path class="st0" d="M160,336h16v16h-16V336z"/>
	<path class="st0" d="M120,32c27.6,0,54.1,10.9,73.6,30.5l11.3-11.3C158,4.3,82,4.3,35.2,51.1l11.3,11.3C65.9,42.9,92.4,32,120,32z"
		/>
	<path class="st0" d="M182.2,73.8c-34.3-34.4-90-34.4-124.4,0c0,0,0,0,0,0l11.3,11.3c28.1-28.1,73.7-28.1,101.8,0L182.2,73.8z"/>
	<path class="st0" d="M80.4,96.4l11.4,11.3c15.6-15.6,40.8-15.6,56.4,0c0,0,0,0,0,0l11.4-11.3c-21.8-21.9-57.2-21.9-79-0.2
		C80.5,96.3,80.5,96.4,80.4,96.4z"/>
	<path class="st0" d="M256,272h32v16h-32V272z"/>
	<path class="st0" d="M304,272h112v16H304V272z"/>
	<path class="st0" d="M256,304h128v16H256V304z"/>
	<path class="st0" d="M400,304h16v16h-16V304z"/>
	<path class="st0" d="M256,336h160v16H256V336z"/>
	<path class="st0" d="M256,368h16v16h-16V368z"/>
	<path class="st0" d="M288,368h128v16H288V368z"/>
</g>
</svg>
