<?xml version="1.0" encoding="utf-8"?>
<!-- Generator: Adobe Illustrator 25.2.3, SVG Export Plug-In . SVG Version: 6.00 Build 0)  -->
<svg version="1.1" id="Layer_1" xmlns="http://www.w3.org/2000/svg" xmlns:xlink="http://www.w3.org/1999/xlink" x="0px" y="0px"
	 viewBox="0 0 512 512" style="enable-background:new 0 0 512 512;" xml:space="preserve">
<style type="text/css">
	.st0{fill:#394CFF;}
</style>
<g id="Hand-2">
	<path class="st0" d="M416,48c-17.7,0-32,14.3-32,32v104c0,4.4,3.6,8,8,8h9.9l-38.4,64h-50.4l29.1-34.9c1.2-1.4,1.9-3.3,1.9-5.1v-40
		h16c4.4,0,8-3.6,8-8V64c0-17.7-14.3-32-32-32s-32,14.3-32,32v104c0,4.4,3.6,8,8,8h16v37.1L292.2,256H264v-96h16c4.4,0,8-3.6,8-8V48
		c0-17.7-14.3-32-32-32s-32,14.3-32,32v104c0,4.4,3.6,8,8,8h16v96h-28.2L184,213.1V176h16c4.4,0,8-3.6,8-8V64c0-17.7-14.3-32-32-32
		s-32,14.3-32,32v104c0,4.4,3.6,8,8,8h16v40c0,1.9,0.7,3.7,1.9,5.1l29.1,34.9h-27.6l-34.8-34.8l11.1-11.1c3.1-3.1,3.1-8.2,0-11.3
		l-73.5-73.5c-12.5-12.5-32.8-12.5-45.3,0s-12.5,32.8,0,45.3l73.5,73.5c3.1,3.1,8.2,3.1,11.3,0l11.5-11.5l23.5,23.5H120
		c-4.4,0-8,3.6-8,8c0,1.5,0.4,2.9,1.1,4.1l41.2,68.6C143.6,339.4,136,349,136,360v64c0,13.3,10.7,24,24,24v40c0,4.4,3.6,8,8,8h176
		c4.4,0,8-3.6,8-8v-40c13.3,0,24-10.7,24-24v-64c0-11-7.6-20.6-18.3-23.2l41.2-68.6c2.3-3.8,1-8.7-2.7-11c-1.2-0.7-2.7-1.1-4.1-1.1
		h-9.9l38.4-64H440c4.4,0,8-3.6,8-8V80C448,62.3,433.7,48,416,48z M320,64c0-8.8,7.2-16,16-16s16,7.2,16,16v96h-32V64z M240,48
		c0-8.8,7.2-16,16-16c8.8,0,16,7.2,16,16v96h-32V48z M160,64c0-8.8,7.2-16,16-16s16,7.2,16,16v96h-32V64z M108,227l-67.9-67.9
		c-6.3-6.2-6.3-16.4,0-22.6s16.4-6.3,22.6,0l67.9,67.9L108,227z M336,480H176v-32h160V480z M360,424c0,4.4-3.6,8-8,8H160
		c-4.4,0-8-3.6-8-8v-64c0-4.4,3.6-8,8-8h192c4.4,0,8,3.6,8,8V424z M339.5,336H172.5l-38.4-64h243.7L339.5,336z M432,176h-32V80
		c0-8.8,7.2-16,16-16s16,7.2,16,16V176z"/>
	<path class="st0" d="M328,368c-13.3,0-24,10.7-24,24s10.7,24,24,24s24-10.7,24-24S341.3,368,328,368z M328,400c-4.4,0-8-3.6-8-8
		s3.6-8,8-8s8,3.6,8,8S332.4,400,328,400z"/>
</g>
</svg>
