<?xml version="1.0" encoding="utf-8"?>
<!-- Generator: Adobe Illustrator 25.2.3, SVG Export Plug-In . SVG Version: 6.00 Build 0)  -->
<svg version="1.1" id="Layer_1" xmlns="http://www.w3.org/2000/svg" xmlns:xlink="http://www.w3.org/1999/xlink" x="0px" y="0px"
	 viewBox="0 0 512 512" style="enable-background:new 0 0 512 512;" xml:space="preserve">
<style type="text/css">
	.st0{fill:#394CFF;}
</style>
<g id="outline">
	<path class="st0" d="M16,304c0,13.3,10.7,24,24,24h432c13.3,0,24-10.7,24-24V184H16V304z M32,200h448v104c0,4.4-3.6,8-8,8H40
		c-4.4,0-8-3.6-8-8V200z"/>
	<path class="st0" d="M176,248h-16v-16h-48v16H96v48h80V248z M160,280h-48v-16h16v-16h16v16h16V280z"/>
	<path class="st0" d="M192,296h80v-48h-16v-16h-48v16h-16V296z M208,264h16v-16h16v16h16v16h-48V264z"/>
	<path class="st0" d="M288,296h80v-48h-16v-16h-48v16h-16V296z M304,264h16v-16h16v16h16v16h-48V264z"/>
	<path class="st0" d="M384,296h80v-48h-16v-16h-48v16h-16V296z M400,264h16v-16h16v16h16v16h-48V264z"/>
	<path class="st0" d="M176,216h16v16h-16V216z"/>
	<path class="st0" d="M272,216h16v16h-16V216z"/>
	<path class="st0" d="M368,216h16v16h-16V216z"/>
	<path class="st0" d="M48,280h32v16H48V280z"/>
	<path class="st0" d="M48,248h32v16H48V248z"/>
	<path class="st0" d="M48,216h32v16H48V216z"/>
</g>
</svg>
