<?xml version="1.0" encoding="utf-8"?>
<!-- Generator: Adobe Illustrator 25.2.3, SVG Export Plug-In . SVG Version: 6.00 Build 0)  -->
<svg version="1.1" id="Layer_1" xmlns="http://www.w3.org/2000/svg" xmlns:xlink="http://www.w3.org/1999/xlink" x="0px" y="0px"
	 viewBox="0 0 512 512" style="enable-background:new 0 0 512 512;" xml:space="preserve">
<style type="text/css">
	.st0{fill:#394CFF;}
</style>
<g id="Page-1">
	<g id="_x31_25---Python-Files">
		<path id="Shape" class="st0" d="M119.5,512h307.2c23.6,0,42.6-19.1,42.7-42.7V76.8c0-20.5-14.7-38.2-34.9-41.9
			C430.7,14.7,413.1,0,392.5,0H162.1c-2.3,0-4.4,0.9-6,2.5L45.2,113.4c-1.6,1.6-2.5,3.8-2.5,6v315.7c0,20.5,14.7,38.2,34.9,41.9
			C81.3,497.3,98.9,512,119.5,512z M452.3,76.8v392.5c0,14.1-11.5,25.6-25.6,25.6H119.5c-10.8,0-20.4-6.9-24-17.1h297.1
			c23.6,0,42.6-19.1,42.7-42.7V52.8C445.4,56.4,452.2,66,452.3,76.8L452.3,76.8z M153.6,29.1v56.2c0,14.1-11.5,25.6-25.6,25.6H71.8
			L153.6,29.1z M59.7,435.2V128H128c23.6,0,42.6-19.1,42.7-42.7V17.1h221.9c14.1,0,25.6,11.5,25.6,25.6v392.5
			c0,14.1-11.5,25.6-25.6,25.6H85.3C71.2,460.8,59.7,449.3,59.7,435.2z"/>
		<path id="Shape_1_" class="st0" d="M290.1,51.2h51.2c4.7,0,8.5-3.8,8.5-8.5s-3.8-8.5-8.5-8.5h-51.2c-4.7,0-8.5,3.8-8.5,8.5
			S285.4,51.2,290.1,51.2z"/>
		<path id="Shape_2_" class="st0" d="M375.5,51.2h17.1c4.7,0,8.5-3.8,8.5-8.5s-3.8-8.5-8.5-8.5h-17.1c-4.7,0-8.5,3.8-8.5,8.5
			S370.8,51.2,375.5,51.2z"/>
		<path id="Shape_3_" class="st0" d="M93.9,435.2h8.5c4.7,0,8.5-3.8,8.5-8.5s-3.8-8.5-8.5-8.5h-8.5c-4.7,0-8.5,3.8-8.5,8.5
			S89.2,435.2,93.9,435.2z"/>
		<path id="Shape_4_" class="st0" d="M384,418.1h-76.8c-4.7,0-8.5,3.8-8.5,8.5s3.8,8.5,8.5,8.5H384c4.7,0,8.5-3.8,8.5-8.5
			S388.7,418.1,384,418.1z"/>
		<path id="Shape_5_" class="st0" d="M264.5,418.1h-128c-4.7,0-8.5,3.8-8.5,8.5s3.8,8.5,8.5,8.5h128c4.7,0,8.5-3.8,8.5-8.5
			S269.2,418.1,264.5,418.1z"/>
		<path id="Shape_6_" class="st0" d="M136.5,315.7h34.1v34.1c0,23.6,19.1,42.6,42.7,42.7h51.2c23.6,0,42.6-19.1,42.7-42.7v-34.1
			h34.1c23.6,0,42.6-19.1,42.7-42.7v-51.2c0-23.6-19.1-42.6-42.7-42.7h-34.1v-34.1c0-23.6-19.1-42.6-42.7-42.7h-51.2
			c-23.6,0-42.6,19.1-42.7,42.7v34.1h-34.1c-23.6,0-42.6,19.1-42.7,42.7v51.2C93.9,296.6,113,315.7,136.5,315.7z M341.3,196.3
			c14.1,0,25.6,11.5,25.6,25.6v51.2c0,14.1-11.5,25.6-25.6,25.6H238.9c-4.7,0-8.5,3.8-8.5,8.5s3.8,8.5,8.5,8.5h51.2v34.1
			c0,14.1-11.5,25.6-25.6,25.6h-51.2c-14.1,0-25.6-11.5-25.6-25.6v-68.3c0-14.1,11.5-25.6,25.6-25.6h51.2
			c23.6,0,42.6-19.1,42.7-42.7v-17.1H341.3z M110.9,221.9c0-14.1,11.5-25.6,25.6-25.6h102.4c4.7,0,8.5-3.8,8.5-8.5
			c0-4.7-3.8-8.5-8.5-8.5h-51.2v-34.1c0-14.1,11.5-25.6,25.6-25.6h51.2c14.1,0,25.6,11.5,25.6,25.6v68.3c0,14.1-11.5,25.6-25.6,25.6
			h-51.2c-23.6,0-42.6,19.1-42.7,42.7v17.1h-34.1c-14.1,0-25.6-11.5-25.6-25.6V221.9z"/>
		<circle id="Oval" class="st0" cx="221.9" cy="153.6" r="8.5"/>
		<circle id="Oval_1_" class="st0" cx="256" cy="341.3" r="8.5"/>
	</g>
</g>
</svg>
