<?xml version="1.0" encoding="utf-8"?>
<!-- Generator: Adobe Illustrator 25.2.3, SVG Export Plug-In . SVG Version: 6.00 Build 0)  -->
<svg version="1.1" id="Capa_1" xmlns="http://www.w3.org/2000/svg" xmlns:xlink="http://www.w3.org/1999/xlink" x="0px" y="0px"
	 viewBox="0 0 480 480" style="enable-background:new 0 0 480 480;" xml:space="preserve">
<style type="text/css">
	.st0{fill:#394CFF;}
</style>
<g>
	<g>
		<path class="st0" d="M472,368c4.4,0,8-3.6,8-8v-64c0-4.4-3.6-8-8-8h-28.2l-51.2-64H408c4.4,0,8-3.6,8-8v-64c0-4.4-3.6-8-8-8h-29.8
			L269.5,80h2.5c4.4,0,8-3.6,8-8V8c0-4.4-3.6-8-8-8h-64c-4.4,0-8,3.6-8,8v64c0,4.4,3.6,8,8,8h2.2l-109.9,64H72c-4.4,0-8,3.6-8,8v64
			c0,4.4,3.6,8,8,8h15.4l-51.2,64H8c-4.4,0-8,3.6-8,8v64c0,4.4,3.6,8,8,8h24v32H8c-4.4,0-8,3.6-8,8v64c0,4.4,3.6,8,8,8h64
			c4.4,0,8-3.6,8-8v-64c0-4.4-3.6-8-8-8H48v-32h24c4.4,0,8-3.6,8-8v-64c0-4.4-3.6-8-8-8H56.6l47.4-59.2l47.4,59.2H136
			c-4.4,0-8,3.6-8,8v64c0,4.4,3.6,8,8,8h24v32h-24c-4.4,0-8,3.6-8,8v64c0,4.4,3.6,8,8,8h64c4.4,0,8-3.6,8-8v-64c0-4.4-3.6-8-8-8h-24
			v-32h24c4.4,0,8-3.6,8-8v-64c0-4.4-3.6-8-8-8h-28.2l-51.2-64H136c4.4,0,8-3.6,8-8v-64c0-4.4-3.6-8-8-8h-4l108-62.8L346.7,144H344
			c-4.4,0-8,3.6-8,8v64c0,4.4,3.6,8,8,8h15.4l-51.2,64H280c-4.4,0-8,3.6-8,8v64c0,4.4,3.6,8,8,8h24v32h-24c-4.4,0-8,3.6-8,8v64
			c0,4.4,3.6,8,8,8h64c4.4,0,8-3.6,8-8v-64c0-4.4-3.6-8-8-8h-24v-32h24c4.4,0,8-3.6,8-8v-64c0-4.4-3.6-8-8-8h-15.4l47.4-59.2
			l47.4,59.2H408c-4.4,0-8,3.6-8,8v64c0,4.4,3.6,8,8,8h24v32h-24c-4.4,0-8,3.6-8,8v64c0,4.4,3.6,8,8,8h64c4.4,0,8-3.6,8-8v-64
			c0-4.4-3.6-8-8-8h-24v-32H472z M64,416v48H16v-48H64z M64,304v48H16v-48H64z M192,416v48h-48v-48H192z M192,304v48h-48v-48H192z
			 M128,208H80v-48h48V208z M264,64h-23.1c-0.6-0.1-1.2-0.1-1.8,0H216V16h48V64z M336,416v48h-48v-48H336z M336,304v48h-48v-48H336z
			 M352,208v-48h48v48H352z M464,416v48h-48v-48H464z M416,352v-48h48v48H416z"/>
	</g>
</g>
</svg>
