<?xml version="1.0" encoding="utf-8"?>
<!-- Generator: Adobe Illustrator 25.2.3, SVG Export Plug-In . SVG Version: 6.00 Build 0)  -->
<svg version="1.1" id="Capa_1" xmlns="http://www.w3.org/2000/svg" xmlns:xlink="http://www.w3.org/1999/xlink" x="0px" y="0px"
	 viewBox="0 0 512 512" style="enable-background:new 0 0 512 512;" xml:space="preserve">
<style type="text/css">
	.st0{fill:#394CFF;}
</style>
<g>
	<g>
		<g>
			<path class="st0" d="M458.7,0H323.3c-25.6,0-49.7,10-67.9,28.1L18.2,265.4C6.5,277.1,0,292.7,0,309.4c0,16.6,6.5,32.2,18.2,43.9
				l140.5,140.5c11.7,11.7,27.3,18.2,44,18.2c16.6,0,32.2-6.5,43.9-18.2l237.3-237.3c18.1-18.1,28.1-42.2,28.1-67.9V53.3
				C512,23.9,488.1,0,458.7,0z M490.7,188.7c0,19.9-7.8,38.7-21.8,52.8L231.5,478.7c-15.3,15.3-42.2,15.4-57.7,0L33.3,338.2
				c-7.7-7.7-11.9-17.9-11.9-28.9c0-10.9,4.2-21.1,11.9-28.8L270.5,43.2c14.1-14.1,32.9-21.9,52.8-21.9h135.3c17.6,0,32,14.4,32,32
				L490.7,188.7L490.7,188.7z"/>
		</g>
	</g>
	<g>
		<g>
			<path class="st0" d="M394.7,64c-29.4,0-53.3,23.9-53.3,53.3s23.9,53.3,53.3,53.3s53.3-23.9,53.3-53.3C448,87.9,424.1,64,394.7,64
				z M394.7,149.3c-17.6,0-32-14.4-32-32s14.4-32,32-32s32,14.4,32,32S412.3,149.3,394.7,149.3z"/>
		</g>
	</g>
</g>
</svg>
